<svg version="1.2" baseProfile="tiny-ps" xmlns="http://www.w3.org/2000/svg" viewBox="0 0 360 335" width="360" height="335">
	<title>Blogging-bro (1)-svg-svg</title>
	<style>
		tspan { white-space:pre }
		.shp0 { fill: #ffffff } 
		.shp1 { opacity: 0.702;fill: #ffffff } 
		.shp2 { opacity: 0.502;fill: #ffffff } 
		.shp3 { opacity: 0.129;fill: #222222 } 
		.shp4 { fill: none;stroke: #222222;stroke-linecap:round;stroke-linejoin:round } 
		.shp5 { fill: #222222;stroke: #222222;stroke-linecap:round;stroke-linejoin:round } 
		.shp6 { fill: none;stroke: #ffffff;stroke-linecap:round;stroke-linejoin:round } 
		.shp7 { fill: #ffffff } 
		.shp8 { fill: #ffffff;stroke: #222222;stroke-linecap:round;stroke-linejoin:round } 
		.shp9 { fill: #222222 } 
		.shp10 { opacity: 0.529;fill: #ffffff } 
		.shp11 { opacity: 0.141;fill: #222222 } 
		.shp12 { fill: none;stroke: #222222;stroke-linecap:round;stroke-linejoin:round;stroke-width: 2 } 
		.shp13 { fill: none;stroke: #ffffff;stroke-linecap:round;stroke-linejoin:round;stroke-width: 0.75 } 
		.shp14 { fill: #f5f5f5;stroke: #222222;stroke-linecap:round;stroke-linejoin:round } 
	</style>
	<g id="freepik--background-simple--inject-10">
		<path id="Layer" class="shp0" d="M314.27 286.43C279.86 305.46 216.25 283.59 168.27 286.36C120.29 289.13 83.28 311.41 37.38 267.58C-8.52 223.75 8.7 179.73 38.94 147C69.18 114.27 75.45 41.94 119.25 20.27C163.05 -1.4 219.37 -13.1 287.16 47.4C324.72 80.9 360.94 162.05 353.46 223.1C350.16 250.09 338.32 273.15 314.27 286.43Z" />
		<path id="Layer" class="shp1" d="M314.27 286.43C279.86 305.46 216.25 283.59 168.27 286.36C120.29 289.13 83.28 311.41 37.38 267.58C-8.52 223.75 8.7 179.73 38.94 147C69.18 114.27 75.45 41.94 119.25 20.27C163.05 -1.4 219.37 -13.1 287.16 47.4C324.72 80.9 360.94 162.05 353.46 223.1C350.16 250.09 338.32 273.15 314.27 286.43Z" />
	</g>
	<g id="freepik--Character--inject-10">
		<path id="Layer" class="shp0" d="M163.04 315.95C99.47 315.95 48.09 299.94 48.09 280.14C48.09 260.34 99.47 244.33 163.04 244.33C226.61 244.33 277.99 260.34 277.99 280.14C277.99 299.94 226.61 315.95 163.04 315.95Z" />
		<path id="Layer" class="shp2" d="M163.04 315.95C99.47 315.95 48.09 299.94 48.09 280.14C48.09 260.34 99.47 244.33 163.04 244.33C226.61 244.33 277.99 260.34 277.99 280.14C277.99 299.94 226.61 315.95 163.04 315.95Z" />
		<path id="Layer" class="shp0" d="M192.06 164.78C200.28 177.13 216.73 185.03 222.56 188.78C228.39 192.53 245.53 210.34 245.87 225.78C246.21 241.22 237.64 269.99 211.59 278.22C185.54 286.45 138.93 290.55 113.91 279.59C88.89 268.63 78.94 255.28 78.6 228.52C78.26 201.76 93 145.89 110.14 132.52C127.28 119.15 153.33 122.24 153.33 122.24C171.83 125.67 183.84 152.43 192.06 164.78Z" />
		<g id="Layer">
			<path id="Layer" class="shp3" d="M215.2 276.89C214.8 277.05 214.41 277.22 214.01 277.37C213.61 277.52 213.21 277.67 212.81 277.81C212.4 277.96 212 278.09 211.59 278.22C185.54 286.45 138.93 290.55 113.91 279.59C88.89 268.63 78.94 255.28 78.6 228.52C78.26 201.76 93 145.89 110.14 132.52C110.23 132.44 110.34 132.38 110.43 132.3C111.24 132.3 112.05 132.33 112.85 132.39C113.66 132.45 114.46 132.54 115.26 132.65C116.06 132.77 116.86 132.91 117.65 133.08C118.44 133.25 119.22 133.45 120 133.67C135.33 137.67 126.67 201.66 132 210.33C137.33 219 149.33 218.33 156 226.33C162.67 234.33 167.33 255.67 186 267C194.84 272.37 206.52 275.04 216.37 276.37C215.98 276.55 215.59 276.72 215.2 276.89Z" />
		</g>
		<path id="Layer" class="shp4" d="M192.06 164.78C200.28 177.13 216.73 185.03 222.56 188.78C228.39 192.53 245.53 210.34 245.87 225.78C246.21 241.22 237.64 269.99 211.59 278.22C185.54 286.45 138.93 290.55 113.91 279.59C88.89 268.63 78.94 255.28 78.6 228.52C78.26 201.76 93 145.89 110.14 132.52C127.28 119.15 153.33 122.24 153.33 122.24C171.83 125.67 183.84 152.43 192.06 164.78Z" />
		<path id="Layer" class="shp5" d="M156.82 132.58C159.32 132.08 177.07 132.33 181.32 134.58C185.57 136.83 213.21 199.17 213.21 199.17C213.21 199.17 196.85 200.33 186.1 202.82C175.35 205.31 124.84 210.57 124.82 209.82C124.8 209.07 124.76 208.32 124.72 207.56C124.67 206.81 124.62 206.06 124.56 205.31C124.5 204.56 124.42 203.81 124.34 203.06C124.26 202.31 124.17 201.57 124.07 200.82C123.57 198.32 123.07 193.07 118.07 191.07C117.23 190.78 116.37 190.55 115.5 190.38C114.63 190.21 113.74 190.11 112.86 190.06C111.97 190.02 111.08 190.04 110.19 190.13C109.31 190.21 108.43 190.36 107.57 190.57C107.57 190.57 120.07 143.57 123.07 140.57C126.07 137.57 143.07 134.32 143.07 134.32C143.07 134.32 154.32 133.08 156.82 132.58Z" />
		<path id="Layer" class="shp6" d="M126.32 192.07L130.57 157.32" />
		<path id="Layer" class="shp6" d="M129.57 166.57L135.32 159.07" />
		<path id="Layer" class="shp6" d="M146.82 171.07C146.82 171.07 163.07 165.82 173.82 165.82" />
		<path id="Layer" class="shp6" d="M171.82 178.07C170.82 173.07 162.9 168.98 163.07 168.82C163.24 168.66 163.38 168.48 163.51 168.29C163.64 168.1 163.75 167.89 163.83 167.68C163.92 167.46 163.98 167.24 164.02 167.01C164.06 166.78 164.08 166.55 164.07 166.32C163.82 165.07 161.07 165.07 161.07 165.07L162.16 156.74" />
		<path id="Layer" class="shp7" d="M162.57 126.16C166.07 128.83 165.39 132.66 167.73 136.33C170.07 140 172.24 141.17 171.57 142.5C170.9 143.83 167.89 138.82 167.73 140.16C167.57 141.5 167.74 145.32 166.57 147.16C165.4 149 160.57 156 160.57 156C160.57 156 158.41 154.32 156.07 152.66C153.73 151 151.07 148 151.07 145.83C151.07 143.66 150.39 142.34 149.23 142C148.07 141.66 144.57 145.17 143.57 147.5C142.57 149.83 141.4 153 141.4 151C141.4 149 140.39 132.66 141.73 130.33C143.07 128 152.4 125 152.4 125C155.07 124.32 159.07 123.49 162.57 126.16Z" />
		<g id="Layer">
			<path id="Layer" class="shp0" d="M152.4 125L152.54 125L154.73 148.84C154.73 148.84 153.49 139.63 150.25 138.38C147.71 137.4 143.32 142.58 141.19 145.32C140.99 139.66 140.85 131.88 141.73 130.32C143.07 128 152.4 125 152.4 125Z" />
			<path id="Layer" class="shp2" d="M152.4 125L152.54 125L154.73 148.84C154.73 148.84 153.49 139.63 150.25 138.38C147.71 137.4 143.32 142.58 141.19 145.32C140.99 139.66 140.85 131.88 141.73 130.32C143.07 128 152.4 125 152.4 125Z" />
		</g>
		<path id="Layer" class="shp4" d="M162.57 126.16C166.07 128.83 165.39 132.66 167.73 136.33C170.07 140 172.24 141.17 171.57 142.5C170.9 143.83 167.89 138.82 167.73 140.16C167.57 141.5 167.74 145.32 166.57 147.16C165.4 149 160.57 156 160.57 156C160.57 156 158.41 154.32 156.07 152.66C153.73 151 151.07 148 151.07 145.83C151.07 143.66 150.39 142.34 149.23 142C148.07 141.66 144.57 145.17 143.57 147.5C142.57 149.83 141.4 153 141.4 151C141.4 149 140.39 132.66 141.73 130.33C143.07 128 152.4 125 152.4 125C155.07 124.32 159.07 123.49 162.57 126.16Z" />
		<path id="Layer" class="shp7" d="M116.32 204.57C107.07 207.57 102.32 206.32 101.07 204.82C99.82 203.32 101.57 192.57 101.82 190.57C102.07 188.57 110.57 182.82 117.57 183.57C124.57 184.32 130.32 192.57 130.32 192.57C129.32 197.82 125.57 201.57 116.32 204.57Z" />
		<g id="Layer">
			<path id="Layer" class="shp0" d="M105.95 206.36C103.3 206.27 101.71 205.56 101.07 204.79C99.82 203.29 101.57 192.54 101.82 190.54C102.02 188.93 107.59 184.88 113.41 183.76C111.56 184.77 106.86 187.49 107.17 188.85C107.57 190.54 115.87 185.85 113.4 188.85C110.93 191.85 106.93 194.86 105.93 196.85C104.93 198.84 106.93 204.56 106.93 204.56C106.93 204.56 106.55 205.33 105.95 206.36Z" />
			<path id="Layer" class="shp2" d="M105.95 206.36C103.3 206.27 101.71 205.56 101.07 204.79C99.82 203.29 101.57 192.54 101.82 190.54C102.02 188.93 107.59 184.88 113.41 183.76C111.56 184.77 106.86 187.49 107.17 188.85C107.57 190.54 115.87 185.85 113.4 188.85C110.93 191.85 106.93 194.86 105.93 196.85C104.93 198.84 106.93 204.56 106.93 204.56C106.93 204.56 106.55 205.33 105.95 206.36Z" />
		</g>
		<path id="Layer" class="shp4" d="M116.32 204.57C107.07 207.57 102.32 206.32 101.07 204.82C99.82 203.32 101.57 192.57 101.82 190.57C102.07 188.57 110.57 182.82 117.57 183.57C124.57 184.32 130.32 192.57 130.32 192.57C129.32 197.82 125.57 201.57 116.32 204.57Z" />
		<path id="Layer" class="shp7" d="M123.32 189.07C128.57 187.07 163.57 178.32 165.07 178.32C166.57 178.32 178.82 182.32 179.57 184.07C180.32 185.82 185.82 194.07 184.07 194.07C182.32 194.07 179.43 188.57 178.82 188.57C178.21 188.57 177.6 188.56 176.99 188.53C176.39 188.5 175.78 188.45 175.17 188.39C174.57 188.33 173.97 188.25 173.36 188.15C172.76 188.06 172.17 187.95 171.57 187.82C169.07 187.07 163.07 185.07 161.32 185.82C159.57 186.57 144.57 195.32 138.07 199.07C131.57 202.82 121.57 211.57 114.57 211.57C107.57 211.57 100.86 209.82 101.07 205.82C101.44 198.54 110.82 194.82 110.82 194.82C110.82 194.82 118.07 191.07 123.32 189.07Z" />
		<g id="Layer">
			<path id="Layer" class="shp0" d="M142.01 196.79L138.07 199.07C131.57 202.82 121.57 211.57 114.57 211.57C107.57 211.57 100.86 209.82 101.07 205.82C101.44 198.54 110.82 194.82 110.82 194.82C110.82 194.82 118.07 191.07 123.32 189.07C128.57 187.07 163.57 178.32 165.07 178.32C165.07 178.32 144.72 186.63 130.43 193.78C119.69 199.14 132.46 198 142.01 196.79Z" />
			<path id="Layer" class="shp2" d="M142.01 196.79L138.07 199.07C131.57 202.82 121.57 211.57 114.57 211.57C107.57 211.57 100.86 209.82 101.07 205.82C101.44 198.54 110.82 194.82 110.82 194.82C110.82 194.82 118.07 191.07 123.32 189.07C128.57 187.07 163.57 178.32 165.07 178.32C165.07 178.32 144.72 186.63 130.43 193.78C119.69 199.14 132.46 198 142.01 196.79Z" />
		</g>
		<path id="Layer" class="shp4" d="M123.32 189.07C128.57 187.07 163.57 178.32 165.07 178.32C166.57 178.32 178.82 182.32 179.57 184.07C180.32 185.82 185.82 194.07 184.07 194.07C182.32 194.07 179.43 188.57 178.82 188.57C178.21 188.57 177.6 188.56 176.99 188.53C176.39 188.5 175.78 188.45 175.17 188.39C174.57 188.33 173.97 188.25 173.36 188.15C172.76 188.06 172.17 187.95 171.57 187.82C169.07 187.07 163.07 185.07 161.32 185.82C159.57 186.57 144.57 195.32 138.07 199.07C131.57 202.82 121.57 211.57 114.57 211.57C107.57 211.57 100.86 209.82 101.07 205.82C101.44 198.54 110.82 194.82 110.82 194.82C110.82 194.82 118.07 191.07 123.32 189.07Z" />
		<path id="Layer" class="shp8" d="M184.25 138.39C184.41 138.13 184.61 137.9 184.84 137.72C185.07 137.53 185.34 137.38 185.62 137.29C185.9 137.19 186.2 137.15 186.5 137.16L237.1 138.68C237.46 138.69 237.82 138.78 238.15 138.95C238.47 139.11 238.76 139.34 238.99 139.63C239.22 139.91 239.38 140.24 239.47 140.6C239.56 140.95 239.57 141.32 239.5 141.68L231.32 182.32L176.32 182.07L183.94 139.22C183.99 138.93 184.1 138.64 184.25 138.39Z" />
		<path id="Layer" class="shp7" d="M176.32 182.07L231.32 182.32L210.79 199.26L149.54 201.01L176.32 182.07L176.32 182.07Z" />
		<g id="Layer">
			<path id="Layer" class="shp0" d="M176.32 182.07L231.32 182.32L210.79 199.26L149.54 201.01L176.32 182.07L176.32 182.07Z" />
			<path id="Layer" class="shp2" d="M176.32 182.07L231.32 182.32L210.79 199.26L149.54 201.01L176.32 182.07L176.32 182.07Z" />
		</g>
		<path id="Layer" class="shp4" d="M176.32 182.07L231.32 182.32L210.79 199.26L149.54 201.01L176.32 182.07L176.32 182.07Z" />
		<path id="Layer" class="shp7" d="M196.57 200.82C196.57 200.82 218.57 181.57 240.32 175.07C262.07 168.57 266.57 169.57 266.07 179.32C265.57 189.07 255.07 240.07 248.07 253.07C241.07 266.07 232.32 289.82 232.57 294.32C232.82 298.82 241.32 312.07 248.82 316.82C256.32 321.57 255.57 327.32 250.82 328.32C246.07 329.32 240.57 331.07 224.32 320.57C208.07 310.07 201.32 295.07 202.32 291.32C203.32 287.57 213.82 282.57 218.07 275.07C222.32 267.57 229.32 239.57 229.82 226.82C229.92 224.81 230.1 222.81 230.36 220.81C230.62 218.82 230.96 216.84 231.38 214.87C231.8 212.9 232.3 210.95 232.87 209.03C233.44 207.1 234.09 205.2 234.82 203.32C235.55 201.44 207.32 208.32 199.32 213.32L196.57 200.82Z" />
		<g id="Layer">
			<path id="Layer" class="shp0" d="M196.57 200.82C196.57 200.82 218.57 181.57 240.32 175.07C262.07 168.57 266.57 169.57 266.07 179.32C265.57 189.07 255.07 240.07 248.07 253.07C241.07 266.07 232.32 289.82 232.57 294.32C232.82 298.82 241.32 312.07 248.82 316.82C256.32 321.57 255.57 327.32 250.82 328.32C246.07 329.32 240.57 331.07 224.32 320.57C208.07 310.07 201.32 295.07 202.32 291.32C203.32 287.57 213.82 282.57 218.07 275.07C222.32 267.57 229.32 239.57 229.82 226.82C229.92 224.81 230.1 222.81 230.36 220.81C230.62 218.82 230.96 216.84 231.38 214.87C231.8 212.9 232.3 210.95 232.87 209.03C233.44 207.1 234.09 205.2 234.82 203.32C235.55 201.44 207.32 208.32 199.32 213.32L196.57 200.82Z" />
			<path id="Layer" class="shp2" d="M196.57 200.82C196.57 200.82 218.57 181.57 240.32 175.07C262.07 168.57 266.57 169.57 266.07 179.32C265.57 189.07 255.07 240.07 248.07 253.07C241.07 266.07 232.32 289.82 232.57 294.32C232.82 298.82 241.32 312.07 248.82 316.82C256.32 321.57 255.57 327.32 250.82 328.32C246.07 329.32 240.57 331.07 224.32 320.57C208.07 310.07 201.32 295.07 202.32 291.32C203.32 287.57 213.82 282.57 218.07 275.07C222.32 267.57 229.32 239.57 229.82 226.82C229.92 224.81 230.1 222.81 230.36 220.81C230.62 218.82 230.96 216.84 231.38 214.87C231.8 212.9 232.3 210.95 232.87 209.03C233.44 207.1 234.09 205.2 234.82 203.32C235.55 201.44 207.32 208.32 199.32 213.32L196.57 200.82Z" />
		</g>
		<path id="Layer" class="shp4" d="M196.57 200.82C196.57 200.82 218.57 181.57 240.32 175.07C262.07 168.57 266.57 169.57 266.07 179.32C265.57 189.07 255.07 240.07 248.07 253.07C241.07 266.07 232.32 289.82 232.57 294.32C232.82 298.82 241.32 312.07 248.82 316.82C256.32 321.57 255.57 327.32 250.82 328.32C246.07 329.32 240.57 331.07 224.32 320.57C208.07 310.07 201.32 295.07 202.32 291.32C203.32 287.57 213.82 282.57 218.07 275.07C222.32 267.57 229.32 239.57 229.82 226.82C229.92 224.81 230.1 222.81 230.36 220.81C230.62 218.82 230.96 216.84 231.38 214.87C231.8 212.9 232.3 210.95 232.87 209.03C233.44 207.1 234.09 205.2 234.82 203.32C235.55 201.44 207.32 208.32 199.32 213.32L196.57 200.82Z" />
		<path id="Layer" class="shp8" d="M229.82 226.82C229.92 224.81 230.1 222.81 230.36 220.81C230.62 218.82 230.96 216.84 231.38 214.87C231.8 212.9 232.3 210.95 232.87 209.03C233.44 207.1 234.09 205.2 234.82 203.32C234.82 203.32 207.32 208.32 199.32 213.32L196.57 200.82C196.57 200.82 218.57 181.57 240.32 175.07C262.07 168.57 266.57 169.57 266.07 179.32C265.57 189.07 255.07 240.07 248.07 253.07C246.72 255.71 245.42 258.37 244.18 261.06C242.93 263.75 241.75 266.46 240.61 269.2C239.48 271.94 238.4 274.7 237.38 277.48C236.36 280.26 235.4 283.06 234.49 285.88C234.22 285.59 233.95 285.3 233.67 285.02C233.39 284.73 233.11 284.45 232.82 284.18C232.54 283.9 232.25 283.63 231.96 283.36C231.67 283.09 231.37 282.83 231.07 282.57C230.08 281.74 229.03 280.99 227.93 280.32C226.83 279.65 225.67 279.07 224.48 278.57C223.29 278.08 222.07 277.67 220.82 277.36C219.57 277.05 218.29 276.83 217.01 276.71C217.39 276.17 217.75 275.63 218.07 275.07C222.32 267.57 229.32 239.57 229.82 226.82Z" />
		<path id="Layer" class="shp9" d="M229.82 226.82C229.92 224.81 230.1 222.81 230.36 220.81C230.62 218.82 230.96 216.84 231.38 214.87C231.8 212.9 232.3 210.95 232.87 209.03C233.44 207.1 234.09 205.2 234.82 203.32C234.82 203.32 207.32 208.32 199.32 213.32L196.57 200.82C196.57 200.82 218.57 181.57 240.32 175.07C262.07 168.57 266.57 169.57 266.07 179.32C265.57 189.07 266.46 229.18 250.75 250.77C244.67 259.13 239.28 279.44 234.49 285.88C234.22 285.59 233.95 285.3 233.67 285.02C233.39 284.73 233.11 284.45 232.82 284.18C232.54 283.9 232.25 283.63 231.96 283.36C231.67 283.09 231.37 282.83 231.07 282.57C230.08 281.74 229.03 280.99 227.93 280.32C226.83 279.65 225.67 279.07 224.48 278.57C223.29 278.08 222.07 277.67 220.82 277.36C219.57 277.05 218.29 276.83 217.01 276.71C217.39 276.17 217.75 275.63 218.07 275.07C222.32 267.57 229.32 239.57 229.82 226.82Z" />
		<g id="Layer">
			<path id="Layer" class="shp10" d="M229.82 226.82C229.92 224.81 230.1 222.81 230.36 220.81C230.62 218.82 230.96 216.84 231.38 214.87C231.8 212.9 232.3 210.95 232.87 209.03C233.44 207.1 234.09 205.2 234.82 203.32C234.82 203.32 207.32 208.32 199.32 213.32L196.57 200.82C196.57 200.82 218.57 181.57 240.32 175.07C262.07 168.57 266.57 169.57 266.07 179.32C265.57 189.07 266.46 229.18 250.75 250.77C244.67 259.13 239.28 279.44 234.49 285.88C234.22 285.59 233.95 285.3 233.67 285.02C233.39 284.73 233.11 284.45 232.82 284.18C232.54 283.9 232.25 283.63 231.96 283.36C231.67 283.09 231.37 282.83 231.07 282.57C230.08 281.74 229.03 280.99 227.93 280.32C226.83 279.65 225.67 279.07 224.48 278.57C223.29 278.08 222.07 277.67 220.82 277.36C219.57 277.05 218.29 276.83 217.01 276.71C217.39 276.17 217.75 275.63 218.07 275.07C222.32 267.57 229.32 239.57 229.82 226.82Z" />
			<path id="Layer" class="shp11" d="M240.5 239.5C237.45 251.13 231 266 225.01 278.78C224.37 278.51 223.73 278.27 223.07 278.04C222.42 277.82 221.76 277.62 221.09 277.45C220.42 277.28 219.74 277.13 219.06 277.01C218.38 276.88 217.7 276.78 217.01 276.71C217.39 276.17 217.75 275.63 218.07 275.07C222.32 267.57 229.32 239.57 229.82 226.82C229.92 224.81 230.1 222.81 230.36 220.81C230.62 218.82 230.96 216.84 231.38 214.87C231.8 212.9 232.3 210.95 232.87 209.03C233.44 207.1 234.09 205.2 234.82 203.32C234.82 203.32 207.32 208.32 199.32 213.32L196.57 200.82C196.57 200.82 197.87 199.68 200.13 197.88C216.44 190.82 255.11 174.45 255.5 178C256 182.5 246 218.5 240.5 239.5Z" />
			<path id="Layer" class="shp4" d="M234.82 203.32C234.82 203.32 242.32 188.07 248.82 181.82" />
		</g>
		<path id="Layer" class="shp4" d="M229.82 226.82C229.92 224.81 230.1 222.81 230.36 220.81C230.62 218.82 230.96 216.84 231.38 214.87C231.8 212.9 232.3 210.95 232.87 209.03C233.44 207.1 234.09 205.2 234.82 203.32C234.82 203.32 207.32 208.32 199.32 213.32L196.57 200.82C196.57 200.82 218.57 181.57 240.32 175.07C262.07 168.57 266.57 169.57 266.07 179.32C265.57 189.07 266.46 229.18 250.75 250.77C244.67 259.13 239.28 279.44 234.49 285.88C234.22 285.59 233.95 285.3 233.67 285.02C233.39 284.73 233.11 284.45 232.82 284.18C232.54 283.9 232.25 283.63 231.96 283.36C231.67 283.09 231.37 282.83 231.07 282.57C230.08 281.74 229.03 280.99 227.93 280.32C226.83 279.65 225.67 279.07 224.48 278.57C223.29 278.08 222.07 277.67 220.82 277.36C219.57 277.05 218.29 276.83 217.01 276.71C217.39 276.17 217.75 275.63 218.07 275.07C222.32 267.57 229.32 239.57 229.82 226.82Z" />
		<path id="Layer" class="shp5" d="M163.72 217.38C163.95 216.18 164.36 215.03 164.94 213.96C165.52 212.89 166.26 211.92 167.14 211.08C168.02 210.24 169.03 209.54 170.12 209.01C178 204.89 198.57 212.43 187.26 216.55C185.35 217.2 183.43 217.77 181.48 218.28C179.53 218.79 177.57 219.23 175.59 219.61C173.61 219.98 171.62 220.28 169.63 220.51C167.63 220.75 165.62 220.91 163.61 221C163.46 219.79 163.5 218.57 163.72 217.38Z" />
		<path id="Layer" class="shp7" d="M177.57 186.32C187.32 185.32 193.82 188.82 198.32 196.82C202.82 204.82 203.82 226.07 215.82 242.57C227.82 259.07 249.95 280.69 250.32 280.57C250.69 280.45 251.05 280.33 251.41 280.2C251.77 280.07 252.13 279.93 252.48 279.78C252.84 279.64 253.19 279.48 253.54 279.32C253.88 279.16 254.23 279 254.57 278.82C257.07 277.57 284.57 259.32 287.57 256.82C290.57 254.32 293.57 251.32 295.07 254.82C296.57 258.32 292.82 274.07 288.57 281.57C284.32 289.07 266.07 311.32 264.32 311.07C262.57 310.82 255.07 305.32 251.07 302.32C247.07 299.32 221.07 280.57 213.32 275.57C205.57 270.57 186.07 251.07 181.82 243.07C177.57 235.07 177.32 213.07 177.32 213.07C177.32 213.07 154.4 226.65 141.9 227.15C129.4 227.65 117.57 219.32 120.32 214.32C123.07 209.32 131.07 204.82 131.07 204.82C147.57 192.57 167.82 187.32 177.57 186.32Z" />
		<g id="Layer">
			<path id="Layer" class="shp0" d="M242.42 286.06L271.05 304.48C267.64 308.39 264.94 311.14 264.32 311.05C262.57 310.8 255.07 305.3 251.07 302.3C249.34 301 243.53 296.78 236.85 292L242.42 286.06Z" />
			<path id="Layer" class="shp2" d="M242.42 286.06L271.05 304.48C267.64 308.39 264.94 311.14 264.32 311.05C262.57 310.8 255.07 305.3 251.07 302.3C249.34 301 243.53 296.78 236.85 292L242.42 286.06Z" />
		</g>
		<path id="Layer" class="shp4" d="M177.57 186.32C187.32 185.32 193.82 188.82 198.32 196.82C202.82 204.82 203.82 226.07 215.82 242.57C227.82 259.07 249.95 280.69 250.32 280.57C250.69 280.45 251.05 280.33 251.41 280.2C251.77 280.07 252.13 279.93 252.48 279.78C252.84 279.64 253.19 279.48 253.54 279.32C253.88 279.16 254.23 279 254.57 278.82C257.07 277.57 284.57 259.32 287.57 256.82C290.57 254.32 293.57 251.32 295.07 254.82C296.57 258.32 292.82 274.07 288.57 281.57C284.32 289.07 266.07 311.32 264.32 311.07C262.57 310.82 255.07 305.32 251.07 302.32C247.07 299.32 221.07 280.57 213.32 275.57C205.57 270.57 186.07 251.07 181.82 243.07C177.57 235.07 177.32 213.07 177.32 213.07C177.32 213.07 154.4 226.65 141.9 227.15C129.4 227.65 117.57 219.32 120.32 214.32C123.07 209.32 131.07 204.82 131.07 204.82C147.57 192.57 167.82 187.32 177.57 186.32Z" />
		<path id="Layer" class="shp9" d="M239.85 294.14C230.52 287.44 218.27 278.74 213.36 275.57C205.61 270.57 186.11 251.07 181.86 243.07C177.61 235.07 177.36 213.07 177.36 213.07C177.36 213.07 154.4 226.01 141.94 227.15C124.54 228.74 114.53 216.15 117.27 211.15C120.01 206.15 129.01 201.27 129.01 201.27C150.41 189.13 167.9 187.32 177.61 186.32C187.32 185.32 194.11 185.94 198.61 193.94C203.11 201.94 204.35 209.58 215.82 232C223.65 247.3 243.48 273.91 248.77 279.07C246.28 281.19 242.15 285.77 239.85 294.14Z" />
		<g id="Layer">
			<path id="Layer" class="shp10" d="M239.85 294.14C230.52 287.44 218.27 278.74 213.36 275.57C205.61 270.57 186.11 251.07 181.86 243.07C177.61 235.07 177.36 213.07 177.36 213.07C177.36 213.07 154.4 226.01 141.94 227.15C124.54 228.74 114.53 216.15 117.27 211.15C120.01 206.15 129.01 201.27 129.01 201.27C150.41 189.13 167.9 187.32 177.61 186.32C187.32 185.32 194.11 185.94 198.61 193.94C203.11 201.94 204.35 209.58 215.82 232C223.65 247.3 243.48 273.91 248.77 279.07C246.28 281.19 242.15 285.77 239.85 294.14Z" />
			<path id="Layer" class="shp11" d="M243.3 285.77C242.92 286.43 242.56 287.1 242.23 287.77C241.89 288.45 241.58 289.14 241.29 289.84C241 290.54 240.73 291.25 240.48 291.97C240.23 292.68 240.01 293.41 239.81 294.14C230.48 287.44 218.23 278.74 213.32 275.57C205.57 270.57 186.07 251.07 181.82 243.07C177.57 235.07 177.32 213.07 177.32 213.07C177.32 213.07 154.36 226.01 141.9 227.15C127.93 228.43 118.73 220.57 117.06 214.83C131.15 208.08 159.2 195.14 174.5 191.5C195.5 186.5 191 224.5 198.5 243.5C202.69 254.11 224.68 272 243.3 285.77Z" />
			<path id="Layer" class="shp4" d="M177.32 213.07L176.57 200.07" />
		</g>
		<path id="Layer" class="shp4" d="M239.85 294.14C230.52 287.44 218.27 278.74 213.36 275.57C205.61 270.57 186.11 251.07 181.86 243.07C177.61 235.07 177.36 213.07 177.36 213.07C177.36 213.07 154.4 226.01 141.94 227.15C124.54 228.74 114.53 216.15 117.27 211.15C120.01 206.15 129.01 201.27 129.01 201.27C150.41 189.13 167.9 187.32 177.61 186.32C187.32 185.32 194.11 185.94 198.61 193.94C203.11 201.94 204.35 209.58 215.82 232C223.65 247.3 243.48 273.91 248.77 279.07C246.28 281.19 242.15 285.77 239.85 294.14Z" />
		<path id="Layer" class="shp5" d="M249.46 301.16L257.03 289.82C257.03 289.82 252.78 286.82 251.78 284.57C251.18 283.14 252.06 281.02 252.78 279.65C253.31 279.42 253.91 279.15 254.57 278.82C257.07 277.57 284.57 259.32 287.57 256.82C290.57 254.32 293.57 251.32 295.07 254.82C296.57 258.32 292.82 274.07 288.57 281.57C284.32 289.07 266.07 311.32 264.32 311.07C262.57 310.82 255.07 305.32 251.07 302.32L249.46 301.16Z" />
		<path id="Layer" class="shp7" d="M264.34 311.07C263.96 310.93 263.58 310.77 263.21 310.61C262.84 310.44 262.48 310.26 262.12 310.06C261.76 309.87 261.41 309.66 261.07 309.44C260.73 309.22 260.4 308.98 260.07 308.74C267.22 301.32 281.46 285.98 286.07 277.32C291.24 267.61 292.29 258.6 291.24 253.93C292.83 252.95 294.2 252.82 295.07 254.82C296.57 258.32 292.82 274.07 288.57 281.57C284.32 289.07 266.07 311.32 264.34 311.07Z" />
		<g id="Layer">
			<path id="Layer" class="shp0" d="M264.5 311.06C264.48 311.06 264.47 311.07 264.45 311.07C264.44 311.07 264.42 311.07 264.4 311.07C264.39 311.07 264.37 311.07 264.36 311.07C264.34 311.07 264.33 311.06 264.31 311.06C264.28 311.06 264.25 311.05 264.22 311.04C264.19 311.04 264.16 311.03 264.13 311.02C264.1 311.01 264.07 311 264.04 310.99C264.01 310.98 263.98 310.97 263.95 310.96L263.8 310.9C263.77 310.89 263.75 310.88 263.72 310.87C263.69 310.86 263.67 310.85 263.64 310.84C263.62 310.83 263.59 310.82 263.57 310.81C263.54 310.79 263.52 310.78 263.49 310.77L263.28 310.67L262.96 310.51L262.68 310.36L262.4 310.2L261.4 309.63L261.4 309.63L260.78 309.24L260.68 309.18L260.01 308.74L260.01 308.74C261.85 306.83 264.16 304.39 266.64 301.69L271.01 304.5L271.01 304.5L270.39 305.2L270.39 305.25C269.81 305.91 269.25 306.53 268.73 307.1L268.55 307.29L268.11 307.77L267.99 307.89L267.28 308.64L267 308.92L266.72 309.2L266.39 309.52L266.15 309.75L265.76 310.11L265.6 310.26L265.31 310.5L265.19 310.6C265.16 310.62 265.14 310.64 265.11 310.67C265.08 310.69 265.05 310.71 265.03 310.73C265 310.75 264.97 310.77 264.94 310.79C264.91 310.8 264.88 310.82 264.85 310.84L264.79 310.89L264.57 311L264.5 311.06Z" />
			<path id="Layer" class="shp2" d="M264.5 311.06C264.48 311.06 264.47 311.07 264.45 311.07C264.44 311.07 264.42 311.07 264.4 311.07C264.39 311.07 264.37 311.07 264.36 311.07C264.34 311.07 264.33 311.06 264.31 311.06C264.28 311.06 264.25 311.05 264.22 311.04C264.19 311.04 264.16 311.03 264.13 311.02C264.1 311.01 264.07 311 264.04 310.99C264.01 310.98 263.98 310.97 263.95 310.96L263.8 310.9C263.77 310.89 263.75 310.88 263.72 310.87C263.69 310.86 263.67 310.85 263.64 310.84C263.62 310.83 263.59 310.82 263.57 310.81C263.54 310.79 263.52 310.78 263.49 310.77L263.28 310.67L262.96 310.51L262.68 310.36L262.4 310.2L261.4 309.63L261.4 309.63L260.78 309.24L260.68 309.18L260.01 308.74L260.01 308.74C261.85 306.83 264.16 304.39 266.64 301.69L271.01 304.5L271.01 304.5L270.39 305.2L270.39 305.25C269.81 305.91 269.25 306.53 268.73 307.1L268.55 307.29L268.11 307.77L267.99 307.89L267.28 308.64L267 308.92L266.72 309.2L266.39 309.52L266.15 309.75L265.76 310.11L265.6 310.26L265.31 310.5L265.19 310.6C265.16 310.62 265.14 310.64 265.11 310.67C265.08 310.69 265.05 310.71 265.03 310.73C265 310.75 264.97 310.77 264.94 310.79C264.91 310.8 264.88 310.82 264.85 310.84L264.79 310.89L264.57 311L264.5 311.06Z" />
		</g>
		<path id="Layer" class="shp4" d="M264.34 311.07C263.96 310.93 263.58 310.77 263.21 310.61C262.84 310.44 262.48 310.26 262.12 310.06C261.76 309.87 261.41 309.66 261.07 309.44C260.73 309.22 260.4 308.98 260.07 308.74C267.22 301.32 281.46 285.98 286.07 277.32C291.24 267.61 292.29 258.6 291.24 253.93C292.83 252.95 294.2 252.82 295.07 254.82C296.57 258.32 292.82 274.07 288.57 281.57C284.32 289.07 266.07 311.32 264.34 311.07Z" />
		<path id="Layer" class="shp5" d="M250.79 328.32C246.04 329.32 240.54 331.07 224.29 320.57C208.04 310.07 201.29 295.07 202.29 291.32C202.82 289.28 206.19 286.88 209.82 283.88C210.61 283.93 211.39 284.02 212.17 284.15C212.95 284.29 213.72 284.47 214.48 284.7C215.23 284.93 215.98 285.2 216.7 285.51C217.43 285.82 218.14 286.18 218.82 286.57C219.67 287.16 220.52 287.77 221.35 288.39C222.18 289.01 223.01 289.64 223.82 290.29C224.63 290.93 225.44 291.59 226.23 292.26C227.02 292.94 227.8 293.62 228.57 294.32C228.86 294.09 229.18 293.89 229.5 293.72C229.83 293.54 230.17 293.39 230.51 293.26C230.86 293.14 231.22 293.04 231.59 292.97C231.95 292.9 232.32 292.86 232.69 292.85C232.67 292.97 232.65 293.09 232.63 293.21C232.61 293.34 232.6 293.46 232.59 293.58C232.58 293.7 232.57 293.83 232.57 293.95C232.57 294.07 232.57 294.2 232.57 294.32C232.82 298.82 241.32 312.07 248.82 316.82C256.32 321.57 255.54 327.32 250.79 328.32Z" />
		<path id="Layer" class="shp7" d="M250.82 328.31C246.07 329.31 240.57 331.06 224.32 320.56C208.07 310.06 201.32 295.06 202.32 291.31C202.43 291.04 202.55 290.78 202.69 290.53C202.82 290.28 202.98 290.03 203.15 289.8C203.31 289.57 203.5 289.34 203.69 289.13C203.89 288.92 204.1 288.72 204.32 288.54C206.78 288.56 212.44 288.93 215.32 291.81C219.07 295.56 217.57 298.06 224.07 302.06C230.11 305.82 237 308.62 242.16 310.82C242.64 311.39 243.15 311.95 243.67 312.49C244.19 313.03 244.73 313.55 245.28 314.05C245.84 314.55 246.41 315.03 247 315.5C247.59 315.96 248.2 316.4 248.82 316.82C256.32 321.57 255.57 327.31 250.82 328.31Z" />
		<g id="Layer">
			<path id="Layer" class="shp0" d="M250.82 328.31C246.07 329.31 240.57 331.06 224.32 320.56C208.07 310.06 201.32 295.06 202.32 291.31C202.43 291.04 202.55 290.78 202.69 290.53C202.82 290.28 202.98 290.03 203.15 289.8C203.31 289.57 203.5 289.34 203.69 289.13C203.89 288.92 204.1 288.72 204.32 288.54C206.78 288.56 212.44 288.93 215.32 291.81C219.07 295.56 217.57 298.06 224.07 302.06C230.11 305.82 237 308.62 242.16 310.82C242.64 311.39 243.15 311.95 243.67 312.49C244.19 313.03 244.73 313.55 245.28 314.05C245.84 314.55 246.41 315.03 247 315.5C247.59 315.96 248.2 316.4 248.82 316.82C256.32 321.57 255.57 327.31 250.82 328.31Z" />
			<path id="Layer" class="shp2" d="M250.82 328.31C246.07 329.31 240.57 331.06 224.32 320.56C208.07 310.06 201.32 295.06 202.32 291.31C202.43 291.04 202.55 290.78 202.69 290.53C202.82 290.28 202.98 290.03 203.15 289.8C203.31 289.57 203.5 289.34 203.69 289.13C203.89 288.92 204.1 288.72 204.32 288.54C206.78 288.56 212.44 288.93 215.32 291.81C219.07 295.56 217.57 298.06 224.07 302.06C230.11 305.82 237 308.62 242.16 310.82C242.64 311.39 243.15 311.95 243.67 312.49C244.19 313.03 244.73 313.55 245.28 314.05C245.84 314.55 246.41 315.03 247 315.5C247.59 315.96 248.2 316.4 248.82 316.82C256.32 321.57 255.57 327.31 250.82 328.31Z" />
		</g>
		<path id="Layer" class="shp4" d="M250.82 328.31C246.07 329.31 240.57 331.06 224.32 320.56C208.07 310.06 201.32 295.06 202.32 291.31C202.43 291.04 202.55 290.78 202.69 290.53C202.82 290.28 202.98 290.03 203.15 289.8C203.31 289.57 203.5 289.34 203.69 289.13C203.89 288.92 204.1 288.72 204.32 288.54C206.78 288.56 212.44 288.93 215.32 291.81C219.07 295.56 217.57 298.06 224.07 302.06C230.11 305.82 237 308.62 242.16 310.82C242.64 311.39 243.15 311.95 243.67 312.49C244.19 313.03 244.73 313.55 245.28 314.05C245.84 314.55 246.41 315.03 247 315.5C247.59 315.96 248.2 316.4 248.82 316.82C256.32 321.57 255.57 327.31 250.82 328.31Z" />
		<path id="Layer" class="shp9" d="M251.08 319.23C251.41 319.47 251.73 319.72 252.04 319.98C252.34 320.25 252.64 320.52 252.92 320.81C253.2 321.1 253.47 321.41 253.72 321.72C255.35 324.89 253.98 327.65 250.82 328.32C246.07 329.32 240.42 330.99 224.32 320.57C208.22 310.15 201.45 295.32 202.32 291.42C202.86 291.11 203.43 290.88 204.04 290.73C204.64 290.59 205.26 290.53 205.88 290.57C206.5 290.6 207.11 290.73 207.69 290.94C208.28 291.15 208.82 291.45 209.32 291.82C215.57 295.82 213.32 300.82 221.82 306.57C230.32 312.32 243.57 314.82 250.07 318.57C250.42 318.78 250.76 319 251.08 319.23Z" />
		<g id="Layer">
			<path id="Layer" class="shp10" d="M251.08 319.23C251.41 319.47 251.73 319.72 252.04 319.98C252.34 320.25 252.64 320.52 252.92 320.81C253.2 321.1 253.47 321.41 253.72 321.72C255.35 324.89 253.98 327.65 250.82 328.32C246.07 329.32 240.42 330.99 224.32 320.57C208.22 310.15 201.45 295.32 202.32 291.42C202.86 291.11 203.43 290.88 204.04 290.73C204.64 290.59 205.26 290.53 205.88 290.57C206.5 290.6 207.11 290.73 207.69 290.94C208.28 291.15 208.82 291.45 209.32 291.82C215.57 295.82 213.32 300.82 221.82 306.57C230.32 312.32 243.57 314.82 250.07 318.57C250.42 318.78 250.76 319 251.08 319.23Z" />
		</g>
		<path id="Layer" class="shp4" d="M251.08 319.23C251.41 319.47 251.73 319.72 252.04 319.98C252.34 320.25 252.64 320.52 252.92 320.81C253.2 321.1 253.47 321.41 253.72 321.72C255.35 324.89 253.98 327.65 250.82 328.32C246.07 329.32 240.42 330.99 224.32 320.57C208.22 310.15 201.45 295.32 202.32 291.42C202.86 291.11 203.43 290.88 204.04 290.73C204.64 290.59 205.26 290.53 205.88 290.57C206.5 290.6 207.11 290.73 207.69 290.94C208.28 291.15 208.82 291.45 209.32 291.82C215.57 295.82 213.32 300.82 221.82 306.57C230.32 312.32 243.57 314.82 250.07 318.57C250.42 318.78 250.76 319 251.08 319.23Z" />
		<path id="Layer" class="shp8" d="M125.49 270.75C125.49 270.75 130.29 264.92 130.97 269.38C131.65 273.84 130.63 282.06 127.2 285.14C123.77 288.22 122.06 283.43 122.06 283.43L124.12 280.69C124.12 280.69 125.83 284.12 127.2 278.63C128.57 273.14 124.46 273.83 124.46 273.83L125.49 270.75Z" />
		<path id="Layer" class="shp8" d="M121.82 292.69C118.98 294.79 109.72 294.79 106.89 292.69C100.89 288.24 101.89 266.74 101.89 266.74L126.75 266.74C126.75 266.74 127.83 288.24 121.82 292.69Z" />
		<path id="Layer" class="shp4" d="M104.61 262.52C104.61 259.82 107.12 259.82 107.12 257.11C107.12 254.4 104.61 254.4 104.61 251.7C104.61 249 107.12 248.99 107.12 246.28C107.12 243.57 104.61 243.57 104.61 240.86C104.61 238.15 107.12 238.15 107.12 235.44" />
		<path id="Layer" class="shp4" d="M115.71 241.96C115.71 244.02 113.2 244.01 113.2 246.07C113.2 248.13 115.71 248.13 115.71 250.19C115.71 252.25 113.2 252.24 113.2 254.3C113.2 256.36 115.71 256.3 115.71 258.41C115.71 260.52 113.2 260.52 113.2 262.52" />
		<path id="Layer" class="shp4" d="M125.15 235.44C125.15 238.15 122.65 238.15 122.65 240.86C122.65 243.57 125.15 243.57 125.15 246.28C125.15 248.99 122.65 249 122.65 251.7C122.65 254.4 125.15 254.4 125.15 257.11C125.15 259.82 122.65 259.82 122.65 262.52" />
		<path id="Layer" class="shp8" d="M126.77 266.74C126.77 267.37 121.21 267.87 114.34 267.87C107.47 267.87 101.91 267.37 101.91 266.74C101.91 266.11 107.47 265.61 114.34 265.61C121.21 265.61 126.77 266.11 126.77 266.74Z" />
		<path id="Layer" class="shp7" d="M157.89 116.94C158.65 117.44 159.41 117.93 160.18 118.4C160.95 118.88 161.73 119.35 162.51 119.8C163.29 120.26 164.08 120.7 164.88 121.14C165.67 121.57 166.47 122 167.28 122.41C167.28 122.41 164.51 124.16 163.74 125.72C162.97 127.28 163.35 132.55 164.59 138.72C165.83 144.89 162.71 155.2 162.13 156.72C161.55 158.24 155.28 151.65 154.13 147.86C152.98 144.07 151.87 132.61 151.38 128.62C150.89 124.63 149.72 112 149.72 112C150.34 110.67 153.47 114 157.89 116.94Z" />
		<g id="Layer">
			<path id="Layer" class="shp0" d="M155.86 129.86C155.86 129.86 154.55 143.48 155.76 151.02C155.59 150.78 155.43 150.53 155.28 150.28C155.13 150.03 154.98 149.78 154.85 149.51C154.71 149.25 154.59 148.99 154.47 148.72C154.36 148.45 154.25 148.18 154.15 147.9C153 144.11 151.89 132.65 151.4 128.66C150.91 124.67 149.74 112.04 149.74 112.04C150.36 110.67 153.49 114.04 157.94 117.04C160.37 118.67 162.93 120.15 164.77 121.15L165.77 123.09L155.86 129.86Z" />
			<path id="Layer" class="shp2" d="M155.86 129.86C155.86 129.86 154.55 143.48 155.76 151.02C155.59 150.78 155.43 150.53 155.28 150.28C155.13 150.03 154.98 149.78 154.85 149.51C154.71 149.25 154.59 148.99 154.47 148.72C154.36 148.45 154.25 148.18 154.15 147.9C153 144.11 151.89 132.65 151.4 128.66C150.91 124.67 149.74 112.04 149.74 112.04C150.36 110.67 153.49 114.04 157.94 117.04C160.37 118.67 162.93 120.15 164.77 121.15L165.77 123.09L155.86 129.86Z" />
		</g>
		<path id="Layer" class="shp4" d="M157.89 116.94C158.65 117.44 159.41 117.93 160.18 118.4C160.95 118.88 161.73 119.35 162.51 119.8C163.29 120.26 164.08 120.7 164.88 121.14C165.67 121.57 166.47 122 167.28 122.41C167.28 122.41 164.51 124.16 163.74 125.72C162.97 127.28 163.35 132.55 164.59 138.72C165.83 144.89 162.71 155.2 162.13 156.72C161.55 158.24 155.28 151.65 154.13 147.86C152.98 144.07 151.87 132.61 151.38 128.62C150.89 124.63 149.72 112 149.72 112C150.34 110.67 153.47 114 157.89 116.94Z" />
		<path id="Layer" class="shp7" d="M149.26 113.83C148.94 113.33 148.64 112.82 148.35 112.3C148.06 111.78 147.78 111.25 147.52 110.72C147.27 110.18 147.02 109.64 146.8 109.09C146.57 108.54 146.36 107.98 146.17 107.42C144.71 103.34 142.69 96.46 144.46 91.6C146.23 86.74 156.29 82.64 161.32 83.1C166.35 83.56 169.39 83.66 172.24 89.64C175.09 95.62 178.4 118.35 177.19 121.22C175.98 124.09 167.5 124.23 161.98 122.03C156.46 119.83 149.26 113.83 149.26 113.83L149.26 113.83Z" />
		<g id="Layer">
			<path id="Layer" class="shp0" d="M173.95 123.18C172.95 123.35 171.94 123.46 170.92 123.5C169.9 123.53 168.89 123.51 167.87 123.41C166.86 123.31 165.86 123.15 164.87 122.92C163.88 122.69 162.9 122.39 161.95 122.03C156.43 119.83 149.55 114.33 149.23 113.83C148.91 113.33 148.61 112.82 148.32 112.3C148.03 111.78 147.75 111.25 147.49 110.72C147.24 110.18 146.99 109.64 146.77 109.09C146.54 108.54 146.33 107.98 146.14 107.42C144.68 103.34 142.66 96.46 144.43 91.6C146.2 86.74 156.29 82.65 161.29 83.1C164.16 83.36 166.38 83.51 168.29 84.69C165.38 85.79 159 88.48 159 90.93C159 94.1 159.64 106 162.19 113.56C163.89 118.61 170 121.69 173.95 123.18Z" />
			<path id="Layer" class="shp2" d="M173.95 123.18C172.95 123.35 171.94 123.46 170.92 123.5C169.9 123.53 168.89 123.51 167.87 123.41C166.86 123.31 165.86 123.15 164.87 122.92C163.88 122.69 162.9 122.39 161.95 122.03C156.43 119.83 149.55 114.33 149.23 113.83C148.91 113.33 148.61 112.82 148.32 112.3C148.03 111.78 147.75 111.25 147.49 110.72C147.24 110.18 146.99 109.64 146.77 109.09C146.54 108.54 146.33 107.98 146.14 107.42C144.68 103.34 142.66 96.46 144.43 91.6C146.2 86.74 156.29 82.65 161.29 83.1C164.16 83.36 166.38 83.51 168.29 84.69C165.38 85.79 159 88.48 159 90.93C159 94.1 159.64 106 162.19 113.56C163.89 118.61 170 121.69 173.95 123.18Z" />
		</g>
		<path id="Layer" class="shp4" d="M149.26 113.83C148.94 113.33 148.64 112.82 148.35 112.3C148.06 111.78 147.78 111.25 147.52 110.72C147.27 110.18 147.02 109.64 146.8 109.09C146.57 108.54 146.36 107.98 146.17 107.42C144.71 103.34 142.69 96.46 144.46 91.6C146.23 86.74 156.29 82.64 161.32 83.1C166.35 83.56 169.39 83.66 172.24 89.64C175.09 95.62 178.4 118.35 177.19 121.22C175.98 124.09 167.5 124.23 161.98 122.03C156.46 119.83 149.26 113.83 149.26 113.83L149.26 113.83Z" />
		<path id="Layer" class="shp4" d="M172.78 99C172.9 101.88 171.09 104.29 168.78 104.38C166.47 104.47 164.45 102.22 164.34 99.38C164.23 96.54 166.03 94.09 168.34 93.99C170.65 93.89 172.67 96.09 172.78 99Z" />
		<path id="Layer" class="shp4" d="M178.44 97.88C178.56 100.76 177.63 103.13 176.37 103.18C175.11 103.23 173.99 100.94 173.88 98.06C173.77 95.18 174.7 92.8 175.96 92.75C177.22 92.7 178.33 95 178.44 97.88Z" />
		<path id="Layer" class="shp8" d="M173.08 97.94C173.08 97.94 181.34 99.51 180.54 101.5C179.74 103.49 174.16 105.64 174.16 105.64" />
		<path id="Layer" class="shp4" d="M172.57 97C172.57 97 172.69 96 173.96 96.63" />
		<path id="Layer" class="shp4" d="M164.08 99.78L149.06 105.69" />
		<path id="Layer" class="shp12" d="M164.28 94.92C164.44 94.56 164.65 94.24 164.9 93.94C165.16 93.65 165.46 93.4 165.79 93.2C166.13 93 166.49 92.85 166.87 92.76C167.24 92.67 167.63 92.63 168.02 92.66" />
		<path id="Layer" class="shp12" d="M174.28 92.73L171.97 93.6" />
		<path id="Layer" class="shp4" d="M167.14 109.5C167.14 109.5 170.14 108.72 171.84 110.5" />
		<path id="Layer" class="shp9" d="M169.07 99.52C169.21 100.52 169.07 101.38 168.66 101.43C168.25 101.48 167.89 100.71 167.75 99.7C167.61 98.69 167.8 97.85 168.17 97.8C168.54 97.75 168.94 98.52 169.07 99.52Z" />
		<path id="Layer" class="shp5" d="M143.64 109.26C143.64 109.26 142.51 108.22 140 105.49C139.15 104.58 138.4 103.58 137.77 102.5C137.15 101.42 136.65 100.27 136.28 99.08C135.92 97.88 135.69 96.65 135.61 95.41C135.52 94.16 135.58 92.91 135.78 91.68C136.85 85.55 142.91 84.23 143.29 83.34C143.67 82.45 143.82 75.21 148.29 72.69C152.76 70.17 158.09 73.06 160.69 72.69C163.29 72.32 167.66 67.13 173.52 66.69C179.38 66.25 181.88 74.42 180.09 78.84C178.3 83.26 170.16 86.64 165.8 86.37C161.44 86.1 151.74 88.23 149.64 90.27C147.54 92.31 155.93 90.02 158.21 92.54C160.49 95.06 156.43 96.96 154.34 99.22C152.25 101.48 154.28 103.1 155.65 104.83C157.02 106.56 155.1 107.93 152.28 107.83C149.46 107.73 150.46 105.73 150.46 105.73L143.64 109.26Z" />
		<path id="Layer" class="shp13" d="M138.38 97.31C138.26 97.11 138.16 96.9 138.08 96.69C137.99 96.47 137.92 96.25 137.86 96.03C137.81 95.8 137.77 95.57 137.75 95.34C137.73 95.11 137.73 94.88 137.74 94.65" />
		<path id="Layer" class="shp13" d="M163.23 78.82C163.23 78.82 161.05 74.05 166.61 74.05C172.17 74.05 172.97 81.05 167.21 83.59C161.45 86.13 148.92 86.77 142.16 89.76C141.83 89.89 141.51 90.04 141.2 90.21C140.88 90.37 140.58 90.56 140.29 90.77C140 90.97 139.73 91.19 139.46 91.43C139.2 91.67 138.95 91.92 138.72 92.19" />
		<path id="Layer" class="shp13" d="M141.56 103.87C141.56 103.87 140.37 101.29 145.94 98.7C148.57 97.48 151.16 96.48 153.16 95.76" />
		<path id="Layer" class="shp13" d="M156.87 94.53C156.87 94.53 156.38 94.67 155.55 94.94" />
		<path id="Layer" class="shp7" d="M152.48 112.83C152.07 113.91 148.12 118.22 146.07 115.91C144.02 113.6 141.38 106.95 144.78 105.08C148.18 103.21 151.41 107.87 151.41 107.87" />
		<g id="Layer">
			<path id="Layer" class="shp0" d="M152.48 112.83C152.07 113.91 148.12 118.22 146.07 115.91C144.02 113.6 141.38 106.95 144.78 105.08C148.18 103.21 151.41 107.87 151.41 107.87" />
			<path id="Layer" class="shp2" d="M152.48 112.83C152.07 113.91 148.12 118.22 146.07 115.91C144.02 113.6 141.38 106.95 144.78 105.08C148.18 103.21 151.41 107.87 151.41 107.87" />
		</g>
		<path id="Layer" class="shp4" d="M152.48 112.83C152.07 113.91 148.12 118.22 146.07 115.91C144.02 113.6 141.38 106.95 144.78 105.08C148.18 103.21 151.41 107.87 151.41 107.87" />
		<path id="Layer" class="shp8" d="M33.82 108.74C33.82 105.91 36.11 103.62 38.94 103.62L110.62 103.62C113.45 103.62 115.74 105.91 115.74 108.74L115.74 161.14C115.74 163.97 113.45 166.26 110.62 166.26L38.94 166.26C36.11 166.26 33.82 163.97 33.82 161.14L33.82 108.74Z" />
		<path id="Layer" class="shp8" d="M114.18 137.68L162.18 161.18L114.18 148.68" />
		<path id="Layer" class="shp14" d="M40.44 109.64L59.71 109.64L59.71 160.24L40.44 160.24L40.44 109.64Z" />
		<path id="Layer" class="shp14" d="M109.08 109.64L111.49 109.64L111.49 160.24L109.08 160.24L109.08 109.64Z" />
		<path id="Layer" class="shp5" d="M109.08 132.77L111.49 132.77L111.49 137.09L109.08 137.09L109.08 132.77Z" />
		<path id="Layer" class="shp8" d="M65.74 110.84L103.69 110.84" />
		<path id="Layer" class="shp8" d="M65.74 116.26L103.69 116.26" />
		<path id="Layer" class="shp8" d="M65.74 121.69L103.69 121.69" />
		<path id="Layer" class="shp8" d="M65.74 127.11L103.69 127.11" />
		<path id="Layer" class="shp8" d="M65.74 140.36L103.69 140.36" />
		<path id="Layer" class="shp8" d="M65.74 145.18L103.69 145.18" />
		<path id="Layer" class="shp8" d="M65.74 150L103.69 150" />
		<path id="Layer" class="shp8" d="M65.74 160L103.69 160" />
		<path id="Layer" class="shp4" d="M40.44 160.23L59.72 109.64" />
	</g>
</svg>