<svg version="1.2" xmlns="http://www.w3.org/2000/svg" viewBox="0 0 421 393" width="380" height="355">
	<title>Business deal-bro-svg</title>
	<style>
		.s0 { fill: #287bff } 
		.s1 { opacity: .7;fill: #ffffff } 
		.s2 { fill: #cccccc } 
		.s3 { fill: #ffffff } 
		.s4 { opacity: .5;fill: #ffffff } 
		.s5 { fill: #263238 } 
		.s6 { fill: #d9d9d9 } 
		.s7 { fill: none;stroke: #263238;stroke-linecap: round;stroke-linejoin: round } 
		.s8 { fill: #263238;stroke: #263238;stroke-linecap: round;stroke-linejoin: round } 
		.s9 { opacity: .2;fill: #ffffff } 
		.s10 { fill: #ffffff;stroke: #263238;stroke-linecap: round;stroke-linejoin: round } 
		.s11 { fill: #b8b8b8 } 
		.s12 { fill: none;stroke: #ffffff;stroke-linecap: round;stroke-linejoin: round } 
	</style>
	<g id="freepik--background-simple--inject-3">
		<path id="Layer" class="s0" d="m210.8 6.5c82.2-15.4 164.8 21.4 178.6 79.6c13.8 58.3-3 70.2-28.7 126.5c-25.7 56.2-1.1 95.7-46.6 126.9c-45.5 31.2-108.7 25.6-153.1-15.2c-44.5-40.7-100.9-89.7-110.1-153.2c-9.3-63.5 39-109.2 39-109.2c0 0 38.6-40 120.9-55.4z" />
		<path id="Layer" class="s1" d="m210.8 6.5c82.2-15.4 164.8 21.4 178.6 79.6c13.8 58.3-3 70.2-28.7 126.5c-25.7 56.2-1.1 95.7-46.6 126.9c-45.5 31.2-108.7 25.6-153.1-15.2c-44.5-40.7-100.9-89.7-110.1-153.2c-9.3-63.5 39-109.2 39-109.2c0 0 38.6-40 120.9-55.4z" />
	</g>
	<g id="freepik--Window--inject-3">
		<path id="Layer" class="s2" d="m297.9 52.1h-72.2l0.7-10.5h72.2l-0.7 10.5z" />
		<path id="Layer" class="s2" d="m297.9 66.9h-72.2l0.7-10.6h72.2l-0.7 10.6z" />
		<path id="Layer" class="s2" d="m297.9 81.6h-72.2l0.7-10.5h72.2l-0.7 10.5z" />
		<path id="Layer" class="s2" d="m297.9 96.4h-72.2l0.7-10.6h72.2l-0.7 10.6z" />
		<path id="Layer" class="s2" d="m297.9 111.1h-72.2l0.7-10.5h72.2l-0.7 10.5z" />
		<path id="Layer" class="s2" d="m297.9 125.9h-72.2l0.7-10.6h72.2l-0.7 10.6z" />
		<path id="Layer" class="s2" d="m297.9 140.6h-72.2l0.7-10.5h72.2l-0.7 10.5z" />
		<path id="Layer" class="s2" d="m297.9 155.4h-72.2l0.7-10.6h72.2l-0.7 10.6z" />
		<path id="Layer" class="s2" d="m297.9 170.1h-72.2l0.7-10.5h72.2l-0.7 10.5z" />
		<path id="Layer" class="s2" d="m297.9 184.9h-72.2l0.7-10.6h72.2l-0.7 10.6z" />
		<path id="Layer" class="s2" d="m297.9 199.6h-72.2l0.7-10.5h72.2l-0.7 10.5z" />
		<path id="Layer" class="s2" d="m374.3 52.1h-72.3l0.8-10.5h72.2l-0.7 10.5z" />
		<path id="Layer" class="s2" d="m374.3 66.9h-72.3l0.8-10.6h72.2l-0.7 10.6z" />
		<path id="Layer" class="s2" d="m374.3 81.6h-72.3l0.8-10.5h72.2l-0.7 10.5z" />
		<path id="Layer" class="s2" d="m374.3 96.4h-72.3l0.8-10.6h72.2l-0.7 10.6z" />
		<path id="Layer" class="s2" d="m374.3 111.1h-72.3l0.8-10.5h72.2l-0.7 10.5z" />
		<path id="Layer" class="s2" d="m374.3 125.9h-72.3l0.8-10.6h72.2l-0.7 10.6z" />
		<path id="Layer" class="s2" d="m374.3 140.6h-72.3l0.8-10.5h72.2l-0.7 10.5z" />
		<path id="Layer" class="s2" d="m374.3 155.4h-72.3l0.8-10.6h72.2l-0.7 10.6z" />
		<path id="Layer" class="s2" d="m374.3 170.1h-72.3l0.8-10.5h72.2l-0.7 10.5z" />
		<path id="Layer" class="s2" d="m374.3 184.9h-72.3l0.8-10.6h72.2l-0.7 10.6z" />
		<path id="Layer" class="s2" d="m374.3 199.6h-72.3l0.8-10.5h72.2l-0.7 10.5z" />
	</g>
	<g id="freepik--Picture--inject-3">
		<path id="Layer" class="s0" d="m66.3 41h149.3v128h-149.3z" />
		<path id="Layer" class="s3" d="m73.8 47.4h134.3v115.2h-134.3z" />
		<g id="Layer">
			<path id="Layer" class="s0" d="m208.1 162.6h-134.3v-12.6q4.1-3.2 8.3-6.1q4.3-2.9 8.7-5.6q4.5-2.7 9.1-5q4.6-2.4 9.3-4.5c40.1-17.9 74.7-29.3 98.9-46.5z" />
			<path id="Layer" class="s0" d="m208.1 48.3c-16 16.9-37 36.3-55.9 44.7c-36.9 16.4-50.1-6.1-19.5-28.6c8.4-6.1 15.5-11.9 21.5-17h53.9z" />
			<path id="Layer" class="s0" d="m73.8 91.5v-23.7c11.5-9.5 23.2-16.9 23.2-7.5c0 8.4-12 20.2-23.2 31.2z" />
			<path id="Layer" class="s0" d="m108.2 97.6c0 4.4-2.6 8.3-6.6 10c-4 1.6-8.7 0.7-11.7-2.4c-3.1-3-4-7.7-2.4-11.7c1.7-4 5.6-6.6 10-6.6c1.4 0 2.8 0.3 4.1 0.8c1.3 0.6 2.5 1.3 3.5 2.3c1 1 1.7 2.2 2.3 3.5c0.5 1.3 0.8 2.7 0.8 4.1z" />
			<path id="Layer" class="s1" d="m208.1 162.6h-134.3v-12.6q4.1-3.2 8.3-6.1q4.3-2.9 8.7-5.6q4.5-2.7 9.1-5q4.6-2.4 9.3-4.5c40.1-17.9 74.7-29.3 98.9-46.5z" />
			<path id="Layer" class="s1" d="m208.1 48.3c-16 16.9-37 36.3-55.9 44.7c-36.9 16.4-50.1-6.1-19.5-28.6c8.4-6.1 15.5-11.9 21.5-17h53.9z" />
			<g id="Layer" style="opacity: .7">
				<path id="Layer" class="s3" d="m73.8 91.5v-23.7c11.5-9.5 23.2-16.9 23.2-7.5c0 8.4-12 20.2-23.2 31.2z" />
			</g>
			<path id="Layer" class="s1" d="m108.2 97.6c0 4.4-2.6 8.3-6.6 10c-4 1.6-8.7 0.7-11.7-2.4c-3.1-3-4-7.7-2.4-11.7c1.7-4 5.6-6.6 10-6.6c1.4 0 2.8 0.3 4.1 0.8c1.3 0.6 2.5 1.3 3.5 2.3c1 1 1.7 2.2 2.3 3.5c0.5 1.3 0.8 2.7 0.8 4.1z" />
		</g>
		<path id="Layer" class="s3" d="m184.9 131.9c0 5.8-3.5 11-8.9 13.2c-5.3 2.2-11.5 1-15.6-3.1c-4.1-4.1-5.3-10.2-3.1-15.6c2.3-5.3 7.5-8.8 13.3-8.8c1.9 0 3.7 0.3 5.4 1.1c1.8 0.7 3.4 1.7 4.7 3.1c1.3 1.3 2.4 2.9 3.1 4.6c0.7 1.7 1.1 3.6 1.1 5.5z" />
	</g>
	<g id="freepik--Plants--inject-3">
		<path id="Layer" class="s0" d="m416.6 300.7c0 0-7.4 9.6-16.4 14.1c-7.2 3.6-14.8 2.1-17.5 1.3l-11.2 6.3v8.7h17.5l-7.3 45.5h-21.9l-7.3-45.5h17.9v-13.2l-12-10c-2.2 0.6-11.1 2.6-17.5-2.4c-7.3-5.7-16-23.1-16-23.1c0 0.1 20.5-0.6 28.2 8.1c6.4 7.1 6.2 14.2 5.9 16.5l11.4 9.5v-43.2c-2.2-0.7-9.5-3.8-12.2-13.6c-3.2-11.5 12.8-34.3 12.8-34.3c0 0 15.4 22.1 12.5 33.3q-0.6 2.4-1.7 4.6q-1.1 2.2-2.7 4.1q-1.5 1.9-3.5 3.4q-1.9 1.5-4.1 2.5v19.9l15.8-11.6c-0.1-2.2 0.1-8.7 5.5-15.5c6.8-8.3 26.6-6.1 26.6-6.1c0 0-6.1 15.4-14.4 19.9c-7.2 3.9-15 3-17.1 2.6l-16.2 11.9l-0.2-0.3v27l10.2-5.7q0.2-1.4 0.7-2.8q0.5-1.4 1.1-2.8q0.6-1.3 1.5-2.6q0.8-1.2 1.7-2.3c8.4-9.6 29.9-4.2 29.9-4.2z" />
		<path id="Layer" class="s4" d="m416.6 300.7c0 0-7.4 9.6-16.4 14.1c-7.2 3.6-14.8 2.1-17.5 1.3l-11.2 6.3v8.7h17.5l-7.3 45.5h-21.9l-7.3-45.5h17.9v-13.2l-12-10c-2.2 0.6-11.1 2.6-17.5-2.4c-7.3-5.7-16-23.1-16-23.1c0 0.1 20.5-0.6 28.2 8.1c6.4 7.1 6.2 14.2 5.9 16.5l11.4 9.5v-43.2c-2.2-0.7-9.5-3.8-12.2-13.6c-3.2-11.5 12.8-34.3 12.8-34.3c0 0 15.4 22.1 12.5 33.3q-0.6 2.4-1.7 4.6q-1.1 2.2-2.7 4.1q-1.5 1.9-3.5 3.4q-1.9 1.5-4.1 2.5v19.9l15.8-11.6c-0.1-2.2 0.1-8.7 5.5-15.5c6.8-8.3 26.6-6.1 26.6-6.1c0 0-6.1 15.4-14.4 19.9c-7.2 3.9-15 3-17.1 2.6l-16.2 11.9l-0.2-0.3v27l10.2-5.7q0.2-1.4 0.7-2.8q0.5-1.4 1.1-2.8q0.6-1.3 1.5-2.6q0.8-1.2 1.7-2.3c8.4-9.6 29.9-4.2 29.9-4.2z" />
	</g>
	<g id="freepik--Desk--inject-3">
		<path id="Layer" class="s5" d="m369.2 173.1c-1.8 9.7-2.3 19.4-5 28.8c-2.7 9.4-6.4 18.9-9.6 27.9c-8.3 23.2-4 46.4-5.5 70.2c-0.3 6-31.3 1.9-34.7 1.9c-4 0-2.4-22.4-2.4-25c0.3-16.2 1.4-32.9 5.6-48.6c3.2-11.7 8.7-26 10.7-32.1c2-6.1 0.8-5.4 1-10c0.3-4.6 5.4-17.5 5.4-17.5c0.4-1.5 2.4-1.2 2.4-1.2l29.4-0.3c0 0 3.9-0.7 2.7 5.9z" />
		<path id="Layer" class="s0" d="m369.2 170.5q-0.1 0.2-0.1 0.4q-0.1 0.2-0.2 0.3q-0.1 0.2-0.2 0.4c-1.9 4.9-2.9 13.1-5.3 18.3c-2.5 5.1-9.1 10.5-20.7 10c-11.7-0.5-12.7-9-12.7-9l-0.6-1q0-0.5-0.1-0.9q0-0.5 0-1q0-0.4 0-0.9q0-0.4 0-0.9c0.3-4.6 5.4-17.5 5.4-17.5c0.4-1.5 2.4-1.2 2.4-1.2l29.4-0.3c0 0 2.6-0.5 2.9 3q-0.1 0.1-0.2 0.3z" />
		<path id="Layer" class="s0" d="m363.6 176.5q0.5-1.6 1.2-3.2q0.6-1.5 1.4-3q0.7-1.5 1.6-2.9c1 0.4 2.2 1.7 1.4 5.7c-1.8 9.6-2.2 19.4-5 28.8c-2.7 9.4-6.4 18.8-9.6 27.8c-8.3 23.2-4 46.4-5.4 70.2c-0.1 1-0.9 1.7-2.2 2.2q0-0.4 0-0.8q0-0.4 0-0.8q-0.1-0.4-0.1-0.8q0-0.4-0.1-0.8c-0.4-2-1.6-46.5 1.2-59.2c2.7-12.7 9.9-26.5 11.8-38.7c2-12.3 0.8-14.2 2.8-21.3q0.4-1.7 1-3.2z" />
		<path id="Layer" class="s5" d="m341.7 370.7v2.8c0 0.8-0.4 1.6-1 2.2c-0.5 0.6-1.4 1-2.2 1c-0.8 0-1.6-0.4-2.2-1c-0.6-0.6-1-1.4-1-2.2v-0.4l-30.4-3.5v4.3c0 0.7-0.2 1.4-0.8 1.9c-0.5 0.6-1.2 0.8-1.9 0.8c-0.7 0-1.4-0.2-2-0.8c-0.5-0.5-0.8-1.2-0.8-1.9v-4.2l-29.2 3.4v0.4c0 0.8-0.3 1.6-0.9 2.2c-0.6 0.6-1.4 1-2.2 1c-0.9 0-1.7-0.4-2.3-1c-0.6-0.6-0.9-1.4-0.9-2.2v-2.8l34.9-11.1v-28h-3.9v-17.3h14.6v17.3h-4v27.5l0.2 0.2z" />
		<path id="Layer" class="s5" d="m256.6 301.3c0-2.2 1.8-4 4-4h86.8c2.2 0 4 1.8 4 4v12.2c0 2.2-1.8 4-4 4h-86.8c-2.2 0-4-1.8-4-4z" />
		<path id="Layer" class="s5" d="m5.8 167.2l29.5 0.3c0 0 2-0.3 2.4 1.2c0 0 5.1 12.9 5.4 17.5c0.2 4.6-1 3.9 1 10c2 6.1 7.5 20.4 10.7 32.1c4.2 15.7 5.3 32.4 5.6 48.6c0 2.6 1.6 25-2.5 25c-3.3 0-34.3 4.1-34.7-1.9c-1.4-23.8 2.9-47-5.4-70.2c-3.2-9-6.9-18.5-9.6-27.9c-2.7-9.4-3.2-19.1-5-28.8c-1.2-6.6 2.6-5.9 2.6-5.9z" />
		<path id="Layer" class="s0" d="m3 170.2c0.3-3.4 2.9-3 2.9-3l29.4 0.3c0 0 2-0.3 2.5 1.2c0 0 5.1 12.9 5.3 17.5q0 0.5 0 0.9q0 0.5 0 0.9q0 0.5 0 1q-0.1 0.4-0.1 0.9l-0.6 1c0 0-1 8.5-12.7 9c-11.6 0.5-18.3-4.9-20.7-10c-2.4-5.2-3.4-13.4-5.4-18.3q0-0.2-0.1-0.4q-0.1-0.1-0.2-0.3q0-0.2-0.1-0.4q-0.1-0.2-0.2-0.3z" />
		<path id="Layer" class="s0" d="m9.8 179.7c2 7.1 0.8 9 2.7 21.3c2 12.2 9.1 26 11.9 38.7c2.8 12.7 1.6 57.2 1.2 59.2q-0.1 0.4-0.1 0.8q-0.1 0.4-0.1 0.8q0 0.4 0 0.8q0 0.4 0 0.8c-1.3-0.5-2.1-1.2-2.2-2.2c-1.5-23.8 2.8-47-5.4-70.1c-3.3-9.1-6.9-18.5-9.7-27.9c-2.7-9.4-3.2-19.2-5-28.8c-0.7-4 0.5-5.3 1.5-5.7q0.8 1.4 1.6 2.9q0.7 1.5 1.4 3q0.6 1.6 1.2 3.2q0.5 1.5 1 3.2z" />
		<path id="Layer" class="s5" d="m66.6 359.3l0.2-0.2v-27.5h-4v-17.3h14.6v17.3h-3.9v28l34.9 11.1v2.8c0 0.8-0.3 1.6-0.9 2.2c-0.6 0.6-1.4 0.9-2.2 0.9c-0.9 0-1.7-0.3-2.3-0.9c-0.6-0.6-0.9-1.4-0.9-2.2v-0.4l-29.1-3.4v4.2c0 0.7-0.4 1.4-0.9 1.8c-0.5 0.5-1.2 0.8-1.9 0.8c-0.7 0-1.4-0.3-1.9-0.8c-0.5-0.4-0.8-1.1-0.8-1.8v-4.3l-30.5 3.5v0.4c0 0.9-0.3 1.7-0.9 2.3c-0.6 0.7-1.4 1-2.3 1c-0.8 0-1.7-0.3-2.3-1c-0.5-0.6-0.9-1.4-0.8-2.3v-2.8z" />
		<path id="Layer" class="s5" d="m115.7 313.5c0 2.2-1.8 4-4 4h-86.7c-2.2 0-4-1.8-4-4v-12.2c0-2.2 1.8-4 4-4h86.7c2.2 0 4 1.8 4 4z" />
		<path id="Layer" class="s2" d="m92.4 240.7h237.6v136.6h-237.6z" />
		<path id="Layer" class="s5" d="m92.5 244h237.3v3.8h-237.3z" />
		<path id="Layer" class="s2" d="m87.1 238.5h244.7v6h-244.7z" />
	</g>
	<g id="freepik--Characters--inject-3">
		<path id="Layer" class="s3" d="m155.7 226.6c0 0 2.8 12.5 2.6 16c-0.2 3.5-6.8 12.9-6.9 10.7q0-0.6 0.1-1.3q0.1-0.7 0.2-1.3q0.2-0.7 0.4-1.4q0.2-0.6 0.4-1.2c0.2-0.4-2.3 3.1-3.1 3c-0.8-0.2 0.7-4.5 0.7-4.5c0 0-2.5 2.5-3.3 2c-0.9-0.5 1.8-4.1 1.8-4.1c0 0-3 3.1-3.1 2.1c-0.2-1 2.6-5.1 2.6-5.1c0 0-2.8-5.9-3-8.4q0-0.6 0.1-1.2q0.1-0.7 0.3-1.3q0.2-0.6 0.5-1.2q0.3-0.5 0.7-1z" />
		<g id="Layer">
			<path id="Layer" class="s6" d="m155.7 226.6c0 0 2.8 12.5 2.6 16c-0.2 3.5-6.8 12.9-6.9 10.7q0-0.6 0.1-1.3q0.1-0.7 0.2-1.3q0.2-0.7 0.4-1.4q0.2-0.6 0.4-1.2c0.2-0.4-2.3 3.1-3.1 3c-0.8-0.2 0.7-4.5 0.7-4.5c0 0-2.5 2.5-3.3 2c-0.9-0.5 1.8-4.1 1.8-4.1c0 0-3 3.1-3.1 2.1c-0.2-1 2.6-5.1 2.6-5.1c0 0-2.8-5.9-3-8.4q0-0.6 0.1-1.2q0.1-0.7 0.3-1.3q0.2-0.6 0.5-1.2q0.3-0.5 0.7-1z" />
		</g>
		<path id="Layer" class="s7" d="m155.7 226.6c0 0 2.8 12.5 2.6 16c-0.2 3.5-6.8 12.9-6.9 10.7q0-0.6 0.1-1.3q0.1-0.7 0.2-1.3q0.2-0.7 0.4-1.4q0.2-0.6 0.4-1.2c0.2-0.4-2.3 3.1-3.1 3c-0.8-0.2 0.7-4.5 0.7-4.5c0 0-2.5 2.5-3.3 2c-0.9-0.5 1.8-4.1 1.8-4.1c0 0-3 3.1-3.1 2.1c-0.2-1 2.6-5.1 2.6-5.1c0 0-2.8-5.9-3-8.4q0-0.6 0.1-1.2q0.1-0.7 0.3-1.3q0.2-0.6 0.5-1.2q0.3-0.5 0.7-1z" />
		<path id="Layer" class="s3" d="m155 226.6c0 0 2 8.8 1.8 11.2c-0.2 2.5-2.6 9.7-4.4 8.4c-1.8-1.3 1.1-6.2 1.1-6.2c0 0-5.1-3.6-6.2-6.9c-1.2-3.4-0.5-4.8-0.5-4.8z" />
		<g id="Layer">
			<path id="Layer" class="s6" d="m155 226.6c0 0 2 8.8 1.8 11.2c-0.2 2.5-2.6 9.7-4.4 8.4c-1.8-1.3 1.1-6.2 1.1-6.2c0 0-5.1-3.6-6.2-6.9c-1.2-3.4-0.5-4.8-0.5-4.8z" />
		</g>
		<path id="Layer" class="s7" d="m155 226.6c0 0 2 8.8 1.8 11.2c-0.2 2.5-2.6 9.7-4.4 8.4c-1.8-1.3 1.1-6.2 1.1-6.2c0 0-5.1-3.6-6.2-6.9c-1.2-3.4-0.5-4.8-0.5-4.8z" />
		<path id="Layer" class="s8" d="m149 185.7l7 41.8l-9.9 2.2l-9.9-32.2l12.8-11.8z" />
		<path id="Layer" class="s8" d="m146.1 206.1c0 0 0.6 49.8 1.6 63.1c0.9 13.4-2.6 31.3-5.7 36.4c-3.2 5.1-17.3 37-16.6 38.9c0.6 1.9 3.5 7.6 3.5 9.2v6.7c0 0 15.9 10.5 17.2 10.5c1.3 0 2.9 2.6-0.3 4.5c-3.2 1.9-38.9 1.9-40.5 0.6q-0.4-0.3-0.7-0.7q-0.4-0.4-0.7-0.9q-0.2-0.4-0.5-0.9q-0.2-0.5-0.3-1c-0.1-0.3-5.1 1.9-4.8-2.8c0.3-4.8 6-25.2 6-25.2c0 0-3.5-22.3-2.2-36.7c1.3-14.3 5.8-31.5 5.8-35c0-3.5-4.5-26.8-5.1-30.6c-0.7-3.9-9.9-14.7-5.8-23.3c4.2-8.6 7.3-22.3 8.6-23.3c1.3-0.9 18.5-1.6 25.5 0c7 1.6 14.7 1.6 15 10.5z" />
		<path id="Layer" class="s5" d="m121.2 105.7c2.5 1.9 10.9 7 16 13.1c5.1 6.2 16.5 27.4 16.5 34.2c0 6.8-4.1 31-4.1 31l-0.4 45.1l-5.1 3.4v-27.1l-4.3 27.4c0 0-14.4 4.3-25.7 0.6c-11.3-3.8-15.6-7.7-15.6-7.7v-6.2l-3.7 4.1l-3.8-1.5l13-33c0 0-8.6-35.3-8.5-47c0.2-11.6 11.7-27.9 12.6-29.6c1-1.7 6.4-6.6 6.4-6.6c0 0 4.2-2.1 6.7-0.2z" />
		<g id="Layer">
			<path id="Layer" class="s9" d="m121.2 105.7c2.5 1.9 10.9 7 16 13.1c5.1 6.2 16.5 27.4 16.5 34.2c0 6.8-4.1 31-4.1 31l-0.4 45.1l-5.1 3.4v-27.1l-4.3 27.4c0 0-14.4 4.3-25.7 0.6c-11.3-3.8-15.6-7.7-15.6-7.7v-6.2l-3.7 4.1l-3.8-1.5l13-33c0 0-8.6-35.3-8.5-47c0.2-11.6 11.7-27.9 12.6-29.6c1-1.7 6.4-6.6 6.4-6.6c0 0 4.2-2.1 6.7-0.2z" />
			<path id="Layer" class="s7" d="m98.5 145.9c0 0 6.8 4.8 11.3 6.5" />
			<path id="Layer" class="s7" d="m100.4 151c0 0 7.7 2 11.7 2" />
			<path id="Layer" class="s7" d="m111.5 196.4l21.6 2.6l-1.4 4.5l-19.9-2.3" />
		</g>
		<path id="Layer" class="s7" d="m121.2 105.7c2.5 1.9 10.9 7 16 13.1c5.1 6.2 16.5 27.4 16.5 34.2c0 6.8-4.1 31-4.1 31l-0.4 45.1l-5.1 3.4v-27.1l-4.3 27.4c0 0-14.4 4.3-25.7 0.6c-11.3-3.8-15.6-7.7-15.6-7.7v-6.2l-3.7 4.1l-3.8-1.5l13-33c0 0-8.6-35.3-8.5-47c0.2-11.6 11.7-27.9 12.6-29.6c1-1.7 6.4-6.6 6.4-6.6c0 0 4.2-2.1 6.7-0.2z" />
		<path id="Layer" class="s10" d="m128 111.7c1.1 2.7 11.3 14.4 13.5 19.1c2.3 4.7 4.9 22 4.9 22l-12.2-23.3l-20.8-22.5c0 0 13.5 2.1 14.6 4.7z" />
		<path id="Layer" class="s8" d="m138.4 133l-4.2-3.4l-1.4-7.4l3.3 0.7q0.8 0.9 1.5 1.9q0.7 1 1.4 2q0.7 1 1.3 2q0.6 1 1.2 2.1l1.2 3.4c1.9 6.8 3.7 18.5 3.7 18.5l-5.8-11z" />
		<path id="Layer" class="s10" d="m135.1 115.5l1.1 1.2l3.4 4l2 10.2l-8.7-8.7c0 0 1.1-5.2 2.2-6.7z" />
		<path id="Layer" class="s3" d="m144.9 73.6c0 0 4.6 3.5 5.1 6.9c0.6 3.4-1.1 7.1-0.9 8.4c0.2 1.4 3.6 4.4 3.4 5.9c-0.2 1.5-3 2-3 2c0 0-3.1 11.2-3.8 13c-0.8 1.9-4.5 1.3-7.4 1l-5 15l-16.7-19.7l2.6-7.9c0 0-7.1-8.6-7.7-17.8c-0.6-9.2 6.7-15.6 17.3-16.9c10.5-1.3 19.3 3.7 20.4 5.8c1.1 2.1-4.3 4.3-4.3 4.3z" />
		<g id="Layer">
			<path id="Layer" class="s6" d="m144.9 73.6c0 0 4.6 3.5 5.1 6.9c0.6 3.4-1.1 7.1-0.9 8.4c0.2 1.4 3.6 4.4 3.4 5.9c-0.2 1.5-3 2-3 2c0 0-3.1 11.2-3.8 13c-0.8 1.9-4.5 1.3-7.4 1l-5 15l-16.7-19.7l2.6-7.9c0 0-7.1-8.6-7.7-17.8c-0.6-9.2 6.7-15.6 17.3-16.9c10.5-1.3 19.3 3.7 20.4 5.8c1.1 2.1-4.3 4.3-4.3 4.3z" />
			<path id="Layer" class="s11" d="m116.5 106.2l2.7-7.9c0 0-7.2-8.7-7.7-17.9q-0.2-1.6 0.1-3.2q0.3-1.6 0.9-3.2q0.6-1.5 1.6-2.8q0.9-1.3 2.1-2.4c5.3 0 11.2 0.9 14.4 4c0 0 6.7 6 6.7 11.4c0 5.4-7 16.1-5 19.8c1.6 3 9.5 5.3 12.7 6.6c-1.3 0.9-4.3 0.5-6.7 0.2l-1.1 3.3c-4.2 0.9-8.9 1.9-11.8 2.5z" />
		</g>
		<path id="Layer" class="s7" d="m144.9 73.6c0 0 4.6 3.5 5.1 6.9c0.6 3.4-1.1 7.1-0.9 8.4c0.2 1.4 3.6 4.4 3.4 5.9c-0.2 1.5-3 2-3 2c0 0-3.1 11.2-3.8 13c-0.8 1.9-4.5 1.3-7.4 1l-5 15l-16.7-19.7l2.6-7.9c0 0-7.1-8.6-7.7-17.8c-0.6-9.2 6.7-15.6 17.3-16.9c10.5-1.3 19.3 3.7 20.4 5.8c1.1 2.1-4.3 4.3-4.3 4.3z" />
		<path id="Layer" class="s8" d="m130.6 76.3c0.6 2 5.5 3.9 3.8 6.1q-0.4 0.6-0.9 1.1q-0.4 0.5-0.9 0.9q-0.5 0.5-1 0.9q-0.6 0.4-1.2 0.7c-0.9 0.8 0.4 5.3-1.1 5.4c-1.5 0.2-2 1.5-2-0.5c0-2.1-1.9-3.2-4.7-2.6c-2.9 0.5-2.7 7.1-0.4 9.2q0.4 0.4 1 0.7q0.5 0.3 1.1 0.4q0.6 0.1 1.2 0q0.6-0.1 1.2-0.4c0 0-4 3.1-7.9 1.2l0.4-1.2c0 0-7.2-8.6-7.7-17.8c-0.6-9.2 6.7-15.6 17.3-16.9c10.5-1.3 19.3 3.8 20.4 5.8c1.2 2.1-4.3 4.3-4.3 4.3c0 0-14.8 0.6-14.3 2.7z" />
		<path id="Layer" class="s7" d="m145.9 89.4h-3.1l3.4-1.1" />
		<path id="Layer" class="s7" d="m142.6 85.3c0 0 0.2-0.7 1.8-1.7c1.7-0.9 3.2 1.2 3.2 1.2" />
		<path id="Layer" class="s7" d="m147.5 100.7q-0.5 0-0.9 0q-0.5 0-0.9-0.1q-0.5-0.1-0.9-0.3q-0.4-0.2-0.8-0.4" />
		<path id="Layer" class="s10" d="m115.8 102.5l21 20.7l-1.8 8.8l-22.4-24l3.2-5.5z" />
		<path id="Layer" class="s10" d="m197.6 192.7c0 0-7.4 3-11 1.6c-3.6-1.4-9.8-4-10.6-6c-0.8-2 10.8-10.4 12-10.8c1.2-0.4 8.6 4 8.6 4z" />
		<path id="Layer" class="s3" d="m175 179.9c0 0 6.4-3.6 7.4-3.6c1 0 6.8 5.2 6.8 5.2l-2.4 3.6c0 0 7.6 3.8 6.8 5.2c-0.8 1.4-3.8 3.6-7 4c-3.2 0.4-12.2-5.4-12.2-5.4z" />
		<g id="Layer">
			<path id="Layer" class="s6" d="m175 179.9c0 0 6.4-3.6 7.4-3.6c1 0 6.8 5.2 6.8 5.2l-2.4 3.6c0 0 7.6 3.8 6.8 5.2c-0.8 1.4-3.8 3.6-7 4c-3.2 0.4-12.2-5.4-12.2-5.4z" />
		</g>
		<path id="Layer" class="s7" d="m175 179.9c0 0 6.4-3.6 7.4-3.6c1 0 6.8 5.2 6.8 5.2l-2.4 3.6c0 0 7.6 3.8 6.8 5.2c-0.8 1.4-3.8 3.6-7 4c-3.2 0.4-12.2-5.4-12.2-5.4z" />
		<path id="Layer" class="s10" d="m170.6 178.3l5.6 1l-1.8 9.6l-4.8-1.6l1-9z" />
		<path id="Layer" class="s5" d="m119.4 125.5l13.6 41.8l40 11.4l-2 10.2c0 0-46.8-1.4-48.4-2.8c-1.6-1.4-23.6-42.8-23-48c0.6-5.2 6-15.6 6-15.6" />
		<g id="Layer">
			<path id="Layer" class="s9" d="m119.4 125.5l13.6 41.8l40 11.4l-2 10.2c0 0-46.8-1.4-48.4-2.8c-1.6-1.4-23.6-42.8-23-48c0.6-5.2 6-15.6 6-15.6" />
		</g>
		<path id="Layer" class="s7" d="m119.4 125.5l13.6 41.8l40 11.4l-2 10.2c0 0-46.8-1.4-48.4-2.8c-1.6-1.4-23.6-42.8-23-48c0.6-5.2 6-15.6 6-15.6" />
		<path id="Layer" class="s10" d="m189.4 183.1c0 0-5.2 5.8-8 5.6c-2.8-0.2 3.4-7 4.4-9.8c1-2.8 3.8-0.4 3.8-0.4" />
		<path id="Layer" class="s10" d="m179.8 190.7c0.2 2-0.4 4.8-1.6 3.8c-1.8-1.4-1-4.8-1-4.8c0.6-1.6 2.3-1 2.6 1z" />
		<path id="Layer" class="s10" d="m182.6 191.5c0.3 2-0.4 4.8-1.6 3.8c-1.7-1.5-1-4.8-1-4.8c0.6-1.6 2.3-1 2.6 1z" />
		<path id="Layer" class="s10" d="m185.4 192.7c0.2 2-0.4 4.8-1.6 3.8c-1.8-1.4-1-4.8-1-4.8c0.6-1.6 2.3-1 2.6 1z" />
		<path id="Layer" class="s10" d="m187.9 194c0.3 1.3-0.3 3.2-1.5 2.5c-1.5-0.9-0.9-3.2-0.9-3.2c0.6-1.1 2.1-0.7 2.4 0.7z" />
		<path id="Layer" class="s7" d="m196.6 181.5l4-0.2l1 11.8l-4.4 1.2l-0.6-12.8z" />
		<path id="Layer" class="s8" d="m199.6 180.3l36.2-8.2l-0.8 19.8l-33.4 3.6l-2-15.2z" />
		<path id="Layer" class="s12" d="m141 240.9c0 0-6.1 40.5-6.1 54.2c0 13.7-9.2 36.6-9.5 49.4" />
		<path id="Layer" class="s10" d="m104.6 375.2q-0.4-0.4-0.7-0.8q-0.2-0.4-0.5-0.9q-0.2-0.5-0.3-1v-1.9c0 0 7.6-0.3 12.4-1.9c4.8-1.6 13.4-8.3 13.4-8.3c0 0 15.9 10.5 17.2 10.5c1.3 0 2.9 2.6-0.3 4.5c-3.2 1.9-38.9 1.9-40.5 0.6q-0.4-0.4-0.7-0.8z" />
		<path id="Layer" class="s10" d="m105.4 376q-0.4-0.3-0.7-0.6q-0.3-0.3-0.5-0.6q-0.3-0.4-0.5-0.8q-0.2-0.4-0.3-0.8c5.2 0.3 20.3 0.9 30 0.6q1.7 0 3.5-0.1q1.8-0.1 3.6-0.3q1.8-0.2 3.6-0.5q1.7-0.3 3.5-0.6c0.2 0.9-0.1 2.1-1.8 3.1c-3.2 1.9-38.9 1.9-40.4 0.6z" />
		<path id="Layer" class="s8" d="m98.3 369.6c0.3-4.7 6-25.1 6-25.1l-1.2 26.1l-1 2.2c-1.4 0.3-4 0.3-3.8-3.2z" />
		<path id="Layer" class="s8" d="m271.7 233.9c0 0-6 54.8-6 62.1c0 7.3 5.4 70.1 5.4 70.1l-17.9-2.5q0.1-1 0-1.9q0-1-0.1-2q-0.1-0.9-0.4-1.9q-0.2-0.9-0.5-1.9c-1.2-4.1-9.2-37.3-12.4-56.4c-3.2-19.1 0-66.6 0-66.6z" />
		<path id="Layer" class="s8" d="m274.6 363.2q0.2 0.5 0.4 1q0.3 0.4 0.5 0.9q0.2 0.5 0.3 1q0.2 0.5 0.4 1c0.6 1.9-1 9.5-1 9.5h-9.3l-0.3-2.2l-3.5 1.9c0 0-8.6 1-17.2 1c-8.6 0-15.6-2.2-13.4-3.8c2.3-1.6 21.7-9.9 21.7-9.9z" />
		<path id="Layer" class="s8" d="m279 228.1c0 0-0.9 5.2-1.9 9.9c-0.9 4.8-5.4 8.9-5.7 12.8c-0.3 3.8 1.2 27.7 1.2 36.6c0 8.9 2 13.1 2 20.4c0 7.3 1.6 38 1.2 42.7c-0.3 4.8 0.4 14.5-0.5 14.8q-1.2 0.3-2.4 0.6q-1.2 0.3-2.5 0.5q-1.3 0.2-2.5 0.3q-1.3 0.1-2.6 0.1c-5.4 0-13.5-1.7-13.7-1.9q-0.1-0.4-0.3-0.7q-0.1-0.4-0.2-0.7q-0.2-0.4-0.3-0.8q-0.1-0.3-0.2-0.7l1.3-4.2q0.3-0.8 0.5-1.7q0.1-0.8 0.3-1.7q0.1-0.9 0.1-1.8q0.1-0.9 0.1-1.8c0-4.1-6.7-43.6-10.5-59.9c-3.9-16.2-5.5-61.8-5.5-61.8z" />
		<path id="Layer" class="s12" d="m240.8 277c0 0 8.9 61.8 11.1 65.7q0.5 0.9 0.8 1.9q0.3 1 0.5 2.1q0.1 1 0 2.1q0 1-0.3 2" />
		<path id="Layer" class="s8" d="m233.9 194.5l7.5 46.4q-0.8 0-1.6-0.1q-0.8-0.1-1.6-0.2q-0.8-0.1-1.6-0.2q-0.8-0.1-1.6-0.3q-1.5-0.3-2.8-1.1q-1.3-0.8-2.2-1.9q-1-1.2-1.5-2.7q-0.5-1.4-0.5-2.9c0.1-4.9 0.1-11.7 0.1-16.9c0-9.3 1.2-21.5 1.2-21.5c1.2-4.3 4.6 1.4 4.6 1.4z" />
		<path id="Layer" class="s8" d="m264.7 110q0.7 0.4 1.3 0.8q0.7 0.4 1.3 0.8q0.6 0.5 1.2 1q0.6 0.5 1.1 1.1q0.5 0.6 0.9 1.2q0.5 0.7 0.9 1.4q0.4 0.6 0.8 1.3q0.4 0.7 0.8 1.4c0.2 0.5 13.6 15.6 13.9 17.2c0.3 1.6-7.7 51.8-7.7 51.8l9.1 47.5c0 0-14.7 8.1-25.8 8.6c-7.9 0.3-19.7-2.2-26-3.7q-1-0.2-1.8-0.7q-0.8-0.5-1.5-1.2q-0.6-0.8-1-1.7q-0.4-0.9-0.4-1.8c-0.7-6.7-1.8-20-2.5-32.6c-0.8-14.7 1.4-43.7 3-53.9c1.6-10.2 6.5-24.1 10.4-29.8c3.8-5.8 14.3-11.7 22-8.7z" />
		<path id="Layer" class="s5" d="m273.5 119.6q-2.5 2-4.9 4.1q-2.5 2.1-4.8 4.3q-2.3 2.2-4.6 4.5q-2.2 2.3-4.4 4.7c-11.4 12.7-19.9 23.6-19.9 23.6c0 0-0.3-12.7 2.2-22.7c2.4-9.4 7.5-20.9 8.1-22.3c4.8-4.6 13.2-8.2 19.5-5.7q0.7 0.3 1.4 0.7q0.6 0.5 1.2 0.9q0.7 0.5 1.2 1q0.6 0.5 1.2 1q0.4 0.7 0.9 1.3q0.4 0.6 0.8 1.3q0.5 0.7 0.8 1.3q0.4 0.7 0.8 1.4z" />
		<g id="Layer">
			<path id="Layer" class="s9" d="m273.5 119.6q-2.5 2-4.9 4.1q-2.5 2.1-4.8 4.3q-2.3 2.2-4.6 4.5q-2.2 2.3-4.4 4.7c-11.4 12.7-19.9 23.6-19.9 23.6c0 0-0.3-12.7 2.2-22.7c2.4-9.4 7.5-20.9 8.1-22.3c4.8-4.6 13.2-8.2 19.5-5.7q0.7 0.3 1.4 0.7q0.6 0.5 1.2 0.9q0.7 0.5 1.2 1q0.6 0.5 1.2 1q0.4 0.7 0.9 1.3q0.4 0.6 0.8 1.3q0.5 0.7 0.8 1.3q0.4 0.7 0.8 1.4z" />
		</g>
		<path id="Layer" class="s7" d="m273.5 119.6q-2.5 2-4.9 4.1q-2.5 2.1-4.8 4.3q-2.3 2.2-4.6 4.5q-2.2 2.3-4.4 4.7c-11.4 12.7-19.9 23.6-19.9 23.6c0 0-0.3-12.7 2.2-22.7c2.4-9.4 7.5-20.9 8.1-22.3c4.8-4.6 13.2-8.2 19.5-5.7q0.7 0.3 1.4 0.7q0.6 0.5 1.2 0.9q0.7 0.5 1.2 1q0.6 0.5 1.2 1q0.4 0.7 0.9 1.3q0.4 0.6 0.8 1.3q0.5 0.7 0.8 1.3q0.4 0.7 0.8 1.4z" />
		<path id="Layer" class="s10" d="m262.8 110.7l3.4 1c0 0-5.1 6.3-9.1 10.4c-3.9 4-20 28.2-20 28.2c0 0 0.1-6 1.4-9.8c1.3-3.9 5.6-17.4 5.6-17.4z" />
		<path id="Layer" class="s10" d="m249.7 120.8l-6.8 9.2c0 0 0.5-5.4 0.5-5.8c0-0.4 1.9-6 1.9-6z" />
		<path id="Layer" class="s10" d="m262.6 107l3.4 4.1l-19.1 19.4l-2.9-8.3l18.6-15.2z" />
		<path id="Layer" class="s10" d="m271.4 230.5c0 0 1.5 12.7 1.5 14.8c0 2-0.7 2.2-0.7 2.2c0 0-0.6 3.1-0.8 4c-0.1 0.9-2.4 1.8-2.5 2.1q-0.1 0.3-0.3 0.7q-0.1 0.3-0.3 0.6q-0.2 0.4-0.4 0.7q-0.2 0.3-0.4 0.6q-0.2 0.3-0.5 0.5q-0.2 0.2-0.5 0.4q-0.3 0.1-0.7 0.2q-0.3 0-0.6 0q-0.1 0.3-0.2 0.6q-0.1 0.3-0.4 0.6q-0.2 0.2-0.4 0.4q-0.3 0.2-0.6 0.3c-1.4 0.3-2.3-3.2-2.5-3.2q-0.2 0-0.5 0q-0.2 0-0.4-0.1q-0.3 0-0.5-0.1q-0.2 0-0.4-0.1c-0.6-0.2-1.1-7-1.1-7c0 0-1.6-0.2-1.7-1c-0.1-0.9-0.5-9.4 0.3-11.6c0.8-2.1 3.4-8.7 3.4-8.7z" />
		<path id="Layer" class="s7" d="m258.2 248.7l0.3-5.9" />
		<path id="Layer" class="s7" d="m261.1 256l0.7-8.8" />
		<path id="Layer" class="s7" d="m265.1 257.3l0.5-9.6" />
		<path id="Layer" class="s7" d="m268.9 253.6l0.6-6.7" />
		<path id="Layer" class="s8" d="m279.7 131.9l7.1 4.3l-2.4 49.5l-12.7 46.9l-12.1-3.2l3.8-37l-1.9-37.3c0 0 2.7-8.7 8.9-13.5" />
		<path id="Layer" class="s12" d="m264.9 140.2c0 0-3.2 8.3-3.4 14.9" />
		<path id="Layer" class="s12" d="m259.7 225.6l3.8-29.7c0 0-1.4-34.4-1.4-38.5c0-4.1 5.5-13.2 5.5-13.2" />
		<path id="Layer" class="s3" d="m231.9 75.9q-0.6-0.5-1.1-0.9q-0.5-0.5-0.9-1q-0.5-0.5-0.8-1.1c-1.8-2.5 7-6 16.5-6.1c9.4-0.1 22.7 8.5 22.8 15c0.1 6.4-7.7 20.1-7.7 20.1l1.8 7.4l-14.7 14.1l-7.2-9.1c0 0-6.6 2.4-7.7 1.3c-1.1-1.1-3.8-12.6-3.8-12.6c0 0-3.4-0.9-4.1-1.7c-0.8-0.9 5.2-8.3 5.2-8.3c0 0-0.3-2.4-0.7-3.9c-0.3-1.6 3.5-12.5 3.5-12.5q-0.6-0.3-1.1-0.7z" />
		<g id="Layer">
			<path id="Layer" class="s11" d="m268.4 81.8c0.1 6.4-7.6 20.1-7.6 20.1l1.8 7.4l-7.2 6.9l-13.6-0.5l-1.1-1.4c0 0-2.1 0.7-4.1 1.2l-2.6-0.1c0 0 8.4-4.7 9.7-9.1c1.4-4.3-4.6-10.4-5.3-14.7c-0.7-4.4 6-10.1 6-10.1l14.1-5.7q0.6-0.3 1.2-0.5q0.7-0.2 1.3-0.4q0.7-0.2 1.4-0.4q0.7-0.1 1.3-0.2c2.8 2.4 4.6 5.1 4.7 7.5z" />
		</g>
		<path id="Layer" class="s7" d="m231.9 75.9q-0.6-0.5-1.1-0.9q-0.5-0.5-0.9-1q-0.5-0.5-0.8-1.1c-1.8-2.5 7-6 16.5-6.1c9.4-0.1 22.7 8.5 22.8 15c0.1 6.4-7.7 20.1-7.7 20.1l1.8 7.4l-14.7 14.1l-7.2-9.1c0 0-6.6 2.4-7.7 1.3c-1.1-1.1-3.8-12.6-3.8-12.6c0 0-3.4-0.9-4.1-1.7c-0.8-0.9 5.2-8.3 5.2-8.3c0 0-0.3-2.4-0.7-3.9c-0.3-1.6 3.5-12.5 3.5-12.5q-0.6-0.3-1.1-0.7z" />
		<path id="Layer" class="s8" d="m261.2 103.8c-0.8 0.5-1.7 1-2.5 1.3c-2.9 1.3-9.4-3.1-9-3.5q0.7-0.8 1.1-1.8q0.5-1 0.7-2.1q0.3-1 0.4-2.1q0.1-1.1 0-2.2c-0.5-4.1-3.8-2.7-4.8-1.8c-0.9 0.9-1.6 2.4-3.1 2c-1.5-0.4-0.5-3.6-0.5-3.6c0 0-5.7-2-6.9-3.7c-1.2-1.7 2.3-5.5 2.3-6.2c0-0.7-5.5-3.2-5.9-3.5q-0.6-0.3-1.1-0.7q-0.6-0.5-1.1-0.9q-0.5-0.5-0.9-1q-0.5-0.5-0.8-1.1c-1.8-2.5 7-5.9 16.5-6.1c9.4-0.1 22.7 8.5 22.8 15c0.1 6.4-7.7 20.1-7.7 20.1z" />
		<path id="Layer" class="s7" d="m232 96c-0.4 0-0.8-1.4-0.8-3.2c0-1.8 0.4-3.3 0.8-3.3c0.5 0 0.9 1.5 0.9 3.3c0 1.8-0.4 3.2-0.9 3.2z" />
		<path id="Layer" class="s7" d="m233 91.5l14.1 0.1" />
		<path id="Layer" class="s7" d="m230.7 87.6c0 0 1.3-2.2 2.7 0.5" />
		<path id="Layer" class="s7" d="m234.4 102.6q-0.4 0.4-0.9 0.7q-0.5 0.3-1 0.7q-0.5 0.3-1 0.5q-0.5 0.3-1.1 0.5" />
	</g>
</svg>