<svg version="1.2" xmlns="http://www.w3.org/2000/svg" viewBox="0 0 430 343" width="400" height="375">
	<title>Job hunt-bro-svg-svg</title>
	<style>
		.s0 { fill: #287bff } 
		.s1 { opacity: .7;fill: #ffffff } 
		.s2 { opacity: .8;fill: #ffffff } 
		.s3 { fill: #ffffff;stroke: #263238;stroke-linecap: round;stroke-linejoin: round } 
		.s4 { fill: none;stroke: #263238;stroke-linecap: round;stroke-linejoin: round;stroke-width: .8 } 
		.s5 { fill: #263238;stroke: #263238;stroke-linecap: round;stroke-linejoin: round } 
		.s6 { fill: none;stroke: #ffffff;stroke-linecap: round;stroke-linejoin: round;stroke-width: .8 } 
		.s7 { fill: #263238 } 
		.s8 { fill: #287bff;stroke: #263238 } 
		.s9 { fill: #ffffff;stroke: #263238;stroke-linecap: round;stroke-linejoin: round;stroke-width: .8 } 
		.s10 { fill: #287bff;stroke: #263238;stroke-linecap: round;stroke-linejoin: round } 
		.s11 { fill: none;stroke: #263238;stroke-linecap: round;stroke-linejoin: round } 
		.s12 { opacity: .5;fill: #ffffff } 
		.s13 { fill: none;stroke: #ffffff;stroke-linecap: round;stroke-linejoin: round } 
		.s14 { fill: none;stroke: #ffffff;stroke-linecap: round;stroke-linejoin: round;stroke-width: .5 } 
		.s15 { fill: none;stroke: #263238 } 
	</style>
	<path id="Layer" class="s0" d="m217 263.6c-51.4 10.3-137.8 12-178.5-29.4c-40.7-41.4-36.4-146.5 13.6-164c49.9-17.5 111.3 3.2 155.6-4.1c44.3-7.3 75.7-43.4 108.5-43.1c32.9 0.3 84.3 22.8 94.3 100.9c10 78.2-27.2 123-27.2 123c-37.8 47.8-114.9 6.3-166.3 16.6z" />
	<path id="Layer" class="s1" d="m217 263.6c-51.4 10.3-137.8 12-178.5-29.4c-40.7-41.4-36.4-146.5 13.6-164c49.9-17.5 111.3 3.2 155.6-4.1c44.3-7.3 75.7-43.4 108.5-43.1c32.9 0.3 84.3 22.8 94.3 100.9c10 78.2-27.2 123-27.2 123c-37.8 47.8-114.9 6.3-166.3 16.6z" />
	<path id="Layer" class="s0" d="m241.3 44.6h-110.1c0 0 3-2.2 5.6-3.9c2.6-1.7 6.9 0 9.2 0c2.2 0 2.2-2.6 7-5.6c4.7-3.1 10 1.7 13.9 0.8c3.9-0.8 1.7-6.9 6.5-10c4.8-3 6.1 1.8 10.9-1.3c4.8-3 0-15.7 17.8-15.2c17.9 0.4 18.7 12.6 18.7 12.6c13.1 5.7 6.6 11.3 8.3 13.5c1.7 2.2 3.9 0 8.7 2.6c4.8 2.6 3.5 6.5 3.5 6.5z" />
	<path id="Layer" class="s0" d="m241.3 44.6h-110.1c0 0 3-2.2 5.6-3.9c2.6-1.7 6.9 0 9.2 0c2.2 0 2.2-2.6 7-5.6c4.7-3.1 10 1.7 13.9 0.8c3.9-0.8 1.7-6.9 6.5-10c4.8-3 6.1 1.8 10.9-1.3c4.8-3 0-15.7 17.8-15.2c17.9 0.4 18.7 12.6 18.7 12.6c13.1 5.7 6.6 11.3 8.3 13.5c1.7 2.2 3.9 0 8.7 2.6c4.8 2.6 3.5 6.5 3.5 6.5z" />
	<path id="Layer" class="s1" d="m241.3 44.6h-110.1c0 0 3-2.2 5.6-3.9c2.6-1.7 6.9 0 9.2 0c2.2 0 2.2-2.6 7-5.6c4.7-3.1 10 1.7 13.9 0.8c3.9-0.8 1.7-6.9 6.5-10c4.8-3 6.1 1.8 10.9-1.3c4.8-3 0-15.7 17.8-15.2c17.9 0.4 18.7 12.6 18.7 12.6c13.1 5.7 6.6 11.3 8.3 13.5c1.7 2.2 3.9 0 8.7 2.6c4.8 2.6 3.5 6.5 3.5 6.5z" />
	<path id="Layer" class="s2" d="m373.4 88.6h-60.8c0 0 1.7-1.2 3.1-2.2c1.4-1 3.8 0 5 0c1.2 0 1.2-1.4 3.9-3.1c2.6-1.7 5.5 1 7.6 0.5c2.2-0.6 1-3.8 3.7-5.6c2.6-1.7 3.3 1 6-0.7c2.6-1.7-0.1-8.7 9.8-8.4c9.9 0.3 10.3 7 10.3 7c7.3 3.1 3.6 6.2 4.6 7.5c1 1.2 2.2 0 4.8 1.4c2.7 1.4 2 3.6 2 3.6z" />
	<path id="Layer" class="s2" d="m88.1 143.2h-60.8c0 0 1.7-1.2 3.1-2.2c1.5-1 3.9 0 5.1 0c1.2 0 1.1-1.4 3.8-3.1c2.7-1.7 5.6 1 7.7 0.5c2.2-0.5 1-3.8 3.6-5.5c2.7-1.8 3.4 0.9 6-0.8c2.7-1.6 0-8.6 9.9-8.4c9.8 0.3 10.3 7 10.3 7c7.2 3.2 3.6 6.3 4.6 7.5c1 1.2 2.2 0 4.8 1.4c2.6 1.5 1.9 3.6 1.9 3.6z" />
	<path id="Layer" class="s3" d="m221.1 227.5l-1.6-166.5l32.8-0.3l-0.9 172.3z" />
	<path id="Layer" class="s4" d="m223.4 64.5l0.3 68" />
	<path id="Layer" class="s4" d="m228.3 64.7v82.8" />
	<path id="Layer" class="s4" d="m233.6 64.5l0.5 84" />
	<path id="Layer" class="s4" d="m240.3 65.3v82.1" />
	<path id="Layer" class="s4" d="m246.5 65.5v143.3" />
	<path id="Layer" class="s4" d="m221 71.9l28.9 0.3" />
	<path id="Layer" class="s4" d="m221.3 82.7l28.4 0.8" />
	<path id="Layer" class="s4" d="m221.8 93.6l27.3 1.4" />
	<path id="Layer" class="s4" d="m221.6 104.6l28.1 1.9" />
	<path id="Layer" class="s4" d="m221.8 115.3l27.1 3" />
	<path id="Layer" class="s5" d="m252.3 60.7l25.5 0.3l-1.9 154.9l-24.5 17.1z" />
	<path id="Layer" class="s6" d="m275.2 64.7v82.8" />
	<path id="Layer" class="s6" d="m269.8 64.5l0.1 94.7" />
	<path id="Layer" class="s6" d="m263.1 65.3l0.1 97.3" />
	<path id="Layer" class="s6" d="m257 65.5v143.3" />
	<path id="Layer" class="s6" d="m277.1 71.9l-23.6 0.3" />
	<path id="Layer" class="s6" d="m277.1 83.2l-23.4 0.3" />
	<path id="Layer" class="s6" d="m277.7 93.6l-23.4 1.4" />
	<path id="Layer" class="s6" d="m276.8 105.3l-23.1 1.2" />
	<path id="Layer" class="s6" d="m276.8 116l-22.3 2.3" />
	<path id="Layer" class="s6" d="m276.2 127l-22.3 2.3" />
	<path id="Layer" class="s6" d="m276.2 136.8l-22.9 3.5" />
	<path id="Layer" class="s6" d="m275.2 147.4l-22.5 3.9" />
	<path id="Layer" class="s3" d="m248.4 6h2.3v35.1h-2.2z" />
	<path id="Layer" class="s3" d="m235.4 47.3l-0.1-8.4l27.5 0.4l0.3 8.5z" />
	<path id="Layer" class="s5" d="m250.4 47.5v-8.2h12.4l0.3 8.5z" />
	<path id="Layer" class="s3" d="m219.5 61l6.7-7.7l26.1-0.4v7.8z" />
	<path id="Layer" class="s5" d="m252.3 52.9l19.7 0.7l5.8 7.4l-25.5-0.3z" />
	<path id="Layer" class="s3" d="m226.2 53.3v-5.8l26.1-0.2v5.6z" />
	<path id="Layer" class="s5" d="m252.3 47.3l19.7 0.6v5.7l-19.7-0.7z" />
	<path id="Layer" class="s7" d="m351.4 207.1l19.5 4.4l1.5-38.6l15.2-6.9l21 4.9l-0.9 62.7l11.2 1.9l-1 103.3l-55.3-17.6l-44.5-13.2z" />
	<path id="Layer" class="s3" d="m274 118.7l17.9-4.8l57.1 4.5l-18.5 5.1z" />
	<path id="Layer" class="s5" d="m330.5 123.5l18.5-5.1l-1.6 90.3l-18.5 8.7z" />
	<path id="Layer" class="s3" d="m274 118.7l56.5 4.8l-1.6 93.9l-55.2-11.9z" />
	<path id="Layer" class="s8" d="m321.4 145.3l-42.1-4.1v-17.4l42.1 4z" />
	<path id="Layer" class="s3" d="m263.9 166.8l23.5-9.2l34.7 4.1l-21.8 9.6l-36.4-4.6z" />
	<path id="Layer" class="s9" d="m270.7 166.2l18-7l26.7 3.2l-16.8 7.3z" />
	<path id="Layer" class="s3" d="m263.9 166.8l36.4 4.5l-1.9 78.8l-35.4-9.6l0.9-73.8z" />
	<path id="Layer" class="s5" d="m300.3 171.3l21.8-9.6l-1.4 78.6l-22.3 9.8z" />
	<path id="Layer" class="s3" d="m177.2 261.7l-30.4-7.8l-2.9-89.1l30.2 5.5z" />
	<path id="Layer" class="s4" d="m146.1 197.3l27.3 6.6" />
	<path id="Layer" class="s4" d="m147.4 200.5l26.2 6.7" />
	<path id="Layer" class="s4" d="m147.7 217.6l26.2 6.7" />
	<path id="Layer" class="s4" d="m146.3 214.9l27.3 7.3" />
	<path id="Layer" class="s5" d="m174.1 170.3l24.9-7l1.1 79.2l-22.9 19.2l-3.1-91.5z" />
	<path id="Layer" class="s3" d="m143.8 164.8l34.6-8.1l20.6 6.6l-24.9 6.9z" />
	<path id="Layer" class="s10" d="m146.4 169.9l25.3 4.2l0.4 18.4l-25.1-4.8z" />
	<path id="Layer" class="s3" d="m180.3 131.8l34.2 4.7l1.8 133.6l-32.2-8.9z" />
	<path id="Layer" class="s4" d="m185 142.1l3.1 110.3" />
	<path id="Layer" class="s4" d="m184.8 135.5l0.1 3.3" />
	<path id="Layer" class="s4" d="m190.1 136.8l2.3 116.3" />
	<path id="Layer" class="s4" d="m195.4 138.1l1.7 116.6" />
	<path id="Layer" class="s4" d="m200.6 138.7l1.6 116.5" />
	<path id="Layer" class="s4" d="m206.1 140.4l1.5 117.1" />
	<path id="Layer" class="s4" d="m211.8 158.6l1.2 99.2" />
	<path id="Layer" class="s4" d="m211.6 140.6l0.1 13.3" />
	<path id="Layer" class="s7" d="m245.1 129.5l36.8 82v77.4l-41.5-17.1z" />
	<path id="Layer" class="s6" d="m264.2 180.5v24.3" />
	<path id="Layer" class="s5" d="m214.5 136.5l30.6-7v148.1l-29.4-7.4z" />
	<path id="Layer" class="s6" d="m239 142.7l0.9 122.7" />
	<path id="Layer" class="s6" d="m238.9 135.2v3.6" />
	<path id="Layer" class="s6" d="m233.6 137l1.1 127.7" />
	<path id="Layer" class="s6" d="m228.4 138.2l0.8 126.5" />
	<path id="Layer" class="s6" d="m222.9 140.5l0.9 121.5" />
	<path id="Layer" class="s6" d="m217.4 141.2l1.5 119.5" />
	<path id="Layer" class="s3" d="m180.3 131.8l33.4-5.8l31.4 3.5l-30.6 7z" />
	<path id="Layer" class="s9" d="m187.1 131.7l26.4-4.6l24.9 2.8l-24.3 5.5z" />
	<path id="Layer" class="s8" d="m216.6 159.2l27.4-8.1v16.5l-27.4 9z" />
	<path id="Layer" class="s3" d="m275.4 200.5l35.7 5.5l-24.7 16.8l-42-8.7z" />
	<path id="Layer" class="s9" d="m275.7 202.1l30.8 4.6l-21.3 14.6l-36.2-7.5z" />
	<path id="Layer" class="s3" d="m244.4 214.1l42 8.7l-0.5 64.9l-40.8-10.1z" />
	<path id="Layer" class="s7" d="m250.9 269l-0.4-10.6l24.1 6.4v10.6z" />
	<path id="Layer" class="s10" d="m247.8 223.1l28.3 6.2l0.4 20.6l-28-6.8z" />
	<path id="Layer" class="s3" d="m286.7 186.9l44.6 7.8l-3.1 104.6l-42.3-11.6z" />
	<path id="Layer" class="s4" d="m292.2 191.5l-1 87.8" />
	<path id="Layer" class="s4" d="m297.8 192.9l-0.6 88.9" />
	<path id="Layer" class="s4" d="m305 194.8l-0.3 89.8" />
	<path id="Layer" class="s4" d="m313.3 196.5l-0.8 90.6" />
	<path id="Layer" class="s4" d="m322.8 198.1l-2.5 90.8" />
	<path id="Layer" class="s3" d="m331.3 194.7l-44.6-7.8l25.6-12l42.7 6.2z" />
	<path id="Layer" class="s9" d="m329.2 192.7l-35.7-6.2l20.5-9.6l34.1 5z" />
	<path id="Layer" class="s5" d="m355 181.1l-3.9 121.2l-22.9-3l3.1-104.6z" />
	<path id="Layer" class="s6" d="m335.9 197.4l-2.5 97.8" />
	<path id="Layer" class="s6" d="m342.2 193.1l-2.2 96.5" />
	<path id="Layer" class="s6" d="m348.9 188.4l-1.7 99" />
	<path id="Layer" class="s10" d="m297.4 212.8l8.1 3.7l-0.7 25.9l-16.2-3.7l-0.3 4.3l-10.3-9l10.6-8.7l-0.9 5.9l9.7 1.5z" />
	<path id="Layer" class="s3" d="m290.5 238.1c0 0.5-0.3 0.9-0.7 1.1c-0.5 0.2-1 0.1-1.3-0.3c-0.4-0.3-0.5-0.8-0.3-1.3c0.2-0.4 0.6-0.7 1.1-0.7q0.3 0 0.5 0.1q0.2 0.1 0.4 0.2q0.1 0.2 0.2 0.4q0.1 0.2 0.1 0.5z" />
	<path id="Layer" class="s3" d="m294.2 240.5c-0.7 0-1.2-0.5-1.2-1.2c0-0.6 0.5-1.2 1.2-1.2c0.6 0 1.2 0.6 1.2 1.2c0 0.7-0.6 1.2-1.2 1.2z" />
	<path id="Layer" class="s3" d="m300.2 240.6c0 0.4-0.2 0.9-0.7 1.1c-0.4 0.1-1 0-1.3-0.3c-0.3-0.3-0.4-0.9-0.2-1.3c0.1-0.4 0.6-0.7 1-0.7q0.3 0 0.5 0.1q0.2 0.1 0.4 0.2q0.2 0.2 0.2 0.4q0.1 0.2 0.1 0.5z" />
	<path id="Layer" class="s3" d="m305.1 241.8c0 0.5-0.3 0.9-0.7 1.1c-0.5 0.2-1 0.1-1.3-0.2c-0.4-0.4-0.5-0.9-0.3-1.3c0.2-0.5 0.6-0.8 1.1-0.8q0.3 0 0.5 0.1q0.2 0.1 0.4 0.3q0.1 0.1 0.2 0.4q0.1 0.2 0.1 0.4z" />
	<path id="Layer" class="s3" d="m305.7 235.8c0 0.5-0.3 0.9-0.8 1.1c-0.4 0.2-0.9 0.1-1.3-0.2c-0.3-0.4-0.4-0.9-0.2-1.3c0.2-0.5 0.6-0.8 1.1-0.8q0.2 0 0.4 0.1q0.3 0.1 0.4 0.3q0.2 0.1 0.3 0.4q0.1 0.2 0.1 0.4z" />
	<path id="Layer" class="s3" d="m305.9 229.1c0 0.5-0.3 0.9-0.7 1.1c-0.5 0.2-1 0.1-1.3-0.2c-0.4-0.4-0.5-0.9-0.3-1.3c0.2-0.5 0.6-0.8 1.1-0.8q0.2 0 0.5 0.1q0.2 0.1 0.4 0.3q0.1 0.2 0.2 0.4q0.1 0.2 0.1 0.4z" />
	<path id="Layer" class="s3" d="m306.2 222.5c0 0.5-0.2 0.9-0.7 1.1c-0.4 0.2-1 0.1-1.3-0.2c-0.3-0.4-0.4-0.9-0.2-1.3c0.1-0.5 0.6-0.8 1-0.8q0.3 0 0.5 0.1q0.2 0.1 0.4 0.3q0.2 0.1 0.2 0.4q0.1 0.2 0.1 0.4z" />
	<path id="Layer" class="s3" d="m306.1 217.1c0 0.5-0.3 0.9-0.7 1.1c-0.5 0.2-1 0.1-1.3-0.2c-0.4-0.4-0.5-0.9-0.3-1.3c0.2-0.5 0.7-0.8 1.1-0.8q0.3 0 0.5 0.1q0.2 0.1 0.4 0.3q0.1 0.2 0.2 0.4q0.1 0.2 0.1 0.4z" />
	<path id="Layer" class="s3" d="m302.7 214.8c0 0.4-0.3 0.9-0.7 1.1c-0.4 0.1-1 0-1.3-0.3c-0.3-0.3-0.4-0.8-0.3-1.3c0.2-0.4 0.7-0.7 1.1-0.7q0.3 0 0.5 0.1q0.2 0 0.4 0.2q0.1 0.2 0.2 0.4q0.1 0.2 0.1 0.4z" />
	<path id="Layer" class="s3" d="m297.6 214c-0.6 0-1.2-0.5-1.2-1.2c0-0.6 0.6-1.2 1.2-1.2c0.7 0 1.2 0.6 1.2 1.2c0 0.7-0.5 1.2-1.2 1.2z" />
	<path id="Layer" class="s3" d="m298.5 219.3c0 0.5-0.3 0.9-0.7 1.1c-0.5 0.2-1 0.1-1.3-0.2c-0.4-0.4-0.5-0.9-0.3-1.3c0.2-0.5 0.6-0.8 1.1-0.8q0.2 0 0.5 0.1q0.2 0.1 0.3 0.3q0.2 0.1 0.3 0.4q0.1 0.2 0.1 0.4z" />
	<path id="Layer" class="s3" d="m298.1 225.8c0 0.5-0.2 0.9-0.7 1.1c-0.4 0.2-0.9 0.1-1.3-0.2c-0.3-0.4-0.4-0.9-0.2-1.3c0.1-0.5 0.6-0.8 1.1-0.8q0.2 0 0.4 0.1q0.2 0.1 0.4 0.3q0.2 0.1 0.3 0.4q0.1 0.2 0 0.4z" />
	<path id="Layer" class="s3" d="m297.8 232.3c0 0.5-0.3 0.9-0.7 1.1c-0.5 0.2-1 0.1-1.3-0.3c-0.4-0.3-0.5-0.8-0.3-1.3c0.2-0.4 0.6-0.7 1.1-0.7q0.3 0 0.5 0.1q0.2 0.1 0.4 0.2q0.1 0.2 0.2 0.4q0.1 0.3 0.1 0.5z" />
	<path id="Layer" class="s3" d="m289.4 231.3c0 0.5-0.2 0.9-0.7 1.1c-0.4 0.2-0.9 0.1-1.3-0.3c-0.3-0.3-0.4-0.8-0.3-1.3c0.2-0.4 0.7-0.7 1.2-0.7q0.2 0 0.4 0.1q0.2 0.1 0.4 0.2q0.2 0.2 0.2 0.4q0.1 0.2 0.1 0.5z" />
	<path id="Layer" class="s3" d="m289.7 225.5c0 0.5-0.3 0.9-0.8 1.1c-0.4 0.2-0.9 0.1-1.3-0.3c-0.3-0.3-0.4-0.8-0.2-1.3c0.2-0.4 0.6-0.7 1.1-0.7q0.2 0 0.4 0.1q0.3 0.1 0.4 0.3q0.2 0.1 0.3 0.3q0.1 0.3 0.1 0.5z" />
	<path id="Layer" class="s3" d="m279.6 233.9c0 0.5-0.2 0.9-0.7 1.1c-0.4 0.2-1 0.1-1.3-0.3c-0.3-0.3-0.4-0.8-0.2-1.3c0.1-0.4 0.6-0.7 1-0.7q0.3 0 0.5 0.1q0.2 0.1 0.4 0.2q0.2 0.2 0.2 0.4q0.1 0.2 0.1 0.5z" />
	<path id="Layer" class="s3" d="m289.5 243.8c0 0.5-0.3 1-0.7 1.1c-0.5 0.2-1 0.1-1.3-0.2c-0.4-0.4-0.5-0.9-0.3-1.3c0.2-0.5 0.6-0.7 1.1-0.7q0.2 0 0.5 0q0.2 0.1 0.3 0.3q0.2 0.2 0.3 0.4q0.1 0.2 0.1 0.4z" />
	<path id="Layer" class="s3" d="m283.4 238.1c0 0.5-0.3 0.9-0.8 1.1c-0.4 0.2-0.9 0.1-1.3-0.3c-0.3-0.3-0.4-0.8-0.2-1.3c0.2-0.4 0.6-0.7 1.1-0.7q0.2 0 0.4 0.1q0.3 0.1 0.4 0.2q0.2 0.2 0.3 0.4q0.1 0.2 0.1 0.5z" />
	<path id="Layer" class="s3" d="m284.2 229.9c0 0.5-0.3 0.9-0.8 1.1c-0.4 0.2-0.9 0.1-1.3-0.2c-0.3-0.4-0.4-0.9-0.2-1.3c0.2-0.5 0.6-0.8 1.1-0.8q0.2 0 0.4 0.1q0.3 0.1 0.4 0.3q0.2 0.1 0.3 0.4q0.1 0.2 0.1 0.4z" />
	<path id="Layer" class="s3" d="m31.2 267.8l90.5-40.4l255.7 71.8l-52.8 40" />
	<path id="Layer" class="s3" d="m50.6 272.9l73.3-32.8l207.2 58.3l-42.8 32.4" />
	<path id="Layer" class="s7" d="m127.1 241.3l204 57.1l-9.5 6.8l-197.7-55.9v-9.2" />
	<path id="Layer" class="s11" d="m50.6 282.1l73.3-32.8l197.2 55.4" />
	<path id="Layer" class="s7" d="m430.3 338.8h-105.1l52.2-39.6z" />
	<path id="Layer" class="s0" d="m109.3 303c-19.8 0-35.8-7.4-35.8-16.5c0-9.1 16-16.5 35.8-16.5c19.7 0 35.7 7.4 35.7 16.5c0 9.1-16 16.5-35.7 16.5z" />
	<path id="Layer" class="s12" d="m109.3 303c-19.8 0-35.8-7.4-35.8-16.5c0-9.1 16-16.5 35.8-16.5c19.7 0 35.7 7.4 35.7 16.5c0 9.1-16 16.5-35.7 16.5z" />
	<path id="Layer" class="s3" d="m118 88.2c0 0 2.5 6 2 9c-0.5 3-7.2 5.5-8.2 6c-1 0.5-6.3-1.7-6.3-7.5c0-5.7 9.5-12.2 12.5-7.5z" />
	<path id="Layer" class="s7" d="m115.1 72l14-1.6q1-0.1 2 0.1q0.9 0.3 1.7 1q0.8 0.6 1.3 1.5q0.5 0.9 0.6 1.9q0 1-0.3 2q-0.3 0.9-1 1.7q-0.7 0.8-1.6 1.2q-1 0.4-2 0.5l-13 0.2z" />
	<path id="Layer" class="s3" d="m116.7 69c0 0 3-1 5 0c2 1 3.8 2.5 3.5 3.5c-0.2 1-1.7 0.8-3.7 1c-2 0.3-4.2 1.6-4.6 0.6c-0.4-1.1-0.2-5.1-0.2-5.1z" />
	<path id="Layer" class="s7" d="m124.1 73.3l14.2-0.3q1 0 1.9 0.3q0.9 0.4 1.7 1.1q0.7 0.7 1.1 1.6q0.3 1 0.4 2q-0.1 1-0.5 2q-0.4 0.9-1.1 1.6q-0.8 0.7-1.8 1.1q-0.9 0.3-2 0.3l-13-0.9z" />
	<path id="Layer" class="s7" d="m118.7 73.3l7.2 0.2q0.3 0.3 0.6 0.6q0.3 0.3 0.5 0.7q0.2 0.4 0.3 0.8q0.1 0.5 0.2 0.9q0 0.6-0.1 1.3q0 0.6-0.1 1.3q-0.1 0.6-0.2 1.3q-0.1 0.6-0.3 1.2h-7.7q-0.4-0.3-0.7-0.6q-0.3-0.4-0.6-0.8q-0.3-0.4-0.5-0.9q-0.3-0.4-0.4-0.9c-0.6-2 1.8-5.1 1.8-5.1z" />
	<path id="Layer" class="s7" d="m116 105.9c0 0 9.1 1.1 13.7 1.6c4.7 0.4 15.2-5.5 21.1-7c7-1.9 10.7 2.1 12.5 4.5c1.9 2.5 14.7 11.3 14.7 11.3l2.4 6.7l-10.3 3.4c0 0-4-4.9-10.1-12.5c-6.1-7.7-8.8-11.5-13.7-8.5c-4.9 3-12 8.5-17.5 7.3c-5.5-1.3-12.8-6.8-12.8-6.8z" />
	<path id="Layer" class="s10" d="m120 279.3l0.7 0.2l14.8 4.8c0 0 1.9 1.1 1.3 2.7c-0.5 1.6-16 3.5-22.1 3.5c-6.2 0-10.2-0.5-10.2-3c0-2.4 15.5-8.2 15.5-8.2z" />
	<path id="Layer" class="s3" d="m114.7 290.5c-5.6 0-9.3-0.5-10-2.3q1.7 0.1 3.4 0.1q1.8 0 3.5 0q1.8-0.1 3.5-0.2q1.7-0.1 3.5-0.2q2.2-0.1 4.5-0.3q2.2-0.3 4.5-0.6q2.2-0.4 4.4-0.9q2.2-0.4 4.4-1q0.2 0.2 0.3 0.4q0.1 0.2 0.2 0.5q0 0.2 0 0.5q0 0.2 0 0.5c-0.6 1.6-16.1 3.5-22.2 3.5z" />
	<path id="Layer" class="s10" d="m93 270.2c0 0 7.8-3.2 9.1-0.6c1.4 2.7-1.8 6.7-3.7 7.5c-1.9 0.8-3.2 1.4-4.3 2.7c-1 1.3-4.3 4.6-7.7 4c-3.5-0.5-3.5-5.1-3.2-5.9c0.2-0.8 9.8-7.7 9.8-7.7z" />
	<path id="Layer" class="s3" d="m101.6 269.1q0.2 0.1 0.2 0.2q0.1 0.1 0.2 0.2q0.1 0.1 0.1 0.2c1.4 2.7-1.8 6.7-3.7 7.5c-1.9 0.8-3.2 1.3-4.3 2.7c-1 1.3-4.3 4.5-7.7 4q-0.4-0.1-0.8-0.2q-0.3-0.2-0.6-0.4q-0.4-0.2-0.6-0.5q-0.3-0.2-0.5-0.6l0.3-0.2q1 0.2 2 0.1q1.1-0.1 2-0.4q1-0.3 1.8-0.9q0.9-0.6 1.5-1.4c2.9-3.5 4.3-3.2 7.5-5c1.6-0.9 2.2-3.2 2.4-5.4q0.1 0.1 0.2 0.1z" />
	<path id="Layer" class="s7" d="m121.4 161.9c0 0 4.2 39.3 2.4 53.7c-1.9 14.4-3.8 56.9-3.8 56.9c0 0 1.1 4.3 0 6.7c-1 2.4-11.2 9.3-12.5 9.3q-0.5 0-1-0.2q-0.5-0.1-1-0.3q-0.4-0.1-0.9-0.3q-0.4-0.3-0.9-0.5c0 0-1.3-27.8-2.1-35.3c-0.8-7.4 1.1-15.7 1.6-20c0.5-4.2-1.6-20-1.6-20c0 0-2.4 19.3-3.2 23.5c-0.8 4.3-2.9 32.4-3.5 34.8c-0.5 2.4-2.1 10.4-4.5 11.5c-2.4 1-5.4 0.7-6.2 0.2c-0.8-0.4-1.8-3.7-2.4-7.4c-0.5-3.8 1.1-28.1-0.8-34.8c-1.8-6.7 2.7-17 3.8-26.4c1-9.4 4-27.3 3.7-29.4c-0.3-2.2-0.5-8.6-2.1-12.6c-1.6-4 0.5-12.8 0.5-12.8c13.4 8.3 34.5 3.4 34.5 3.4z" />
	<path id="Layer" class="s13" d="m92 179.1l5.9 10.1l3.4 19.5" />
	<path id="Layer" class="s3" d="m119 67q0.2 0.6 0.4 1.3q0.2 0.7 0.4 1.3q0.1 0.7 0.3 1.4q0.1 0.6 0.2 1.3c0 1.8-1 3-0.8 4.3c0.2 1.3 2.3 3.3 0.5 6.6c-1.8 3.2-0.3 8-2.8 9.1q-0.6 0.2-1.3 0.4q-0.6 0.1-1.3 0.3q-0.6 0.1-1.3 0.2q-0.7 0-1.4 0.1l-0.7 5.5l-12.7-4v-10.1c0 0 5.3 0.2 7.4-2.3c2-2.5 1.5-7.8 2.5-11.4c1-3.5 5-5.8 6.8-5.8c1.8 0 3.8 1.8 3.8 1.8z" />
	<path id="Layer" class="s7" d="m122.6 62.4q-0.2 0.8-0.5 1.4q-0.4 0.7-0.8 1.3q-0.5 0.6-1.1 1.1q-0.5 0.4-1.2 0.8c-2.5 1.5-5.8 1-5.8 2.3c0 1.3 2.3 1 1.5 4.3q-0.2 0.7-0.5 1.4q-0.2 0.8-0.6 1.4q-0.4 0.7-0.9 1.3q-0.4 0.6-1 1.2c-0.4 0.3 2.3 2.8 0 3.3c-2.3 0.5-2.8 3.7-5.6 4.5c-2.7 0.8-5.3 2.8-7.5 0.8c-2.3-2.1-9.6-10.4-10.6-15.9c-1-5.6 4.5-11.4 4.5-11.4c0 0-0.2-3.3 1.8-4.6c2-1.2 7.4-1.7 7.9-3.7c2.1-8.4 16.7-0.5 19.3 4q0.4 0.7 0.7 1.5q0.3 0.8 0.5 1.6q0.1 0.9 0.1 1.7q0 0.9-0.2 1.7z" />
	<path id="Layer" class="s14" d="m97.5 79.5c3.8-0.9 1.9-6.3 4.5-9.7c2.6-3.4 9.8-2 13-3.8q0.7-0.4 1.3-1q0.5-0.6 0.9-1.3q0.4-0.7 0.6-1.5q0.2-0.8 0.2-1.6" />
	<path id="Layer" class="s14" d="m101.1 83.6c4.3-1.2 5.1-6.3 6.5-8.4c1.4-2.2 4.9-3.3 4.9-3.3" />
	<path id="Layer" class="s3" d="m111.4 85.7c0 0-1.8 1.8-3.3 0.5c-1.5-1.3-3.8-5.8-1-7.3c2.8-1.5 4.8 4.5 4.8 4.5" />
	<path id="Layer" class="s10" d="m111.4 100.6q1.5 0.7 2.8 1.7q1.3 0.9 2.4 2.1q1.1 1.1 2.1 2.5q0.9 1.3 1.6 2.8c2 4.5 2.2 28 2.2 31.3c0 3.3 0.3 18.7 0.3 19.9c0 1.3-1.8 4.1-5.1 5.1c-3.3 1-11.8 1.7-17.4 1.2c-5.5-0.5-11.3-3-13.1-6c-1.8-3.1 0.5-13.9-0.5-20.5c-1-6.5-4.9-31.2-1.9-36.5q0.7-1.2 1.6-2.4q0.8-1.1 1.8-2.2q1-1.1 2-2q1.1-1 2.3-1.8c4.5-2.3 15.9 3.3 18.9 4.8z" />
	<path id="Layer" class="s15" d="m114.9 125.8c0 0-2.7 2.4-10.3 3.4" />
	<path id="Layer" class="s15" d="m109.4 136.3q-0.2 0.3-0.5 0.6q-0.3 0.2-0.6 0.5q-0.3 0.2-0.6 0.5q-0.3 0.2-0.7 0.4" />
	<path id="Layer" class="s15" d="m115.9 125.8q-0.5 1.1-1 2.2q-0.5 1-1.1 2.1q-0.5 1-1.2 2q-0.6 1-1.3 2" />
	<path id="Layer" class="s11" d="m114.1 156.7c-7.1 7.6-19.7 7.6-17.9 7.3q2.7-0.4 5.3-1.3q2.6-1 5-2.4q2.3-1.4 4.4-3.2q2.1-1.9 3.7-4" />
	<path id="Layer" class="s10" d="m94.8 91.5c0 0 7.3 0.5 12.1 3.3c4.8 2.7 8.1 5.5 9.8 6c1.8 0.5 5.1 0.8 4 1c-1 0.3-2.3 0.5-4.8 1.3c-2.5 0.7-6-0.8-11.3-3.3c-5.3-2.5-11.1-4-12.2-4c-1 0 0.3-4.3 2.4-4.3z" />
	<path id="Layer" class="s11" d="m137.7 116.7c0 0 8.4 5.7 9.6 9.8" />
	<path id="Layer" class="s3" d="m137.2 107.7l-8.9-20.7q-0.4-0.5-0.8-0.9q-0.5-0.5-0.9-0.9q-0.5-0.4-1-0.8q-0.5-0.3-1-0.7q-0.4-0.1-0.6-0.4q-0.3-0.3-0.3-0.7q-0.1-0.4 0-0.8q0.1-0.3 0.3-0.6c0.2-0.2 2.6 0.5 2.6-0.5q0-0.6-0.1-1.3q0-0.6-0.1-1.2q0-0.6-0.1-1.3q-0.1-0.6-0.2-1.2c-0.3-0.8-1-1.3-1-2c0-0.7 1.7-1.8 3.8-1.3c2 0.5 1.6 0.2 1.6 0.2c2.9-0.6 3.5 0 4.9 2.6q0.4 0.7 0.6 1.5q0.3 0.8 0.4 1.6q0.2 0.8 0.2 1.6q0.1 0.8 0.1 1.6c0 1.3-1.5 5.1-1.5 5.1l10.8 21z" />
	<path id="Layer" class="s10" d="m138.2 113.5c0 0-3.3 0-3-0.8c0.3-0.8-0.8-3.5-0.8-4.8c0-1.3 2.3-2.8 5-3.3c2.8-0.5 5.8 0.5 6.9 0.8c1 0.2 1.2 2.3 2 3.5c0.7 1.3 1.2 2.8 0.7 3.8q-0.2 0.3-0.4 0.5q-0.2 0.2-0.5 0.4q-0.2 0.2-0.5 0.4q-0.3 0.1-0.6 0.2z" />
	<path id="Layer" class="s10" d="m101.8 109.7c0 0 1.8-6.1 5.3-7.3c3.6-1.3 7.9 0.5 12.2 3.2c4.2 2.8 18.4 11.1 18.4 11.1l-1.5-6c0 0 9.1-2.8 11.3 1.5c2.3 4.3 3.8 19.9 3.8 22c0 2-5.3 3.8-8.6 3.5c-3.2-0.2-32.3-14.6-32.3-14.6" />
	<path id="Layer" class="s11" d="m141.4 118.2q1 0.2 1.9 0.7q0.9 0.4 1.8 1q0.8 0.5 1.5 1.2q0.8 0.7 1.4 1.5" />
</svg>