<svg version="1.2" xmlns="http://www.w3.org/2000/svg" viewBox="0 0 675 647" width="400" height="375">
	<title>undraw_messenger_re_8bky-svg</title>
	<style>
		.s0 { fill: #f2f2f2 } 
		.s1 { fill: #e6e6e6 } 
		.s2 { fill: #cccccc } 
		.s3 { fill: #ffffff } 
		.s4 { fill: #287bff } 
		.s5 { fill: #3f3d56 } 
		.s6 { fill: #ffb6b6 } 
		.s7 { fill: #f0f0f0 } 
		.s8 { fill: #2f2e41 } 
		.s9 { opacity: .2;fill: #000000 } 
		.s10 { fill: #ffb8b8 } 
	</style>
	<path id="Layer" class="s0" d="m8.6 219c5.7-22.9 14.2-45 25.2-65.8c11.1-20.9 24.7-40.3 40.5-57.8c15.8-17.5 33.7-33 53.3-46.2q2-1.3 4-2.6q1-0.7 2-1.3q11.1-7.1 22.8-13.1q11.7-6.1 23.9-11.1q12.2-4.9 24.8-8.7q12.7-3.9 25.6-6.5q2.9-0.6 5.9-1.2q14.2-2.6 28.6-3.7q14.4-1.2 28.9-1q14.4 0.3 28.8 2q14.3 1.7 28.4 4.7q3 0.7 6 1.4q13 3.2 25.7 7.5q12.7 4.4 24.9 9.9q12.2 5.5 23.8 12.1q11.7 6.7 22.7 14.4q0.5 0.3 1 0.7q2.5 1.7 4.9 3.5c71.4 52.7 213.8 127.6 213.8 223.1c0 71-121.7 145.7-164.2 196q-2.3 2.8-4.7 5.5q-8.7 9.7-18.2 18.7q-9.5 8.9-19.8 17q-10.2 8-21.2 15.1q-10.9 7.1-22.5 13.2q-0.8 0.5-1.6 0.9q-1.9 1-3.9 2q-8.7 4.3-17.7 8.1q-4.2 1.8-8.6 3.4q-4.3 1.6-8.7 3.2q-4.3 1.5-8.8 2.8q-4.4 1.4-8.9 2.6q-3.3 0.9-6.8 1.8q-8.5 2.1-17.1 3.7q-8.7 1.5-17.4 2.6q-8.7 1.1-17.5 1.6q-8.7 0.5-17.5 0.5q-1.9 0-3.7 0q-0.6 0-1.2 0q-1.6-0.1-3.4-0.1q-8.3-0.2-16.6-1q-8.3-0.7-16.6-1.9q-8.2-1.1-16.4-2.8q-8.2-1.7-16.2-3.8q-2.6-0.7-5.1-1.4q-6.2-1.7-12.2-3.8q-6.1-2-12-4.3q-6-2.2-11.8-4.8q-5.8-2.5-11.6-5.3q-1.1-0.6-2.2-1.1q-0.9-0.5-1.8-0.9q-9.1-4.6-17.7-9.8q-9.5-5.7-18.4-12.1q-9-6.3-17.5-13.4q-8.5-7-16.4-14.7q-7.9-7.6-15.2-15.8q-2.5-2.8-4.9-5.7c-10.9-12.9-20.7-26.7-29.2-41.3c-8.4-14.6-15.6-29.9-21.4-45.8c-5.8-15.8-10.2-32.2-13.1-48.8c-3-16.7-4.4-33.5-4.4-50.4c0-23.6 2.9-47.1 8.6-70z" />
	<path id="Layer" class="s1" d="m381.1 174.5l1.4-19.9l4.7-64.5l0.4-6l4.8-65.1q8.2 3.2 16.2 6.8q8 3.7 15.8 7.8q7.7 4.1 15.3 8.7q7.5 4.6 14.7 9.7q0.5 0.3 1 0.7v394.1l-1-0.1l-90.1-8q-0.5 0-0.9-0.2q-0.4-0.3-0.7-0.6q-0.3-0.4-0.4-0.8q-0.2-0.4-0.1-0.9c0 0 18.9-261.7 18.9-261.7z" />
	<path id="Layer" class="s1" d="m148.1 36.6q7.4-4.1 15-7.8q7.6-3.7 15.4-6.9q7.9-3.3 15.8-6l5 68.2l0.4 6l4.7 64.6l1.4 19.8l19 261.7l0.1 2.3l-91.3 8.1l-2 0.2v-400.2q1-0.7 2-1.3q7.1-4.5 14.5-8.7z" />
	<path id="Layer" class="s1" d="m133.6 45.3v407c0 7.8 5.4 14.1 12 14.1h296.8c5.5 0 10.1-4.3 11.5-10.3q0.1-0.5 0.2-0.9q0.1-0.5 0.2-1q0-0.5 0-1q0.1-0.5 0.1-0.9v-400.3q0.5 0.3 1 0.7q2.5 1.7 4.9 3.5v396.1q0.1 2.2-0.3 4.3q-0.4 2.2-1.2 4.3q-0.8 2-2 3.9q-1.2 1.9-2.7 3.5q-0.8 0.8-1.7 1.5q-0.8 0.7-1.8 1.3q-1 0.6-2.1 1.1q-1 0.4-2.1 0.7q-0.5 0.2-1 0.3q-0.5 0.1-1 0.1q-0.5 0.1-1 0.1q-0.5 0.1-1 0h-296.8q-0.5 0.1-1 0q-0.5 0-1-0.1q-0.5 0-1-0.1q-0.5-0.1-1-0.3c-8-2.1-14-10.6-14-20.6v-403.1q2-1.3 4-2.6q1-0.7 2-1.3z" />
	<path id="Layer" class="s1" d="m130.6 84.1h326.7v6h-326.7z" />
	<path id="Layer" class="s1" d="m357.3 168.5h-6v-161.8q3 0.7 6 1.4z" />
	<path id="Layer" class="s1" d="m236.6 168.5h-5.9v-162.6q2.9-0.6 5.9-1.2z" />
	<path id="Layer" class="s1" d="m68.6 452.8c1.3-3.3 3.3-6.2 5.8-8.7c2.5-2.5 5.4-4.5 8.7-5.8c3.2-1.4 6.7-2.1 10.3-2.1h391.3c7.1 0 13.9 2.8 18.9 7.9c5.1 5 7.9 11.8 7.9 18.9c0 7.1-2.8 14-7.9 19c-5 5-11.8 7.8-18.9 7.8h-391.3q-2.9 0-5.7-0.6q-2.8-0.6-5.4-1.7q-2.6-1.2-4.9-2.9q-2.3-1.7-4.2-3.9q-0.4-0.4-0.8-0.9q-0.4-0.6-0.8-1.1q-0.4-0.5-0.7-1q-0.4-0.6-0.7-1.1q-0.2-0.5-0.5-0.9q-0.2-0.4-0.4-0.9q-0.3-0.4-0.5-0.9q-0.2-0.4-0.3-0.9q-0.5-1.2-0.9-2.4q-0.3-1.2-0.6-2.5q-0.2-1.3-0.3-2.5q-0.2-1.3-0.2-2.6c0-3.5 0.7-7 2.1-10.2z" />
	<path id="Layer" class="s1" d="m455.4 174.5h-324.8v-19.9h324.8z" />
	<path id="Layer" class="s1" d="m306.9 159.6h-27.8c0-1.4 0.3-2.8 0.8-4.2c0.6-1.3 1.4-2.5 2.4-3.5c1-1 2.2-1.8 3.5-2.4c1.3-0.5 2.8-0.8 4.2-0.8h6c1.4 0 2.8 0.3 4.1 0.8c1.4 0.6 2.6 1.4 3.6 2.4c1 1 1.8 2.2 2.3 3.5c0.6 1.4 0.9 2.8 0.9 4.2c513.4 261.3 513.4 261.3 513.4 261.3z" />
	<path id="Layer" class="s2" d="m577.6 360.8h-83q-0.8-0.1-1.5-0.4q-0.8-0.3-1.4-0.8q-0.5-0.6-0.8-1.3q-0.3-0.8-0.3-1.6v-95.9c0-2 26.8-18.6 38.4-25.7q1.6-1 3.4-1.5q1.8-0.5 3.7-0.5q1.9 0 3.7 0.5q1.8 0.5 3.4 1.5c11.5 7.1 38.4 23.7 38.4 25.7v95.9q0 0.8-0.3 1.6q-0.3 0.7-0.9 1.3q-0.6 0.5-1.3 0.8q-0.7 0.3-1.5 0.4z" />
	<path id="Layer" class="s3" d="m586.8 245.8q0.1 0.6-0.1 1.2q-0.3 0.6-0.7 1.1q-0.4 0.5-1 0.8l-30.3 14.9l-10.2 5h-15.8l-2.4-5l-2.9-5.9l-8.3-16.9q-0.1-0.2-0.2-0.4q-0.1-0.2-0.1-0.4q0-0.2-0.1-0.4q0-0.2 0-0.4q0.1-0.5 0.2-0.9q0.1-0.4 0.4-0.8q0.2-0.3 0.5-0.6q0.3-0.3 0.7-0.5h0.1l50.2-24.7q0.1 0 0.2-0.1q0.1 0 0.2-0.1q0.1 0 0.2 0q0.2 0 0.3-0.1q0.1 0 0.2 0q0.2 0 0.3 0q0.1 0 0.3 0q0.1 0 0.3 0c0 0-0.3 0 0 0q0.4 0.1 0.7 0.2q0.4 0.2 0.7 0.4q0.3 0.2 0.6 0.5q0.3 0.3 0.4 0.7l15.3 31.1q0.3 0.6 0.3 1.3z" />
	<path id="Layer" fill-rule="evenodd" class="s4" d="m586.8 245.8q0.1 0.6-0.1 1.2q-0.3 0.6-0.7 1.1q-0.4 0.5-1 0.8l-30.3 14.9l-10.2 5h-15.8l-2.4-5l-2.9-5.9l-8.3-16.9q-0.1-0.2-0.2-0.4q-0.1-0.2-0.1-0.4q0-0.2-0.1-0.4q0-0.2 0-0.4q0.1-0.5 0.2-0.9q0.1-0.4 0.4-0.8q0.2-0.3 0.5-0.6q0.3-0.3 0.7-0.5h0.1l50.2-24.7q0.1 0 0.2-0.1q0.1 0 0.2-0.1q0.1 0 0.2 0q0.2 0 0.3-0.1q0.1 0 0.2 0q0.2 0 0.3 0q0.1 0 0.3 0q0.1 0 0.3 0q0 0 0 0q0 0 0 0q0.4 0.1 0.7 0.2q0.4 0.2 0.7 0.4q0.3 0.2 0.6 0.5q0.3 0.3 0.4 0.7l15.3 31.1q0.3 0.6 0.3 1.3zm-4 0.5q0.4-0.5 0.6-1q0.2-0.6 0.2-1.2q-0.1-0.6-0.3-1.1l-12.8-26.1l-1.2-2.5q-0.1-0.2-0.3-0.4q-0.2-0.1-0.4-0.2q-0.2 0-0.4 0q-0.2 0-0.4 0.1l-50.1 24.6h-0.1q-0.2 0.1-0.4 0.3q-0.1 0.1-0.2 0.3q-0.1 0.3 0 0.5q0 0.2 0.1 0.4l0.8 1.8l7.4 14.9l1.3 2.7q0.3 0.6 0.7 1.2q0.3 0.6 0.8 1.1q0.4 0.6 0.9 1.1q0.5 0.5 1 1q1.5 1.2 3.3 1.9q1.8 0.8 3.7 1.1q1.9 0.2 3.8-0.1q1.9-0.3 3.7-1.1c1.3-0.7 1.8-0.9 1.8-0.9c-0.1 0.1-0.6 0.3-0.8 0.5c0.2-0.1 0.9-0.5 2.3-1.2q0.3-0.1 0.6-0.2c13.9-6.9 28.2-14 33.5-16.8q0.6-0.2 0.9-0.7z" />
	<path id="Layer" class="s4" d="m532.5 253.3q-0.3 0.1-0.6 0q-0.2 0-0.5-0.1q-0.2-0.1-0.4-0.3l-15.3-13.1v-0.1v0.1q-0.4-0.3-0.5-0.7q-0.2-0.4-0.1-0.9q0-0.4 0.3-0.8q0.3-0.4 0.7-0.6l51.4-25.1q0 0 0.1 0q0.1-0.1 0.2-0.1q0 0 0.1 0q0.1 0 0.2-0.1q0.3 0 0.7 0.1q0.3 0.1 0.6 0.3q0.3 0.2 0.5 0.6q0.1 0.3 0.2 0.6l2.2 19.4q0 0.3-0.1 0.6q0 0.3-0.2 0.5q-0.1 0.3-0.3 0.5q-0.2 0.2-0.5 0.3l-38.2 18.8q-0.3 0.1-0.5 0.1z" />
	<path id="Layer" class="s5" d="m553.5 248.1c-2.3 1.1-5 0.2-6.1-2c-1.1-2.3-0.2-5 2.1-6.1c2.2-1.1 5-0.2 6.1 2.1c1.1 2.2 0.1 4.9-2.1 6z" />
	<path id="Layer" class="s6" d="m525.7 256.4c-1.1 1-2.4 1.6-3.9 2c-1.4 0.4-2.9 0.4-4.4 0.2c-1.4-0.3-2.8-0.9-4-1.8c-1.2-0.8-2.2-1.9-2.9-3.2l-44.9 16.1l-48.1-11.6l8.8-20.2l36.3 11.7l52.3-10.3c2.3-1.1 4.8-1.3 7.2-0.6c2.4 0.7 4.5 2.2 5.8 4.4c1.3 2.1 1.9 4.6 1.5 7c-0.4 2.5-1.7 4.7-3.7 6.3z" />
	<path id="Layer" class="s4" d="m370.2 238.3c-1.7-1.5-3.1-3.4-4-5.5c-0.9-2.1-1.4-4.3-1.3-6.6c0.1-2.3 0.7-4.5 1.8-6.5c1.1-2 2.6-3.7 4.5-5.1q1.6-1.1 3.5-1.8q1.9-0.7 3.9-0.9q1.9-0.2 3.9 0.1q2 0.4 3.8 1.2l55.7 26.2l15.2 8.6c1.5-1.8 4.7-4.1 8.6 0.3l-3.1 26.1q-1.4-0.1-2.6-0.5q-1.2-0.5-2.3-1.3q-1-0.9-1.7-2q-0.7-1.1-1-2.4c-12.6-0.1-60.1-17.1-68.8-19.6c-4.6-1.3-10.7-5.7-16.1-10.3z" />
	<path id="Layer" class="s1" d="m246.9 417.7q-0.1-0.4-0.1-0.8q0-0.4 0-0.8q0-0.4 0-0.8q0-0.3 0.1-0.6c0.7-6.6 5.5-12.2 10.6-16.5c5.2-4.3 11-8.1 14.9-13.6q0.4-0.6 0.8-1.2q0.3-0.6 0.7-1.3q0.3-0.6 0.6-1.3q0.3-0.7 0.5-1.3q0.2-0.4 0.3-0.8q0.1-0.4 0.2-0.8q0.1-0.4 0.2-0.8q0.1-0.4 0.2-0.8q0.3-1.4 0.3-2.7q0-1.4-0.3-2.8q-0.3-1.3-0.8-2.6q-0.6-1.2-1.4-2.4c-1.7-2.3-4.3-3.9-6.1-6.1c-1.9-2.2-2.8-5.7-1-8c1.7-2 4.9-1.9 7.5-1.6q8.9 0.9 17.9 1.7q0.9 0.2 1.9 0.2q4.3 0.5 8.6 0.9q3.5 0.4 7 0.7c4.7-2.7 11 3 10.9 8.6q0 0.6-0.1 1.2q-0.1 0.6-0.2 1.2q-0.1 0.5-0.3 1.1q-0.1 0.6-0.3 1.1c-1.4 3.5-3.9 6.6-6.4 9.5q-0.4 0.5-0.8 0.9q-0.9 1.1-1.9 2.3q-0.4 0.5-0.8 1c-2.7 3.6-4.8 7.7-4.4 12.1q0 0.2 0 0.5q0.1 0.2 0.1 0.5q0.1 0.3 0.1 0.5q0.1 0.3 0.2 0.5c1.8 6.4 8.8 10.4 14.9 13.5c3.8 1.9 7.8 4.2 10.7 7.2q0.3 0.4 0.6 0.8q0.4 0.3 0.7 0.7q0.3 0.4 0.5 0.9q0.3 0.4 0.6 0.8q0.4 0.6 0.7 1.3q0.2 0.7 0.5 1.4q0.2 0.7 0.3 1.5q0.1 0.7 0.1 1.4c0.1 5.7-4.3 10.6-9.5 12.9q0 0-0.1 0q0 0 0 0q0 0-0.1 0q0 0.1 0 0.1c-5.3 2.2-11.2 2.2-17 2.1q-10.9 0-21.8-0.1c-7.2-0.1-14.6-0.1-21.4-2.1q-0.6-0.2-1.2-0.4q-0.6-0.2-1.1-0.4q-0.6-0.2-1.2-0.4q-0.5-0.3-1.1-0.5q-0.5-0.2-1-0.5q-0.5-0.2-1-0.5q-0.4-0.3-0.9-0.6q-0.5-0.3-0.9-0.6c-5.2-3.4-9.2-8.7-10-14.6q0-0.4 0-0.8z" />
	<path id="Layer" class="s1" d="m287.6 356.6c4-4 7.5-8.3 10.5-13c2.9-4.7 5.4-9.8 7.3-15c1.8-5.3 3.1-10.7 3.8-16.2c0.6-5.6 0.7-11.2 0.1-16.7q-0.7-5.4-2-10.7q-1.4-5.3-3.6-10.3q-2.1-5.1-5-9.7q-2.8-4.7-6.3-8.9c-0.7-0.8 0.4-1.9 1.1-1.1q0.9 1.1 1.7 2.1q3.4 4.4 6.2 9.3q2.7 4.9 4.7 10.1q2.1 5.2 3.3 10.7q1.2 5.4 1.7 11q0.2 2.7 0.2 5.5q0 2.7-0.2 5.5q-0.2 2.7-0.6 5.5q-0.4 2.7-1 5.4q-0.6 2.6-1.4 5.2q-0.8 2.6-1.7 5.2q-1 2.5-2.1 5q-1.2 2.4-2.5 4.8q-1.3 2.4-2.8 4.7q-1.5 2.3-3.1 4.5q-1.7 2.2-3.5 4.2q-1.7 2.1-3.7 4c-0.7 0.7-1.8-0.4-1.1-1.1z" />
	<path id="Layer" class="s1" d="m293.9 257.8q0-0.1 0.1-0.1q0.2 0.1 0.4 0.2q0.2 0.1 0.5 0.2q0.2 0.1 0.5 0.2q0.2 0.1 0.4 0.2z" />
	<path id="Layer" class="s1" d="m297 255.6q-0.2 0.4-0.4 0.7q-0.2 0.4-0.4 0.7q-0.3 0.4-0.5 0.7q-0.2 0.4-0.5 0.7q-0.1 0.3-0.4 0.5q-0.3 0.2-0.6 0.2q-0.4 0.1-0.7 0q-0.3-0.1-0.6-0.3q-0.7-0.3-1.3-0.7q-0.6-0.4-1.2-0.8q-0.6-0.4-1.1-0.9q-0.6-0.5-1.1-1q-1.2-1-2.1-2.2q-1-1.2-1.8-2.6q-0.7-1.3-1.3-2.7q-0.5-1.5-0.8-3q0 0-0.1-0.1q0 0 0-0.1q0 0 0-0.1q0 0 0-0.1q0-0.3 0.1-0.6q0.1-0.2 0.4-0.4q0.2-0.3 0.4-0.4q0.3-0.1 0.6-0.1q0.1 0 0.2 0q0 0 0.1 0q0.1 0 0.1 0.1q0.1 0 0.1 0q0.1 0 0.2 0c0.7 0.1 1.7 0.2 1.9-0.6c0-0.6-0.6-1.1-0.9-1.5q-0.8-1-1.5-1.9q-0.2-0.2-0.3-0.4q-0.1-0.2-0.1-0.5q-0.1-0.2 0-0.5q0-0.2 0.1-0.4q0.9-1.3 2.2-2.2q1.3-0.9 2.8-1.3q1.6-0.4 3.1-0.1q1.6 0.2 3 0.9c3.4 1.8 5.2 5.4 5.6 9.2c0.4 4.2-1.2 8.2-3.2 11.8z" />
	<path id="Layer" class="s1" d="m325.5 251.9q0.2 0.2 0.4 0.4q0.1 0.2 0.2 0.4q0.1 0.2 0.1 0.5c-0.3 2.8-1 5.6-2 8.3c-1 2.7-2.4 5.2-4 7.6c-1.6 2.3-3.6 4.4-5.7 6.3c-2.2 1.9-4.6 3.4-7.2 4.7q-0.3 0.2-0.7 0.2q-0.4 0-0.8-0.2q-0.3-0.2-0.5-0.6q-0.2-0.3-0.2-0.7q-0.3-3.3-0.5-6.6q-0.8-1.5-1.4-3q-0.5-1.5-0.8-3.1q-0.3-1.6-0.3-3.3q-0.1-1.6 0.1-3.2q0.3-1.5 0.7-2.9q0.4-1.4 0.9-2.8q0.6-1.3 1.4-2.6q0.7-1.3 1.6-2.4c1.2-1.7 2.5-3.3 3.8-4.9q0.4-0.5 0.8-1q0.4-0.5 0.8-1q0.5-0.5 0.9-0.9q0.5-0.5 1-0.9q0.9-0.5 1.9-0.8q0.9-0.3 1.9-0.4q1.1 0 2.1 0.2q1 0.2 1.9 0.7c2.7 1.3 3.9 3.9 4.2 6.7q0 0.2 0 0.4q-0.1 0.2-0.2 0.4q-0.1 0.1-0.2 0.3q-0.1 0.1-0.3 0.2q-0.6 0.4-1.1 0.7q-0.6 0.4-1.1 0.8q-0.5 0.4-1 0.8q-0.5 0.5-1 0.9q1.9 0.3 3.9 0.6q0.2 0.1 0.4 0.2z" />
	<path id="Layer" class="s1" d="m310.6 314.3l0.1-0.4q0-0.3 0-0.7q0-0.5 0-0.9q0.1-0.4 0.1-0.8q0-0.4 0.1-0.8q0.1-0.4 0.1-0.8q0.4-1.7 1-3.2q0.5-1.6 1.4-3q0.8-1.4 1.9-2.7q1.1-1.2 2.4-2.3c7.1-5.9 18.5-6.5 23.4-14.5q0.1 1.2 0.2 2.3q0.1 1.1 0 2.3q0 1.1-0.1 2.2q-0.1 1.2-0.2 2.3q-1.3 0.5-2.6 1.2q-1.2 0.7-2.3 1.6q-1.1 0.8-2.1 1.8q-1 1-1.8 2.1q3.2 0.5 6.4 1q0.1 0 0.2 0q-0.6 1.3-1.2 2.5q-0.6 1.2-1.4 2.3q-0.7 1.2-1.5 2.2q-0.8 1.1-1.7 2.1q-2.3 2.4-5 4.4q-2.7 1.9-5.7 3.2q-3.1 1.3-6.3 2q-3.3 0.7-6.6 0.7q-0.8 0.1-1.5 0z" />
	<path id="Layer" class="s1" d="m304.4 334.8q-0.2 0.9-0.4 1.8q-0.3 0.9-0.7 1.7q-0.3 0.9-0.8 1.7q-0.4 0.8-0.9 1.6q-0.5 0.9-1.1 1.7c-0.3 0.3-0.8 1.1-1.2 1.3q0 0-0.1 0.1q0 0 0 0q0 0 0 0q0 0-0.1 0q0 0.2-0.1 0.4q-0.7 2-1.4 4c-0.2 0.3-0.3 0.6-0.4 0.9q0 0.1 0 0.2q-0.1 0-0.1 0.1q0 0-0.1 0.1q0 0 0 0.1q0.1-0.2 0.1-0.3q0 0 0 0.1q0 0 0 0q0 0 0 0q0 0 0 0c-0.1 0.3-0.2 0.5-0.3 0.8q-0.1 0.3-0.4 0.6q-0.2 0.3-0.6 0.4q-0.4 0.1-0.8 0q-0.4-0.1-0.7-0.4q-1.8-1.6-3.4-3.5q-1.6-1.9-2.9-3.9q-1.3-2.1-2.3-4.3q-1-2.3-1.6-4.6q-0.1-0.4-0.1-0.7q0.1-0.4 0.3-0.6q0.2-0.3 0.5-0.5q0.4-0.1 0.7-0.1q1.1 0 2.2 0q-1.1-1.4-2.3-2.9q-0.2-0.3-0.5-0.6q-0.3-0.3-0.6-0.7q-0.3-0.3-0.5-0.6q-0.3-0.4-0.5-0.7q-0.2-0.3-0.3-0.6q-0.1-0.3-0.2-0.6q0-0.3 0-0.7q0-0.3 0-0.6q0.1-0.9 0.1-1.7q0.1-0.9 0.2-1.8q0.1-0.8 0.3-1.7q0.2-0.8 0.4-1.7q0-0.2 0.2-0.4q0.1-0.2 0.3-0.3q0.2-0.2 0.4-0.3q0.3-0.1 0.5-0.1q1 0.1 1.9 0q-0.8-0.9-1.5-1.8q-0.2-0.1-0.3-0.3q-0.1-0.2-0.1-0.4q-0.1-0.2-0.1-0.4q0-0.2 0.1-0.4q0.5-1.4 1.5-2.5q1-1.1 2.4-1.8q1.3-0.6 2.8-0.8q1.5-0.1 2.9 0.3c4.5 1.3 5.7 5.9 7.3 9.8c2.1 5 3.5 10.1 2.3 15.6z" />
	<path id="Layer" class="s1" d="m297.1 350.2c0.2-0.3 0.1-0.2 0 0z" />
	<path id="Layer" class="s7" d="m23.9 629.3l7.7-12.4l1.5 7.1q0.4 1.8 0.8 3.7c2.2-1.8 4.5-3.6 6.8-5.2q10.5-7.6 21-15.3l-2.2 12.7c-1.3 7.8-2.7 15.8-6.1 23q-0.5 1.2-1.2 2.4h-32.5q-0.1-0.3-0.2-0.6q-0.1-0.3-0.2-0.6q0-0.2-0.1-0.5q0-0.3-0.1-0.6q0 0 0 0q0 0 0-0.1q0 0 0 0q0 0 0 0c-0.5-4.9 2.2-9.5 4.8-13.6z" />
	<path id="Layer" class="s7" d="m523 640.9q0 0 0 0q0 0 0 0q0 0.1 0 0.1q0 0 0 0q0 0.3-0.1 0.6q0 0.3-0.1 0.5q-0.1 0.3-0.1 0.6q-0.1 0.3-0.2 0.6h-32.6q-0.6-1.2-1.2-2.4c-3.3-7.2-4.7-15.2-6.1-23l-2.2-12.7q10.5 7.7 21 15.3c2.3 1.6 4.6 3.4 6.8 5.2q0.4-1.9 0.8-3.7l1.6-7.1l7.7 12.4c2.5 4.1 5.2 8.7 4.7 13.6z" />
	<path id="Layer" class="s7" d="m568 640.9q0 0 0 0q0 0 0 0q0 0.1 0 0.1q0 0 0 0q0 0.3-0.1 0.6q0 0.3-0.1 0.5q-0.1 0.3-0.1 0.6q-0.1 0.3-0.2 0.6h-32.6q-0.6-1.2-1.2-2.4c-3.3-7.2-4.7-15.2-6.1-23l-2.2-12.7q10.5 7.7 21 15.3c2.3 1.6 4.6 3.4 6.8 5.2q0.4-1.9 0.8-3.7l1.6-7.1l7.7 12.4c2.5 4.1 5.2 8.7 4.7 13.6z" />
	<path id="Layer" class="s3" d="m565.8 264.5c0.5 0.5 0.8 1.1 0.8 1.8c0 0.6-0.3 1.3-0.8 1.7c-0.4 0.5-1.1 0.8-1.7 0.8h-56c-0.7 0-1.3-0.3-1.8-0.8c-0.5-0.4-0.7-1.1-0.7-1.7c0-0.7 0.2-1.3 0.7-1.8c0.5-0.5 1.1-0.7 1.8-0.7h56c0.6 0 1.3 0.2 1.7 0.7z" />
	<path id="Layer" class="s3" d="m498.1 319.3c-2.2 0-4-1.8-4-4c0-2.3 1.8-4 4-4c2.2 0 4 1.7 4 4c0 2.2-1.8 4-4 4z" />
	<path id="Layer" class="s5" d="m415.1 195.7l38 172.1l-30.3-8.4l-67.7-5.3l14-145l11.8-16.4l34.2 3z" />
	<path id="Layer" class="s6" d="m351.3 632v-50h19.1l-6.2 50h-12.9z" />
	<path id="Layer" class="s8" d="m347.9 627.7h3.7l14.2-5.7l7.7 5.7c2.1 0 4.2 0.5 6.2 1.3c2 0.8 3.8 2 5.3 3.5c1.5 1.5 2.7 3.3 3.5 5.3c0.8 2 1.3 4.1 1.3 6.2v0.6h-41.9z" />
	<path id="Layer" class="s6" d="m401.5 623.8l11-48.8l18.7 4.2l-17 47.5l-12.7-2.9z" />
	<path id="Layer" class="s8" d="m399.2 619l3.6 0.8l15.2-2.6l6.1 7.4c2.1 0.4 4.1 1.3 5.8 2.6c1.8 1.2 3.3 2.8 4.4 4.6c1.2 1.8 1.9 3.8 2.3 5.9c0.4 2.1 0.3 4.3-0.2 6.3l-0.1 0.6l-40.8-9.3z" />
	<path id="Layer" class="s8" d="m411.7 348.1l37.2 138.5c5.5 10.8 3.6 37.2-2.8 73.2l-12.6 20.3l-11.1 33l-25.3-2.3l5.5-24.3c0.2-20.6-1.3-67 15.5-81.4l-37.1-82.7l-0.7 47.2c0 0 2.2 22.8-0.5 29.3l-0.7 50.9l-9.5 62.9h-20.6c-7.1-13.9 2.2-16.7-7.9-37.6c-7.5-15.7-6.7-63.7-1.9-69l-2.9-120.3c-6.9-21.4-7.6-41.3-1.5-59.6z" />
	<path id="Layer" class="s4" d="m330.7 325.3q0.1-0.9 0.3-1.8q0.2-0.9 0.5-1.8q0.3-0.8 0.7-1.7l3.4-6.7c4.1-25.8 8.2-49.7 2.7-71.3c-0.4-18.8 5.4-36.5 21.6-46.2l7.3-4.3l3.7-9.4l34 0.8l0.1 12.3l12.1 19.4v0.1l-0.7 105.6l-3.4 10.9l5.1 12.7l-2.7 8.1l-67-10.7l-7.8-1.3q-0.3-0.1-0.7-0.2q-0.3-0.1-0.6-0.3q-0.3-0.1-0.7-0.3q-0.3-0.1-0.6-0.3q-1-0.6-2-1.3q-0.9-0.8-1.7-1.7q-0.8-0.9-1.4-1.9q-0.6-1-1.1-2.1q-0.1-0.2-0.2-0.5q-0.2-0.5-0.3-1q-0.2-0.5-0.3-1.1q-0.1-0.5-0.2-1.1q-0.1-0.5-0.1-1.1q0-0.9 0-1.8z" />
	<path id="Layer" class="s9" d="m361.9 265.8l-24.8 54.3l11.3 21.2l-7.8-1.3q-0.3-0.1-0.7-0.2q-0.3-0.1-0.6-0.3q-0.3-0.1-0.7-0.3q-0.3-0.1-0.6-0.3l-6.4-7.5q-0.2-0.5-0.3-1q-0.2-0.5-0.3-1.1q-0.1-0.5-0.2-1.1q-0.1-0.5-0.1-1.1z" />
	<path id="Layer" class="s5" d="m423.1 367.8l-30.3-8.4l-72.7-12.3l11.3-105.9c0.6-5.4 1.8-10.6 3.7-15.6c1.9-5 4.5-9.7 7.6-14c3.1-4.4 6.8-8.3 10.9-11.7c4.2-3.4 8.7-6.2 13.6-8.4l34.2 2.9z" />
	<path id="Layer" class="s10" d="m366.1 124.6c5-6.6 12.4-11 20.6-12.2c8.3-1.1 16.6 1 23.3 5.9c6.7 4.9 11.2 12.3 12.5 20.5v0.4c1.2 8.3-1.1 16.7-6.1 23.4c-5.1 6.7-12.6 11.1-21 12.2c-8.3 1.1-16.7-1.1-23.4-6.2c-6.6-5-11-12.5-12.2-20.9c-1-8.2 1.2-16.5 6.3-23.1z" />
	<path id="Layer" class="s8" d="m367.8 165.7q-1 0.2-1.9 0.1q-1-0.1-1.9-0.4q-0.9-0.3-1.8-0.8q-0.8-0.5-1.5-1.2q-0.7-0.6-1.3-1.4q-0.6-0.7-1.2-1.5q-0.5-0.7-1-1.6q-0.5-0.8-0.9-1.7q-1.3-2.8-2.4-5.7q-1-2.9-1.6-5.9q-0.7-3-1-6q-0.3-3.1-0.2-6.2c0.1-4.1 0.8-8.5 3.4-11.8q1.2-1.5 2.7-2.5q1.6-1 3.4-1.5q1.8-0.6 3.7-0.5q1.9 0 3.6 0.6c6.1-11.1 20.3-17 32.5-13.6c2.5 0.7 5 1.8 7.6 2.2c2.6 0.5 5.5 0.3 7.5-1.4l-2.8 5.2l9.6 1.2c-1.1-0.1-2.2 0.1-3.2 0.6c-0.9 0.6-1.7 1.4-2.2 2.4c-0.4 1-0.6 2.2-0.3 3.2c0.2 1.1 0.8 2.1 1.6 2.8c1.3 1.2 3.2 1.7 4.6 2.8c2.9 2.2 2.9 6.9 0.8 9.9c-2.1 3-5.7 4.6-9.2 5.4q-3.5 0.7-7 0.7q-3.5 0-6.9-0.8q-3.4-0.7-6.6-2.2q-3.1-1.5-5.9-3.7l-3.8 11.7c-1 2.9-2.7 6.4-5.7 6.2c-2.2-0.1-3.8-2.2-5.9-2.8c-3.5-1.1-7.1 2.4-7.6 6c-0.4 3.7 1.3 7.2 2.9 10.5" />
	<path id="Layer" fill-rule="evenodd" class="s2" d="m394.1 357l-64.9-12l20.8-112.1c1.6-8.6 6.6-16.2 13.8-21.2c7.2-4.9 16.1-6.8 24.7-5.2c8.6 1.6 16.2 6.5 21.2 13.8c4.9 7.2 6.8 16.1 5.2 24.7zm-60.2-15.3l57 10.6l20.1-108.1c1.5-7.6-0.2-15.4-4.5-21.8c-4.4-6.3-11.1-10.7-18.7-12.1c-7.5-1.4-15.3 0.3-21.7 4.6c-6.3 4.4-10.7 11.1-12.1 18.7z" />
	<path id="Layer" class="s2" d="m395.7 402.1c-0.9 4.1-5 6.8-9.2 5.9l-72.9-15.9c-4.1-0.9-6.8-5-5.9-9.1l10.7-49.1c0.9-4.2 5-6.8 9.2-5.9l72.9 15.8c4.1 0.9 6.8 5 5.9 9.2z" />
	<path id="Layer" class="s3" d="m355.9 344.8q0.1-0.3 0.2-0.5q0.1-0.2 0.2-0.4q0.2-0.1 0.4-0.3q0.1-0.1 0.2-0.1q0.2-0.1 0.3-0.2q0.2 0 0.3 0q0.2 0 0.3 0h34q0.1 0 0.1 0q0.1 0 0.2 0q0 0 0.1 0q0.1 0 0.1 0q0 0 0 0q0 0 0 0q0.1 0 0.1 0q0 0 0 0q0 0 0 0q0 0 0 0q0 0 0 0q0 0 0 0q0.1 0.1 0.1 0.1q0.1 0 0.2 0q0 0.1 0.1 0.1q0 0 0.1 0.1q0 0 0 0q0 0 0 0q0.1 0 0.1 0q0 0 0 0.1q0.2 0.1 0.3 0.3q0.2 0.1 0.3 0.4q0.1 0.2 0.2 0.4q0 0.2 0 0.4v21.1q0 0.1 0 0.3q-0.1 0.2-0.1 0.4q-0.1 0.2-0.2 0.3q-0.1 0.2-0.2 0.3q-0.2 0.2-0.3 0.3q-0.2 0.1-0.4 0.2q-0.2 0.1-0.4 0.1q-0.2 0.1-0.4 0.1h-0.3l-8-1.8l-25.9-5.8l-1-0.2l-0.7-0.1v-15.2q0-0.2 0-0.4z" />
	<path id="Layer" fill-rule="evenodd" class="s4" d="m355.9 344.8q0.1-0.3 0.2-0.5q0.1-0.2 0.2-0.4q0.2-0.1 0.4-0.3q0.1-0.1 0.2-0.1q0.2-0.1 0.3-0.2q0.2 0 0.3 0q0.2 0 0.3 0h34q0.1 0 0.1 0q0.1 0 0.2 0q0 0 0.1 0q0.1 0 0.1 0q0 0 0 0q0 0 0 0q0.1 0 0.1 0q0 0 0 0q0 0 0 0q0 0 0 0q0 0 0 0q0 0 0 0q0.1 0.1 0.1 0.1q0.1 0 0.2 0q0 0.1 0.1 0.1q0 0 0.1 0.1q0 0 0 0q0 0 0 0q0.1 0 0.1 0q0 0 0 0.1q0.2 0.1 0.3 0.3q0.2 0.1 0.3 0.4q0.1 0.2 0.2 0.4q0 0.2 0 0.4v21.1q0 0.1 0 0.3q-0.1 0.2-0.1 0.4q-0.1 0.2-0.2 0.3q-0.1 0.2-0.2 0.3q-0.2 0.2-0.3 0.3q-0.2 0.1-0.4 0.2q-0.2 0.1-0.4 0.1q-0.2 0.1-0.4 0.1h-0.3l-8-1.8c1.7 0 3.2 0 4.5-0.1q1.6 0 2.6 0q0.4 0 0.7-0.1q0.4-0.2 0.6-0.4q0.3-0.3 0.4-0.6q0.2-0.4 0.2-0.7v-19.4q0-0.1-0.1-0.2q0-0.1-0.1-0.2q-0.1-0.1-0.2-0.2q-0.2 0-0.3 0h-33.9q-0.2 0-0.3 0q-0.1 0.1-0.2 0.2q-0.1 0.1-0.1 0.2q-0.1 0.1-0.1 0.2v12.4q-0.7 0.7-1.3 1.3v-13.7q0-0.2 0-0.4zm1.4 14.9q0 0 0 0.1q0 0 0 0q0 0 0.1 0.1q0 0.1 0 0.2q0 0.1 0 0.2q0.1 0.1 0.1 0.2q0 0.1 0.1 0.2l-1-0.2l-0.7-0.1v-1.1l1.4 0.4q0 0 0 0z" />
	<path id="Layer" class="s4" d="m362 356.6q-0.1 0-0.3-0.1q-0.1-0.1-0.2-0.2q-0.1-0.2-0.2-0.3l-4.8-11.2q-0.1-0.3-0.1-0.5q0-0.3 0.2-0.6q0.1-0.2 0.4-0.3q0.2-0.1 0.5-0.1h34.7q0.1 0 0.1 0q0 0 0.1 0q0 0 0.1 0.1q0 0 0.1 0q0.2 0.1 0.3 0.2q0.2 0.1 0.3 0.3q0.1 0.2 0.1 0.5q0 0.2-0.1 0.4l-3.9 11.1q-0.1 0.2-0.2 0.3q-0.1 0.2-0.3 0.3q-0.1 0.1-0.3 0.1q-0.1 0.1-0.3 0.1h-25.9q-0.1 0-0.3-0.1z" />
	<path id="Layer" class="s5" d="m374.9 359.4c-1.6 0-2.8-1.2-2.8-2.7c0-1.6 1.2-2.8 2.8-2.8c1.5 0 2.7 1.2 2.7 2.8c0 1.5-1.2 2.7-2.7 2.7z" />
	<path id="Layer" class="s3" d="m328.3 354.1q0-0.1 0-0.2q0-0.1 0-0.2q0-0.1 0-0.2q0-0.1 0.1-0.3q0-0.1 0.1-0.2q0-0.1 0.1-0.2q0-0.1 0.1-0.2q0.1-0.1 0.2-0.2l24.7-23.4q0 0 0.1-0.1q0 0 0.1-0.1q0 0 0.1 0q0-0.1 0.1-0.1q0 0 0.1-0.1q0.1 0 0.2 0q0-0.1 0.1-0.1q0.1 0 0.2 0q0 0 0 0q0 0 0 0q0 0 0.1 0q0 0 0 0q0.2-0.1 0.5 0q0.2 0 0.4 0.1q0.2 0 0.4 0.2q0.2 0.1 0.4 0.3l13.4 14.2l1 1q0.1 0.1 0.1 0.1q0 0 0 0.1q0.1 0 0.1 0q0 0.1 0 0.1q0.2 0.3 0.3 0.6q0.1 0.4 0.1 0.7q-0.1 0.4-0.2 0.7q-0.2 0.3-0.4 0.6l-9.4 8.9l-3.9 3.6l-0.1 0.2l-0.8 0.6l-0.7-0.1l-1.3-0.3l-11.6-2.6l-12.8-2.8l-1.2-0.3l-0.7-0.1q0-0.1 0-0.2z" />
	<path id="Layer" class="s4" d="m328.3 354.1q0-0.1 0-0.2q0-0.1 0-0.2q0-0.1 0-0.2q0-0.1 0.1-0.3q0-0.1 0.1-0.2q0-0.1 0.1-0.2q0-0.1 0.1-0.2q0.1-0.1 0.2-0.2l24.7-23.4q0 0 0.1-0.1q0 0 0.1-0.1q0 0 0.1 0q0-0.1 0.1-0.1q0 0 0.1-0.1q0.1 0 0.2 0q0-0.1 0.1-0.1q0.1 0 0.2 0q0 0 0 0q0 0 0 0q0 0 0.1 0q0 0 0 0q0.2-0.1 0.5 0q0.2 0 0.4 0.1q0.2 0 0.4 0.2q0.2 0.1 0.4 0.3l13.4 14.2l1 1q0.1 0.1 0.1 0.1q0 0 0 0.1q0.1 0 0.1 0q0 0.1 0 0.1q0.2 0.3 0.3 0.6q0.1 0.4 0.1 0.7q-0.1 0.4-0.2 0.7q-0.2 0.3-0.4 0.6l-9.4 8.9l-3.9 3.6l-0.1 0.2l-0.8 0.6l-0.7-0.1l-1.3-0.3q0.5-0.4 0.9-0.8q0.2-0.2 0.4-0.4q0.6-0.6 1.3-1.3q1.8-1.6 3.4-3.2c3.6-3.4 6.5-6.3 8-7.8q0.2-0.2 0.4-0.4q0.1-0.3 0.2-0.5q0-0.3 0-0.6q0-0.3-0.1-0.5q-0.1-0.1-0.1-0.2q0 0-0.1-0.1q0-0.1-0.1-0.1q0-0.1-0.1-0.2l-0.7-0.7l-11.4-12l-1.2-1.3q-0.1-0.1-0.2-0.1q-0.1-0.1-0.2-0.1q-0.2 0-0.3 0q-0.1 0.1-0.2 0.2l-24.7 23.3q0 0 0 0.1q0 0-0.1 0q0 0.1 0 0.1q0 0 0 0q-0.1 0.1-0.1 0.2q0 0.1 0 0.2q0.1 0.1 0.1 0.2q0 0.1 0.1 0.1l0.4 0.5l-1.2-0.3l-0.7-0.1q0-0.1 0-0.2z" />
	<path id="Layer" class="s4" d="m328.3 353.4q0-0.1 0-0.1q0 0 0 0q0 0 0-0.1q0.1-0.1 0.1-0.1q0-0.1 0.1-0.2q0-0.1 0-0.2q0.1 0 0.2-0.1l0.2-0.2l25-23.6q0-0.1 0.1-0.1q0 0 0 0q0.1 0 0.1-0.1q0 0 0 0q0.1 0 0.1 0q0.1 0 0.1-0.1q0 0 0.1 0q0 0 0.1 0q0 0 0.1 0q0 0 0 0q0 0 0 0q0 0 0.1 0q0 0 0 0q0.1 0 0.3 0q0.1 0.1 0.3 0.2q0.1 0 0.2 0.2q0.1 0.1 0.2 0.2l0.9 2.2l3.8 8.7q0.1 0.1 0.1 0.3q0 0.2 0 0.3q0 0.2-0.1 0.4q-0.1 0.1-0.2 0.2l-2.2 2.1l-1.5 1.4l-0.6 0.6l-3.4 3.2l-4 3.8l-4.6 4.4l-0.9 0.8l-12.8-2.8l-1.2-0.3q-0.1 0-0.1 0q-0.1-0.1-0.1-0.1q-0.1 0-0.1-0.1q0 0-0.1 0q-0.1-0.1-0.1-0.2q-0.1-0.1-0.1-0.2q0-0.1-0.1-0.2q0-0.1 0-0.1v-0.1q0 0 0 0z" />
	<path id="Layer" class="s5" d="m352.4 352.4c-1.1 1.1-2.9 1-3.9-0.1c-1.1-1.1-1-2.8 0.1-3.9c1.1-1 2.8-1 3.9 0.1c1 1.1 1 2.8-0.1 3.9z" />
	<path id="Layer" class="s2" d="m326.6 333.2l1 0.1l-1 19.6l1.7 0.3h0.1l1.3 0.3l14.2 3.2l11.6 2.6h0.4l1.4 0.4h0.2l30.5 6.7l5.3 1.2l1.4 0.3l8.5-17.3l0.9 0.5l-8.9 18l-3.7-0.8l-8-1.8l-25.9-5.8l-1-0.2l-0.7-0.1l-1.3-0.3l-11.6-2.6l-12.8-2.8l-1.2-0.3l-0.7-0.1l-2.7-0.6z" />
	<path id="Layer" class="s2" d="m674.8 645.7q0 0.3-0.1 0.5q-0.1 0.2-0.3 0.4q-0.2 0.2-0.4 0.2q-0.2 0.1-0.4 0.1h-672.3c-0.3 0-0.6-0.1-0.9-0.3c-0.2-0.2-0.3-0.5-0.3-0.9c0-0.3 0.1-0.6 0.3-0.8c0.3-0.2 0.6-0.3 0.9-0.3h672.3q0.2 0 0.4 0q0.2 0.1 0.4 0.3q0.2 0.2 0.3 0.4q0.1 0.2 0.1 0.4z" />
	<path id="Layer" class="s6" d="m398.3 379.6c-1.2-0.8-2.3-1.8-3.1-3.1c-0.8-1.2-1.3-2.6-1.6-4.1c-0.2-1.4 0-2.9 0.4-4.3c0.4-1.5 1.1-2.8 2.1-3.9l-29.6-37.3l-4.4-49.3l22 1.8l0.5 38.2l26.5 46.3c1.7 1.8 2.7 4.1 2.8 6.6c0.2 2.5-0.6 4.9-2.2 6.9c-1.6 1.9-3.8 3.2-6.3 3.6c-2.4 0.4-5-0.1-7.1-1.4z" />
	<path id="Layer" class="s4" d="m365.8 226.4c0.8-2.1 2.1-4 3.8-5.5c1.7-1.5 3.7-2.7 5.9-3.3c2.2-0.6 4.5-0.8 6.7-0.4c2.3 0.4 4.4 1.3 6.3 2.6q1.6 1.2 2.8 2.7q1.3 1.6 2.1 3.4q0.8 1.8 1.1 3.8q0.3 2 0.1 4l-7 61.2l-3.2 17.1c2.1 0.8 5.4 3.1 2.4 8.2l-25.7 5.4q-0.3-1.3-0.3-2.6q0-1.3 0.5-2.6q0.5-1.2 1.3-2.2q0.9-1 2-1.7c-3.9-12-3.1-62.5-3.5-71.5c-0.3-4.8 2-11.9 4.7-18.6z" />
</svg>