<svg version="1.2" xmlns="http://www.w3.org/2000/svg" viewBox="0 0 675 591" width="400" height="375">
	<title>undraw_message_sent_re_q2kl-svg</title>
	<style>
		.s0 { fill: #f2f2f2 } 
		.s1 { fill: #ffb6b6 } 
		.s2 { fill: #2f2e41 } 
		.s3 { fill: #e6e6e6 } 
		.s4 { fill: #cccccc } 
		.s5 { fill: #287bff } 
		.s6 { fill: #3f3d56 } 
		.s7 { fill: #ffffff } 
		.s8 { fill: #e4e4e4 } 
	</style>
	<path id="Layer" class="s0" d="m32.6 201.3l-32.6-18.4q-0.1-7.3 0.6-14.6q0.7-7.3 2.3-14.4q1.6-7.2 4.1-14.1q2.4-6.9 5.7-13.4c7.5 34 47 50.2 65.2 79.9c2.8 4.7 5.1 9.6 6.8 14.8c1.7 5.1 2.8 10.4 3.3 15.8c0.5 5.4 0.4 10.9-0.3 16.2c-0.7 5.4-2 10.7-3.9 15.8l2.1 26.4c-8.4-2.5-16.4-5.9-24.1-10.2c-7.6-4.2-14.8-9.3-21.4-15.1c-6.5-5.8-12.5-12.3-17.6-19.3c-5.2-7.1-9.6-14.7-13.1-22.7q-1.5-3.4-2.7-6.9q-1.3-3.4-2.3-7q-1-3.5-1.8-7.1q-0.8-3.6-1.4-7.3c15.2 1.6 31.1 1.6 31.1 1.6z" />
	<path id="Layer" class="s0" d="m617.5 534.7l1-22.5q3.9-2 8-3.6q4.1-1.6 8.4-2.7q4.2-1.1 8.6-1.6q4.4-0.6 8.8-0.6c-16.3 13.3-14.2 38.8-25.2 56.7q-2.6 4.1-6.1 7.6q-3.5 3.5-7.6 6.1q-4.2 2.6-8.8 4.2q-4.6 1.7-9.5 2.2l-13.6 8.3c-0.9-5.1-1.3-10.4-1.1-15.7c0.2-5.2 1-10.5 2.3-15.5c1.4-5.1 3.2-10.1 5.6-14.8c2.4-4.7 5.3-9.1 8.6-13.1q1.4-1.7 3-3.4q1.5-1.6 3.1-3.1q1.7-1.5 3.4-2.9q1.7-1.4 3.5-2.7c3.2 8.6 7.6 17.1 7.6 17.1z" />
	<path id="Layer" class="s1" d="m582.5 577.3h-12.3l-5.9-47.5h18.2v47.5z" />
	<path id="Layer" class="s2" d="m585.6 589.2h-39.6v-0.5c0-2 0.4-4 1.1-5.9c0.8-1.9 2-3.6 3.4-5c1.4-1.4 3.1-2.6 5-3.4c1.9-0.7 3.9-1.1 5.9-1.1l7.2-5.5l13.6 5.5h3.4z" />
	<path id="Layer" class="s1" d="m525.3 577.3h-12.3l-5.8-47.5h18.2l-0.1 47.5z" />
	<path id="Layer" class="s2" d="m528.5 589.2h-39.7v-0.5c0-2 0.4-4 1.2-5.9c0.8-1.9 1.9-3.6 3.3-5c1.5-1.4 3.2-2.6 5.1-3.4c1.8-0.7 3.8-1.1 5.9-1.1l7.2-5.5l13.5 5.5h3.5z" />
	<path id="Layer" class="s2" d="m520 317.9l80 2c15.2 8.3 15.4 26.1 10.5 47.4c0 0 1.7 12.6-1.7 15.9c-3.4 3.4-5.1 3.4-3.4 9.3c1.7 5.8-7.2 15.4-6.1 16.5c1.1 1.1 3.6 7 3.6 7l-8.4 47.9c0 0-5.9 83.2-7.6 84.9c-1.6 1.6-3.3 0-1.6 4.2c1.6 4.2 3.3 2.5 1.6 4.2q-0.5 0.6-1.1 1.2q-0.5 0.6-1 1.2q-0.6 0.7-1.1 1.3q-0.5 0.6-1 1.3h-20.3c0 0-1.5-8.4-1.5-9.2c0-0.9-1.7-5.9-1.7-6.8c0-0.8 1.5-2.3 1.5-2.3q0.2-0.6 0.4-1.3q0.1-0.6 0.2-1.3q0.2-0.6 0.3-1.3q0.1-0.7 0.1-1.3c0-1.7 5.1-66.4 5.1-66.4l-10.1-84l-24.4 82.3c0 0 0 72.3-1.7 74c-1.6 1.6-1.6 0.8-0.8 4.2c0.8 3.3 4.2 2.5 1.7 5c-2.5 2.5-3.4-1.7-2.5 2.5l0.8 4.2l-25.2 0.4c0 0-3.4-7.1-1.7-9.6c1.7-2.5 1.6-1.9-0.5-6c-2-4.1-2.8-4.9-2-5.8c0.8-0.8 0.8-5.3 0.8-5.3l4.2-80.4c0 0 0.9-84.9 0.9-87.4q0-0.5 0-1q-0.1-0.4-0.2-0.9q0-0.5-0.2-1q-0.1-0.4-0.3-0.9v-3.4l3.2-12.1z" />
	<path id="Layer" class="s1" d="m568.1 151.6c-13.8 0-24.9-11.1-24.9-24.9c0-13.7 11.1-24.8 24.9-24.8c13.7 0 24.8 11.1 24.8 24.8c0 13.8-11.1 24.9-24.8 24.9z" />
	<path id="Layer" class="s3" d="m560 157.9l25-2l5 9c0 0 19.4 7.1 29 19.1l-8 85l-6.4 42.2c0 0 7 7.2 6.2 8c-0.8 0.8-1.6-0.8-0.8 1.6c0.8 2.4 2.4-0.3 0 2.1c-2.4 2.4 0 0.3 2.4 2.7c2.4 2.4 0 3.2 0 3.2c0 0-78.4 13.6-99.2-4l24-73.4l2-34.5q0.2-4.3 0.7-8.6q0.5-4.3 1.3-8.5q0.7-4.3 1.8-8.5q1-4.2 2.3-8.3c1.8-6 5-11.8 10.4-15z" />
	<path id="Layer" class="s2" d="m551 112.2q-0.6 0.1-1.2 0.3q-0.6 0.1-1.1 0.4q-0.6 0.3-1.1 0.6q-0.7 0.6-1.4 1.2q-0.6 0.6-1.1 1.4q-0.5 0.7-0.9 1.5q-0.4 0.8-0.7 1.7q-0.1-1.4-0.2-2.8q0-1.5 0-2.9q0-1.4 0-2.8q0.1-1.4 0.1-2.8c0.3-2.6 2.2-3.2 4.3-3.9c2-0.7 3.9-6.1 4.5-8.7c7.8-7.6 21.7-2.4 31 0.2c5.1 1.5 8.1 3.3 8.3 4.4l0.1 0.3l0.2 0.1c3.9 2 4.7 8.2 4.7 13.1c-0.1 9.2-3.3 19.6-5.1 20.5c-0.1 0-0.1 0-0.2 0c-2.6-2.2-5.9 0.1-7.4 1.4c-0.4-2.9-1.3-5.6-2.6-8.2c-1.3-2.5-3.1-4.8-5.2-6.8c-2.1-2-4.5-3.6-7.1-4.8c-2.6-1.1-5.4-1.9-8.2-2.2q-0.7 0-1.4-0.1q-0.7-0.1-1.4-0.2q-0.7-0.1-1.4-0.3q-0.7-0.1-1.4-0.3q-0.4-0.1-0.7-0.1q-0.4-0.1-0.7-0.2q-0.4 0-0.7 0q-0.4-0.1-0.8-0.1q-0.6 0-1.2 0.1z" />
	<path id="Layer" class="s1" d="m442.3 242.7c-3.6 3-8.7 3.7-13 1.6c-4.2-2.1-6.9-6.5-6.7-11.2c0.2-4.8 3.2-9 7.6-10.7c4.4-1.8 9.4-0.8 12.8 2.6l62.9-3.9l20.2-24.8l20.5 27.2l-40.6 26z" />
	<path id="Layer" class="s3" d="m584.3 187.2c2.3 14.2-42.2 41.5-42.2 41.5c0-3.4-26.5 21.9-27.7 19.1c-3.4-7.9-5.8-26.6-10.6-29.5c-2.7-1.8 16.4-17.8 16.4-17.8c0 0 10-10.1 23.1-22.8q2.8-2.8 6.1-4.8q3.3-1.9 7.1-3q3.7-1.1 7.6-1.2q3.8-0.2 7.6 0.7c2.5 0.5 10.2 3.5 12.6 17.8z" />
	<path id="Layer" class="s1" d="m662.5 320.1c3.1 3.5 3.9 8.6 1.9 12.9c-2 4.4-6.3 7.1-11.1 7c-4.7-0.1-9-3-10.8-7.3c-1.9-4.4-1-9.5 2.3-12.9l-5.2-62.9l-25.2-19.6l26.7-21l26.9 40z" />
	<path id="Layer" class="s3" d="m604 179.4c14.2-2.7 42.4 41.2 42.4 41.2c-3.4 0.1 22.5 26.1 19.7 27.4c-7.8 3.5-26.4 6.3-29.3 11.2c-1.7 2.7-18.1-16.1-18.1-16.1c0 0-10.3-9.8-23.3-22.6q-2.8-2.7-4.9-6q-2-3.3-3.2-7q-1.2-3.7-1.4-7.6q-0.2-3.8 0.6-7.6c0.5-2.6 3.3-10.3 17.5-12.9z" />
	<path id="Layer" class="s4" d="m674.8 589.4q0 0.2-0.1 0.5q-0.1 0.2-0.2 0.4q-0.2 0.1-0.4 0.2q-0.2 0.1-0.5 0.1h-280.3c-0.3 0-0.6-0.1-0.8-0.3c-0.2-0.3-0.4-0.6-0.4-0.9c0-0.3 0.2-0.6 0.4-0.8c0.2-0.3 0.5-0.4 0.8-0.4h280.3q0.3 0 0.5 0.1q0.2 0.1 0.4 0.3q0.1 0.1 0.2 0.4q0.1 0.2 0.1 0.4z" />
	<path id="Layer" class="s5" d="m422.8 230.3c2.5 1 4.7 2.5 6.5 4.4c1.9 1.8 3.4 4 4.4 6.5c1 2.4 1.5 5 1.5 7.6v211.8c0 2.7-0.5 5.3-1.5 7.7c-1 2.4-2.5 4.6-4.4 6.5c-1.8 1.9-4 3.3-6.5 4.3c-2.4 1-5 1.6-7.6 1.6h-340.2c-2.6 0-5.2-0.6-7.7-1.6c-2.4-1-4.6-2.4-6.5-4.3c-1.8-1.9-3.3-4.1-4.3-6.5c-1-2.4-1.6-5-1.6-7.7v-211.8c0-2.6 0.6-5.2 1.6-7.6c1-2.5 2.5-4.7 4.3-6.5c1.9-1.9 4.1-3.4 6.5-4.4c2.5-1 5.1-1.5 7.7-1.5h340.2c2.6 0 5.2 0.5 7.6 1.5z" />
	<path id="Layer" fill-rule="evenodd" class="s6" d="m422.8 230.3c2.5 1 4.7 2.5 6.5 4.4c1.9 1.8 3.4 4 4.4 6.5c1 2.4 1.5 5 1.5 7.6v211.8c0 2.7-0.5 5.3-1.5 7.7c-1 2.4-2.5 4.6-4.4 6.5c-1.8 1.9-4 3.3-6.5 4.3c-2.4 1-5 1.6-7.6 1.6h-340.2c-2.6 0-5.2-0.6-7.7-1.6c-2.4-1-4.6-2.4-6.5-4.3c-1.8-1.9-3.3-4.1-4.3-6.5c-1-2.4-1.6-5-1.6-7.7v-211.8c0-2.6 0.6-5.2 1.6-7.6c1-2.5 2.5-4.7 4.3-6.5c1.9-1.9 4.1-3.4 6.5-4.4c2.5-1 5.1-1.5 7.7-1.5h340.2c2.6 0 5.2 0.5 7.6 1.5zm-1.1 18.5q0-1.3-0.5-2.5q-0.5-1.2-1.4-2.1q-0.9-0.9-2.1-1.4q-1.2-0.5-2.6-0.5h-340.1q-1.3 0-2.5 0.5q-1.2 0.5-2.2 1.4q-0.9 0.9-1.4 2.1q-0.5 1.2-0.5 2.6v194.6c0 2.4 0.5 4.8 1.4 7.1c0.9 2.2 2.3 4.2 4 6c1.7 1.7 3.7 3.1 5.9 4c2.2 1 4.6 1.5 7 1.5c37 0.6 136.3 1.5 231.5 1.5c41.6 0-12-0.1 22.5-0.6c10.7-0.2 21.2-2.4 31.1-6.6c9.8-4.2 18.7-10.3 26.2-17.9c7.5-7.6 13.4-16.6 17.5-26.5c4.1-9.8 6.2-20.4 6.2-31.1z" />
	<path id="Layer" class="s6" d="m376.5 107.3q1.5 0.5 2.9 1.4q1.4 0.9 2.4 2.1q1.1 1.3 1.7 2.8l48.4 112.9l-0.6 0.3l0.6-0.3c0.7 1.7 1 3.5 0.9 5.4c-0.2 1.8-0.8 3.6-1.8 5.1c-1.1 1.5-2.4 2.8-4 3.7c-1.7 0.8-3.5 1.3-5.3 1.3l-347.6-0.6c-1.8 0-3.6-0.5-5.1-1.3c-1.6-0.8-3-2-4-3.4c-1-1.5-1.7-3.2-1.9-4.9c-0.3-1.8-0.1-3.6 0.5-5.3l40-112.3q0.6-1.6 1.7-3q1-1.3 2.4-2.3q1.4-1 3.1-1.5q1.6-0.6 3.3-0.6h259.2q1.6 0 3.2 0.5z" />
	<path id="Layer" class="s6" d="m432.8 228.9q0 0.6-0.1 1.2q0 0.5-0.1 1.1q-0.1 0.5-0.3 1.1q-0.2 0.5-0.4 1l-48.4 86.9q-0.6 1.5-1.7 2.8q-1 1.2-2.4 2.1q-1.4 0.9-2.9 1.4q-1.6 0.5-3.2 0.5h-259.2q-1.7 0-3.3-0.6q-1.7-0.5-3.1-1.5q-1.4-1-2.4-2.3q-1.1-1.4-1.7-3l-40-86.3c-0.5-1.4-0.7-2.9-0.6-4.3c0.1-1.5 0.4-2.9 1-4.2c0.7-1.3 1.6-2.5 2.6-3.5c1.1-1 2.4-1.7 3.8-2.2q0.4-0.2 0.9-0.3q0.4-0.1 0.9-0.2q0.5-0.1 0.9-0.1q0.5-0.1 1-0.1h42.4l17.4-0.1l228-0.4h17.3l42.5-0.1c1.4 0 2.9 0.3 4.2 0.9c1.4 0.5 2.6 1.3 3.6 2.4c1.1 1 1.9 2.2 2.5 3.6c0.5 1.3 0.8 2.8 0.8 4.2z" />
	<path id="Layer" class="s6" d="m100.5 387.7c5.1 0 75.7 4.3 75.7 9.4c0 5.1-70.6 9.2-75.7 9.2c-2.5 0-4.8-1-6.6-2.8c-1.7-1.7-2.7-4.1-2.7-6.5c0-2.5 1-4.9 2.7-6.6c1.8-1.8 4.1-2.7 6.6-2.7z" />
	<path id="Layer" class="s3" d="m365.6 40.2c2.7 1.1 5.1 2.7 7.2 4.8c2 2 3.6 4.5 4.7 7.2c1.2 2.6 1.7 5.5 1.7 8.4v264.6q-0.6 0.5-1.3 0.8q-0.8 0.3-1.5 0.5q-0.8 0.2-1.5 0.4q-0.8 0.1-1.6 0.1h-256.8v-266.4c0-2.9 0.6-5.8 1.7-8.4c1.1-2.7 2.8-5.2 4.8-7.2c2.1-2.1 4.5-3.7 7.2-4.8c2.6-1.1 5.5-1.7 8.4-1.7h218.5c2.9 0 5.8 0.6 8.5 1.7z" />
	<path id="Layer" class="s7" d="m307.5 63.2c10.6 4.4 20.4 10.9 28.5 19.1c8.2 8.2 14.7 17.9 19.2 28.6c4.4 10.7 6.7 22.1 6.7 33.7v182.4h-228v-250.5c0-2.6 0.5-5.2 1.5-7.7c1-2.4 2.5-4.6 4.4-6.5c1.8-1.8 4-3.3 6.5-4.3c2.4-1 5-1.6 7.7-1.6h119.7c11.6 0 23.1 2.3 33.8 6.8z" />
	<path id="Layer" class="s8" d="m326.5 306.2c0.9 0.9 1.4 2.1 1.4 3.4c0 1.3-0.5 2.6-1.4 3.5c-0.9 0.9-2.2 1.4-3.5 1.4h-150.3c-1.3 0-2.5-0.5-3.5-1.4c-0.9-0.9-1.4-2.2-1.4-3.5c0-1.3 0.5-2.5 1.4-3.4c1-1 2.2-1.5 3.5-1.5h150.3c1.3 0 2.6 0.5 3.5 1.5z" />
	<path id="Layer" class="s8" d="m326.5 286.8c0.9 0.9 1.5 2.1 1.5 3.4c0 1.3-0.6 2.6-1.5 3.5c-0.9 0.9-2.2 1.5-3.5 1.5h-150.3c-1.3 0-2.5-0.6-3.5-1.5c-0.9-0.9-1.4-2.2-1.4-3.5c0-1.3 0.5-2.5 1.4-3.4c1-0.9 2.2-1.5 3.5-1.5h150.3c1.3 0 2.6 0.6 3.5 1.5z" />
	<path id="Layer" class="s8" d="m241.3 267.4c1 0.9 1.5 2.2 1.5 3.5c0 1.3-0.5 2.5-1.5 3.4c-0.9 1-2.1 1.5-3.4 1.5h-65.2c-1.3 0-2.5-0.5-3.5-1.5c-0.9-0.9-1.4-2.1-1.4-3.4c0-1.3 0.5-2.6 1.4-3.5c1-0.9 2.2-1.4 3.5-1.4h65.2c1.3 0 2.5 0.5 3.4 1.4z" />
	<path id="Layer" class="s8" d="m326.5 226.8c0.9 0.9 1.5 2.2 1.5 3.5c0 1.3-0.6 2.5-1.5 3.5c-0.9 0.9-2.2 1.4-3.5 1.4h-150.3c-1.3 0-2.5-0.5-3.5-1.4c-0.9-1-1.4-2.2-1.4-3.5c0-1.3 0.5-2.6 1.4-3.5c1-0.9 2.2-1.4 3.5-1.4h150.3c1.3 0 2.6 0.5 3.5 1.4z" />
	<path id="Layer" class="s8" d="m326.5 207.5c0.9 0.9 1.4 2.1 1.4 3.4c0 1.3-0.5 2.6-1.4 3.5c-0.9 0.9-2.2 1.4-3.5 1.4h-150.3c-1.3 0-2.5-0.5-3.5-1.4c-0.9-0.9-1.4-2.2-1.4-3.5c0-1.3 0.5-2.5 1.4-3.4c1-1 2.2-1.5 3.5-1.5h150.3c1.3 0 2.6 0.5 3.5 1.5z" />
	<path id="Layer" class="s8" d="m241.3 188.1c1 0.9 1.5 2.1 1.5 3.4c0 1.3-0.5 2.6-1.5 3.5c-0.9 0.9-2.1 1.5-3.4 1.5h-65.2c-1.3 0-2.5-0.6-3.5-1.5c-0.9-0.9-1.4-2.2-1.4-3.5c0-1.3 0.5-2.5 1.4-3.4c1-0.9 2.2-1.5 3.5-1.5h65.2c1.3 0 2.5 0.6 3.4 1.5z" />
	<path id="Layer" class="s5" d="m326.5 147.5c0.9 0.9 1.5 2.2 1.5 3.5c0 1.3-0.6 2.5-1.5 3.4c-0.9 1-2.2 1.5-3.5 1.5h-150.3c-1.3 0-2.5-0.5-3.5-1.5c-0.9-0.9-1.4-2.1-1.4-3.4c0-1.3 0.5-2.6 1.4-3.5c1-0.9 2.2-1.4 3.5-1.4h150.3c1.3 0 2.6 0.5 3.5 1.4z" />
	<path id="Layer" class="s5" d="m326.5 128.1c0.9 0.9 1.5 2.2 1.5 3.5c0 1.3-0.6 2.5-1.5 3.5c-0.9 0.9-2.2 1.4-3.5 1.4h-150.3c-1.3 0-2.5-0.5-3.5-1.4c-0.9-1-1.4-2.2-1.4-3.5c0-1.3 0.5-2.6 1.4-3.5c1-0.9 2.2-1.4 3.5-1.4h150.3c1.3 0 2.6 0.5 3.5 1.4z" />
	<path id="Layer" class="s5" d="m241.3 108.7c1 1 1.5 2.2 1.5 3.5c0 1.3-0.5 2.6-1.5 3.5c-0.9 0.9-2.1 1.4-3.4 1.4h-65.2c-1.3 0-2.5-0.5-3.5-1.4c-0.9-0.9-1.4-2.2-1.4-3.5c0-1.3 0.5-2.5 1.4-3.5c1-0.9 2.2-1.4 3.5-1.4h65.2c1.3 0 2.5 0.5 3.4 1.4z" />
	<path id="Layer" class="s5" d="m371 76.3c-21.1 0-38.1-17-38.1-38.1c0-21.1 17-38.2 38.1-38.2c21.1 0 38.2 17.1 38.2 38.2c0 21.1-17.1 38.1-38.2 38.1z" />
	<path id="Layer" class="s7" d="m365.8 58q-0.5 0-0.9-0.1q-0.5-0.1-1-0.3q-0.4-0.2-0.8-0.6q-0.4-0.3-0.7-0.7l-10.4-13.9c-0.6-0.9-0.9-2-0.8-3.1c0.2-1.1 0.8-2.1 1.7-2.8c0.9-0.7 2-1 3.1-0.8c1.1 0.1 2.1 0.7 2.8 1.7l6.8 9l17.5-26.2c0.7-0.9 1.6-1.6 2.7-1.8c1.1-0.2 2.3 0 3.2 0.6c1 0.6 1.6 1.6 1.8 2.7c0.2 1.1 0 2.3-0.6 3.2l-20.8 31.2q-0.3 0.5-0.7 0.8q-0.4 0.3-0.8 0.6q-0.5 0.2-0.9 0.4q-0.5 0.1-1 0.1q-0.1 0-0.2 0z" />
</svg>